<svg width="20" height="20" viewBox="0 0 20 20" fill="none" xmlns="http://www.w3.org/2000/svg">
<path d="M15 15C16.8409 15 18.3333 12.0153 18.3333 8.33335C18.3333 4.65146 16.8409 1.66669 15 1.66669C13.159 1.66669 11.6666 4.65146 11.6666 8.33335C11.6666 12.0153 13.159 15 15 15Z" stroke="#D1D5DB" stroke-width="1.25"/>
<path d="M15 1.66669C12.414 1.66669 7.05423 3.64803 3.97583 4.87812C2.56614 5.44142 1.66663 6.81529 1.66663 8.33335C1.66663 9.85144 2.56614 11.2253 3.97583 11.7886C7.05423 13.0187 12.414 15 15 15" stroke="#D1D5DB" stroke-width="1.25"/>
<path d="M9.16667 18.3333L7.54728 17.4419C5.78414 16.4714 4.78878 14.5112 5.03789 12.5" stroke="#D1D5DB" stroke-width="1.25" stroke-linecap="round" stroke-linejoin="round"/>
</svg>
