<svg width="20" height="20" viewBox="0 0 20 20" fill="none" xmlns="http://www.w3.org/2000/svg">
<path d="M18.3332 17.5H17.4998C16.2903 17.5 15.2315 16.7842 14.9998 15.8333C14.7682 16.7842 13.7093 17.5 12.4998 17.5C11.2903 17.5 10.2315 16.7842 9.99984 15.8333C9.76817 16.7842 8.70934 17.5 7.49984 17.5C6.29036 17.5 5.23147 16.7842 4.99984 15.8333C4.7682 16.7842 3.70931 17.5 2.49984 17.5H1.6665" stroke="black" stroke-width="1.25" stroke-linecap="round" stroke-linejoin="round"/>
<path d="M15.8335 2.5L15.6127 2.57358C14.5127 2.94027 13.9627 3.1236 13.6481 3.56008C13.3335 3.99656 13.3335 4.57633 13.3335 5.73587V14.1667" stroke="black" stroke-width="1.25" stroke-linecap="round" stroke-linejoin="round"/>
<path d="M9.1665 2.5L8.94575 2.57358C7.84571 2.94027 7.2957 3.1236 6.9811 3.56008C6.6665 3.99656 6.6665 4.57633 6.6665 5.73587V14.1667" stroke="black" stroke-width="1.25" stroke-linecap="round" stroke-linejoin="round"/>
<path d="M6.6665 5.83331H13.3332M6.6665 9.16665H13.3332M6.6665 12.5H13.3332" stroke="black" stroke-width="1.25" stroke-linecap="round" stroke-linejoin="round"/>
</svg>
