<svg width="20" height="20" viewBox="0 0 20 20" fill="none" xmlns="http://www.w3.org/2000/svg">
<path d="M9.83446 5.40792L11.0725 4.16995C12.4664 2.77601 14.2913 2.19782 16.2226 2.10334C16.9739 2.06659 17.3495 2.04821 17.6506 2.34941C17.9519 2.6506 17.9335 3.0262 17.8967 3.77742C17.8022 5.70876 17.224 7.5337 15.8301 8.9276L14.5921 10.1656C13.5726 11.1851 13.2828 11.475 13.4968 12.5808C13.708 13.4256 13.9125 14.2436 13.2982 14.8578C12.5531 15.6029 11.8735 15.6029 11.1284 14.8578L5.14219 8.87168C4.39711 8.12658 4.39709 7.44693 5.14219 6.70184C5.75643 6.08759 6.57445 6.29205 7.41918 6.50326C8.52504 6.71729 8.81496 6.42742 9.83446 5.40792Z" stroke="#D1D5DB" stroke-width="1.25" stroke-linejoin="round"/>
<path d="M14.1632 5.83334H14.1707" stroke="#D1D5DB" stroke-width="1.66667" stroke-linecap="round" stroke-linejoin="round"/>
<path d="M2.08337 17.9167L6.25004 13.75" stroke="#D1D5DB" stroke-width="1.25" stroke-linecap="round"/>
<path d="M7.08337 17.9167L8.75004 16.25" stroke="#D1D5DB" stroke-width="1.25" stroke-linecap="round"/>
<path d="M2.08337 12.9167L3.75004 11.25" stroke="#D1D5DB" stroke-width="1.25" stroke-linecap="round"/>
</svg>
