<svg width="70" height="80" viewBox="0 0 70 80" fill="none" xmlns="http://www.w3.org/2000/svg">
<g id="Group 1">
<path id="Vector" d="M34.9914 7.7787L48.285 15.4553L55.0254 11.5744L34.9914 0L1.52768 19.3361L8.23404 23.2169L34.9914 7.7787Z" fill="#F57C00"/>
<path id="Vector_2" d="M61.7324 15.4557L34.9921 30.894L21.6985 23.2174L14.9751 27.0982L34.9921 38.6556L68.4728 19.3366L61.7324 15.4557Z" fill="#F57C00"/>
<path id="Vector_3" d="M6.90634 41.4304L0.182953 37.5496V60.6644L33.6467 80.0005V72.2388L6.90634 56.7836V41.4304Z" fill="#F57C00"/>
<path id="Vector_4" d="M0.182953 29.7875L26.9233 45.2258V60.5789L33.6467 64.4768V41.3449L0.182953 22.0258V29.7875Z" fill="#F57C00"/>
<path id="Vector_5" d="M56.3702 37.5488V29.7871L36.3362 41.3446V79.9997L43.0596 76.1189V45.2254L56.3702 37.5488Z" fill="#F57C00"/>
<path id="Vector_6" d="M63.0766 25.9067V56.7832L49.7831 64.4768V72.2385L69.817 60.664V22.0258L63.0766 25.9067Z" fill="#F57C00"/>
</g>
</svg>
