<svg width="14" height="14" viewBox="0 0 14 14" fill="none" xmlns="http://www.w3.org/2000/svg">
<g id="codesandbox">
<path id="Vector" d="M6.32642 1.44538C6.65513 1.25956 6.81952 1.16666 7 1.16666C7.18048 1.16666 7.34487 1.25956 7.67357 1.44538L11.5764 3.65156C11.9051 3.83738 12.0695 3.93029 12.1598 4.08332C12.25 4.23636 12.25 4.42218 12.25 4.79382V9.20616C12.25 9.5778 12.25 9.76365 12.1598 9.91666C12.0695 10.0697 11.9051 10.1626 11.5764 10.3484L7.67357 12.5546C7.34487 12.7404 7.18048 12.8333 7 12.8333C6.81952 12.8333 6.65513 12.7404 6.32642 12.5546L2.42357 10.3484C2.09485 10.1626 1.93048 10.0697 1.84024 9.91666C1.75 9.76365 1.75 9.5778 1.75 9.20616V4.79382C1.75 4.42218 1.75 4.23636 1.84024 4.08332C1.93048 3.93029 2.09485 3.83738 2.42357 3.65156L6.32642 1.44538Z" stroke="#2979FF" stroke-width="0.875" stroke-linecap="round" stroke-linejoin="round"/>
<path id="Vector_2" d="M9.04159 2.49112L7.66142 3.23785C7.33843 3.4126 7.17696 3.49998 6.99992 3.49998C6.82288 3.49998 6.66141 3.4126 6.33842 3.23785L4.95825 2.49112" stroke="#2979FF" stroke-width="0.875" stroke-linecap="round" stroke-linejoin="round"/>
<path id="Vector_3" d="M7.00008 6.77566V12.8333M7.00008 6.77566L11.9584 4.08334M7.00008 6.77566L2.04175 4.08334" stroke="#2979FF" stroke-width="0.875" stroke-linecap="round" stroke-linejoin="round"/>
<path id="Vector_4" d="M1.75 7L3.43842 7.90913C3.7522 8.07812 3.90909 8.16258 3.99621 8.31437C4.08333 8.46621 4.08333 8.65509 4.08333 9.03292V11.0833" stroke="#2979FF" stroke-width="0.875" stroke-linecap="round" stroke-linejoin="round"/>
<path id="Vector_5" d="M12.2501 7L10.5617 7.90913C10.2479 8.07812 10.091 8.16258 10.0038 8.31437C9.91675 8.46621 9.91675 8.65509 9.91675 9.03292V11.0833" stroke="#2979FF" stroke-width="0.875" stroke-linecap="round" stroke-linejoin="round"/>
</g>
</svg>
