<svg width="20" height="20" viewBox="0 0 20 20" fill="none" xmlns="http://www.w3.org/2000/svg">
<g id="coins-01">
<path id="Vector" d="M12.9167 10.8333C15.9082 10.8333 18.3333 10.0871 18.3333 9.16661C18.3333 8.24613 15.9082 7.49994 12.9167 7.49994C9.92512 7.49994 7.5 8.24613 7.5 9.16661C7.5 10.0871 9.92512 10.8333 12.9167 10.8333Z" stroke="#D1D5DB" stroke-width="1.25"/>
<path id="Vector_2" d="M18.3333 12.9166C18.3333 13.8371 15.9082 14.5833 12.9167 14.5833C9.92508 14.5833 7.5 13.8371 7.5 12.9166" stroke="#D1D5DB" stroke-width="1.25"/>
<path id="Vector_3" d="M18.3333 9.16663V16.5C18.3333 17.5125 15.9082 18.3333 12.9167 18.3333C9.92508 18.3333 7.5 17.5125 7.5 16.5V9.16663" stroke="#D1D5DB" stroke-width="1.25"/>
<path id="Vector_4" d="M7.08329 4.99996C10.0748 4.99996 12.5 4.25377 12.5 3.33329C12.5 2.41282 10.0748 1.66663 7.08329 1.66663C4.09175 1.66663 1.66663 2.41282 1.66663 3.33329C1.66663 4.25377 4.09175 4.99996 7.08329 4.99996Z" stroke="#D1D5DB" stroke-width="1.25"/>
<path id="Vector_5" d="M4.99996 9.16661C3.42345 8.97477 1.97488 8.47869 1.66663 7.49994M4.99996 13.3333C3.42345 13.1414 1.97488 12.6454 1.66663 11.6666" stroke="#D1D5DB" stroke-width="1.25" stroke-linecap="round"/>
<path id="Vector_6" d="M4.99996 17.4999C3.42345 17.3081 1.97488 16.812 1.66663 15.8333V3.33328" stroke="#D1D5DB" stroke-width="1.25" stroke-linecap="round"/>
<path id="Vector_7" d="M12.5 4.99995V3.33328" stroke="#D1D5DB" stroke-width="1.25" stroke-linecap="round"/>
</g>
</svg>
