<svg width="186" height="167" viewBox="0 0 186 167" fill="none" xmlns="http://www.w3.org/2000/svg">
<g id="connection-lost 1" clip-path="url(#clip0_6781_2133)">
<g id="Group">
<g id="Group_2">
<path id="Vector" d="M68.3455 137.624C81.9565 137.624 92.9904 126.59 92.9904 112.979C92.9904 99.3681 81.9565 88.3342 68.3455 88.3342C54.7345 88.3342 43.7006 99.3681 43.7006 112.979C43.7006 126.59 54.7345 137.624 68.3455 137.624Z" fill="#FFCD52"/>
<path id="Vector_2" d="M67.68 54.3497C66.8972 54.5384 66.103 54.6762 65.3023 54.7622C64.524 54.8556 63.7107 54.9217 62.9168 54.9568C62.123 54.9918 61.3213 55.0035 60.5196 54.984C59.716 54.9693 58.9141 54.9043 58.1186 54.7894C58.9 54.6004 59.693 54.4626 60.4924 54.3769C61.2863 54.2835 62.0827 54.2187 62.8818 54.1824C63.6601 54.1434 64.4734 54.1396 65.2751 54.159C66.08 54.1706 66.8833 54.2343 67.68 54.3497Z" fill="#F46534"/>
<path id="Vector_3" d="M63.1308 59.3502C62.9453 58.5669 62.8088 57.7728 62.7222 56.9725C62.6288 56.1942 62.5587 55.3848 62.5237 54.587C62.4887 53.7893 62.4809 52.9915 62.5004 52.1938C62.5131 51.3887 62.5781 50.5854 62.6949 49.7888C62.8836 50.5717 63.0214 51.3659 63.1074 52.1665C63.2008 52.9604 63.2657 53.7556 63.302 54.552C63.3383 55.3485 63.3461 56.1462 63.3254 56.9453C63.3126 57.7503 63.2476 58.5536 63.1308 59.3502ZM53.2775 56.2682C53.4699 56.9429 53.6116 57.631 53.7017 58.3268C53.799 59.0156 53.8729 59.7044 53.9118 60.3971C53.9507 61.0897 53.9663 61.7824 53.9507 62.479C53.9431 63.1804 53.8833 63.8802 53.7717 64.5726C53.5799 63.8976 53.4369 63.2096 53.3437 62.514C53.2464 61.8252 53.1763 61.1364 53.1374 60.4438C53.0985 59.7511 53.0829 59.0584 53.0985 58.3618C53.1061 57.6604 53.1659 56.9606 53.2775 56.2682Z" fill="#F46534"/>
<path id="Vector_4" d="M57.6828 60.1714C57.0076 60.3627 56.3197 60.5058 55.6242 60.5994C54.9354 60.6967 54.2427 60.7668 53.55 60.8096C52.8573 60.8524 52.1647 60.864 51.4681 60.8485C50.7667 60.8407 50.0669 60.7809 49.3745 60.6695C50.0491 60.4758 50.7372 60.3328 51.4331 60.2414C52.1219 60.1441 52.8145 60.0702 53.5033 60.0313C54.1921 59.9923 54.8926 59.9807 55.5892 59.9962C56.2903 60.0046 56.99 60.0631 57.6828 60.1714ZM173.778 86.9449C172.997 87.1336 172.204 87.2714 171.404 87.3574C170.61 87.4508 169.814 87.517 169.015 87.5559C168.216 87.5948 167.418 87.6026 166.622 87.5792C165.817 87.5644 165.013 87.4994 164.217 87.3846C164.999 87.196 165.794 87.0582 166.594 86.9721C167.373 86.8788 168.186 86.8126 168.98 86.7776C169.774 86.7425 170.575 86.7348 171.377 86.7542C172.181 86.7676 172.982 86.8313 173.778 86.9449Z" fill="#F46534"/>
<path id="Vector_5" d="M169.217 91.9455C169.028 91.1627 168.89 90.3685 168.805 89.5678C168.711 88.7739 168.646 87.9787 168.61 87.1823C168.571 86.404 168.567 85.5868 168.587 84.789C168.598 83.9839 168.663 83.1805 168.781 82.3841C168.97 83.1669 169.108 83.9611 169.194 84.7618C169.287 85.5556 169.352 86.3508 169.388 87.1473C169.425 87.9437 169.432 88.7415 169.412 89.5405C169.397 90.3455 169.332 91.1487 169.217 91.9455ZM159.375 88.8634C159.569 89.538 159.712 90.2261 159.804 90.922C159.901 91.6108 159.975 92.2996 160.014 92.9923C160.053 93.685 160.068 94.3777 160.053 95.0743C160.045 95.7769 159.985 96.478 159.874 97.1718C159.68 96.4971 159.537 95.809 159.445 95.1132C159.348 94.4205 159.278 93.7317 159.235 93.039C159.193 92.3463 159.185 91.6536 159.2 90.957C159.209 90.2559 159.267 89.5562 159.375 88.8634Z" fill="#F46534"/>
<path id="Vector_6" d="M163.781 92.7666C163.106 92.9599 162.418 93.1029 161.722 93.1947C161.033 93.292 160.341 93.362 159.648 93.4048C158.955 93.4476 158.263 93.4593 157.566 93.4438C156.865 93.4362 156.165 93.3763 155.472 93.2647C156.147 93.0711 156.835 92.928 157.531 92.8367C158.22 92.7394 158.909 92.6654 159.601 92.6265C160.294 92.5876 160.991 92.5759 161.683 92.5915C162.386 92.5999 163.087 92.6584 163.781 92.7666ZM56.0251 156.778C55.2422 156.967 54.448 157.104 53.6473 157.19C52.8535 157.284 52.0583 157.349 51.2618 157.385C50.4641 157.424 49.6663 157.428 48.8686 157.408C48.0636 157.396 47.2602 157.331 46.4636 157.214C47.2465 157.025 48.0407 156.887 48.8413 156.801C49.6352 156.708 50.4304 156.643 51.2268 156.607C52.0233 156.57 52.821 156.563 53.6201 156.583C54.425 156.598 55.2282 156.663 56.0251 156.778Z" fill="#F46534"/>
<path id="Vector_7" d="M51.4564 161.775C51.2674 160.993 51.1296 160.2 51.0439 159.401C50.9505 158.623 50.8843 157.809 50.8493 157.015C50.8143 156.221 50.8026 155.42 50.8221 154.618C50.8367 153.815 50.9017 153.013 51.0166 152.217C51.2056 152.999 51.3434 153.792 51.4291 154.591C51.5225 155.369 51.5926 156.183 51.6237 156.976C51.6548 157.77 51.6704 158.572 51.6471 159.374C51.6356 160.177 51.5719 160.979 51.4564 161.775ZM41.6225 158.693C41.8143 159.368 41.9574 160.056 42.0506 160.751C42.1479 161.44 42.2179 162.133 42.2607 162.821C42.3036 163.51 42.3152 164.211 42.2997 164.907C42.2919 165.609 42.2321 166.308 42.1206 167.001C41.9251 166.327 41.782 165.639 41.6926 164.942C41.5953 164.254 41.5214 163.561 41.4824 162.868C41.4435 162.175 41.428 161.483 41.4435 160.786C41.4513 160.085 41.5111 159.385 41.6225 158.693Z" fill="#F46534"/>
<path id="Vector_8" d="M46.0081 162.6C45.3334 162.792 44.6453 162.934 43.9495 163.024C43.2607 163.121 42.5719 163.195 41.8792 163.234C41.1866 163.273 40.4939 163.288 39.7973 163.273C39.0947 163.265 38.3936 163.205 37.6998 163.094C38.3749 162.903 39.0629 162.759 39.7584 162.666C40.4511 162.569 41.1399 162.498 41.8325 162.46C42.5252 162.421 43.2179 162.405 43.9145 162.421C44.6159 162.428 45.3157 162.488 46.0081 162.6Z" fill="#F46534"/>
<path id="Vector_9" d="M57.5933 110.446C57.5933 112.275 55.7215 113.761 53.8886 113.761C53.0092 113.761 52.1659 113.412 51.5441 112.79C50.9223 112.168 50.573 111.325 50.573 110.446C50.573 108.613 52.4448 107.13 54.2777 107.13C54.7133 107.13 55.1447 107.215 55.5472 107.382C55.9496 107.548 56.3153 107.792 56.6233 108.1C56.9313 108.408 57.1755 108.774 57.342 109.176C57.5084 109.579 57.5938 110.01 57.5933 110.446ZM66.5126 98.5611C66.5126 99.8608 67.0146 101.698 65.711 101.698C64.4073 101.698 61.7961 99.8608 61.7961 98.5611C61.7961 97.9356 62.0446 97.3358 62.4868 96.8935C62.9291 96.4513 63.5289 96.2028 64.1544 96.2028C64.7798 96.2028 65.3797 96.4513 65.8219 96.8935C66.2642 97.3358 66.5126 97.9356 66.5126 98.5611ZM78.047 100.452C78.047 101.974 76.0351 102.429 74.5136 102.429C72.992 102.429 72.5367 101.974 72.5367 100.452C72.5367 99.7216 72.827 99.0208 73.3436 98.5041C73.8603 97.9874 74.5611 97.6972 75.2919 97.6972C76.0226 97.6972 76.7234 97.9874 77.2401 98.5041C77.7568 99.0208 78.047 99.7216 78.047 100.452ZM73.4356 115.084C73.4356 117.649 70.1901 119.727 67.6295 119.727C67.0198 119.727 66.4161 119.607 65.8529 119.374C65.2896 119.14 64.7778 118.798 64.3467 118.367C63.9156 117.936 63.5736 117.424 63.3403 116.861C63.107 116.298 62.9869 115.694 62.9869 115.084C62.9869 112.524 67.3999 111.224 69.9644 111.224C72.5289 111.224 73.4356 112.543 73.4356 115.084ZM55.056 98.0707C57.2236 98.0707 58.2004 95.1443 58.2004 92.9807C58.2017 92.2124 57.9756 91.4609 57.5505 90.8209C55.189 91.9755 53.0267 93.4994 51.1451 95.335C51.8455 96.2845 53.7913 98.0707 55.056 98.0707ZM68.9876 126.743C68.9876 128.495 69.1238 129.53 67.3688 129.53C66.9517 129.53 66.5388 129.448 66.1536 129.288C65.7683 129.128 65.4182 128.894 65.1234 128.6C64.8285 128.305 64.5946 127.955 64.435 127.569C64.2754 127.184 64.1933 126.771 64.1933 126.354C64.1933 124.599 64.0571 123.568 65.8122 123.568C66.2292 123.568 66.6421 123.65 67.0274 123.81C67.4126 123.969 67.7627 124.203 68.0575 124.498C68.3524 124.793 68.5863 125.143 68.7459 125.528C68.9055 125.913 68.9876 126.326 68.9876 126.743ZM88.6008 122.214C88.6008 124.716 85.0167 128.689 82.5145 128.689C81.3131 128.689 80.161 128.212 79.3115 127.362C78.462 126.513 77.9848 125.361 77.9848 124.159C77.9848 121.657 81.5689 117.684 84.0711 117.684C85.2724 117.684 86.4246 118.161 87.2741 119.011C88.1236 119.86 88.6008 121.012 88.6008 122.214ZM82.9036 110.773C82.9036 111.699 80.9851 112.454 80.0551 112.454C79.125 112.454 79.5414 111.699 79.5414 110.773C79.5414 110.327 79.7185 109.899 80.0338 109.584C80.349 109.269 80.7767 109.091 81.2225 109.091C81.6684 109.091 82.096 109.269 82.4113 109.584C82.7265 109.899 82.9036 110.327 82.9036 110.773ZM89.0561 99.6312C87.1581 96.6897 84.6563 94.1852 81.7167 92.2841C81.4015 92.9807 82.39 95.6969 82.39 96.5141C82.39 99.5806 83.7092 100.125 86.7796 100.125C87.5651 100.126 88.3414 99.9571 89.0561 99.6312ZM50.3395 126.899C49.534 126.899 48.0046 125.498 47.2769 125.778C49.2911 129.095 52.0555 131.893 55.3479 133.947C55.6493 133.205 55.8039 132.412 55.8032 131.612C55.8188 128.144 53.7913 126.899 50.3395 126.899ZM79.8216 134.791C79.2845 134.316 77.5567 133.931 76.7862 133.931C75.2101 133.931 74.9416 135.231 74.7937 136.768C76.5375 136.296 78.2237 135.633 79.8216 134.791Z" fill="#D86C1D"/>
<path id="Vector_10" d="M181.822 35.7755C174.887 43.8621 167.879 51.8786 160.893 59.9029C153.908 67.9271 146.884 75.9397 139.86 83.9485L118.729 107.908L97.5201 131.802L97.022 129.724C97.1811 129.784 97.3268 129.875 97.4506 129.992C97.5744 130.108 97.6739 130.248 97.7434 130.403C97.8128 130.559 97.8509 130.726 97.8553 130.896C97.8597 131.066 97.8305 131.235 97.7692 131.394C97.7296 131.502 97.6746 131.604 97.6058 131.697C92.3354 138.977 84.4903 143.977 75.6654 145.679C73.4822 146.077 71.2689 146.285 69.0499 146.302C61.205 146.281 53.592 143.64 47.4185 138.8C41.2449 133.959 36.8645 127.196 34.972 119.583C34.4418 117.427 34.1212 115.224 34.0147 113.006C33.9874 112.454 33.9874 111.897 33.9719 111.345C33.9623 110.769 33.9857 110.194 34.0419 109.621C34.1487 108.509 34.3281 107.405 34.5789 106.317C35.6161 102.041 37.2497 97.9332 39.4316 94.1131C41.5972 90.3038 44.2662 86.8037 47.3664 83.7072L56.5153 74.6945C62.5965 68.6912 68.6932 62.7034 74.8054 56.7313C80.9034 50.7384 87.052 44.796 93.185 38.8304L102.385 29.8994L111.627 21.0073L102.731 30.2418L93.7804 39.4452C87.8186 45.5743 81.8763 51.719 75.8795 57.817C69.8827 63.915 63.917 70.0363 57.9124 76.1071L48.923 85.2404C46.0158 88.2421 43.5096 91.6078 41.4669 95.2533C39.4457 98.8951 37.9458 102.803 37.0111 106.862C36.7844 107.85 36.6245 108.852 36.5325 109.862C36.4889 110.354 36.4746 110.847 36.4897 111.341C36.4897 111.854 36.513 112.368 36.5403 112.897C36.8619 118.569 38.66 124.058 41.7565 128.821C44.8529 133.583 49.1401 137.454 54.1932 140.049C59.2464 142.645 64.89 143.875 70.5649 143.617C76.2397 143.36 81.7488 141.624 86.5461 138.581C90.0267 136.374 93.0626 133.533 95.4966 130.207L96.0803 132.184C95.7605 132.059 95.5034 131.812 95.3655 131.497C95.2276 131.183 95.2201 130.826 95.3448 130.506C95.4048 130.364 95.4876 130.233 95.59 130.117L117.017 106.422L138.521 82.7927C145.713 74.9396 152.885 67.071 160.123 59.2569C167.361 51.4427 174.533 43.5507 181.822 35.7755Z" fill="#FDA01F"/>
<path id="Vector_11" d="M71.9451 78.0295L105.194 45.6988L73.8987 79.9441C73.7778 80.0762 73.6321 80.1832 73.4699 80.259C73.3077 80.3348 73.1321 80.3779 72.9532 80.3858C72.7744 80.3938 72.5957 80.3664 72.4274 80.3053C72.2591 80.2442 72.1045 80.1506 71.9724 80.0297C71.8403 79.9088 71.7333 79.7631 71.6575 79.6009C71.5817 79.4387 71.5386 79.2632 71.5306 79.0843C71.5227 78.9054 71.55 78.7267 71.6111 78.5584C71.6722 78.3901 71.7659 78.2355 71.8868 78.1034L71.9451 78.0295ZM93.722 83.8006L130.15 45.5198L95.7417 85.6257C95.6261 85.7643 95.484 85.8786 95.3239 85.9619C95.1637 86.0451 94.9886 86.0957 94.8087 86.1107C94.6288 86.1257 94.4477 86.1048 94.2759 86.0491C94.1042 85.9935 93.9452 85.9043 93.8083 85.7867C93.6713 85.6691 93.5591 85.5254 93.4782 85.3641C93.3972 85.2027 93.3492 85.0268 93.3368 84.8467C93.3244 84.6666 93.348 84.4859 93.4061 84.315C93.4642 84.1441 93.5557 83.9864 93.6753 83.8512L93.722 83.8006ZM0.477645 104.834L36.906 66.5534L2.48566 106.659C2.25034 106.934 1.91561 107.104 1.55509 107.131C1.19457 107.159 0.837795 107.042 0.563258 106.807C0.288722 106.572 0.118909 106.237 0.0911771 105.877C0.0634448 105.516 0.180064 105.159 0.415381 104.885L0.477645 104.834ZM120.173 38.6046L138.599 20.2484L122.196 40.4297C122.083 40.5687 121.944 40.6841 121.786 40.7693C121.629 40.8545 121.456 40.9079 121.278 40.9263C121.1 40.9447 120.92 40.9279 120.748 40.8768C120.577 40.8256 120.417 40.7411 120.278 40.6282C120.139 40.5153 120.023 40.3761 119.938 40.2185C119.853 40.061 119.799 39.8882 119.781 39.7101C119.763 39.5319 119.779 39.3519 119.831 39.1802C119.882 39.0086 119.966 38.8487 120.079 38.7097C120.107 38.6721 120.138 38.6369 120.173 38.6046ZM100.443 101.737L118.869 83.3803L102.466 103.566C102.238 103.846 101.908 104.025 101.548 104.062C101.188 104.099 100.828 103.992 100.548 103.764C100.267 103.536 100.088 103.206 100.051 102.846C100.014 102.486 100.121 102.126 100.349 101.845C100.378 101.807 100.409 101.771 100.443 101.737ZM83.2733 27.471L101.696 9.11481L85.3124 29.2962C85.1995 29.4352 85.0603 29.5505 84.9028 29.6357C84.7452 29.721 84.5724 29.7743 84.3943 29.7927C84.2161 29.8111 84.0361 29.7943 83.8645 29.7432C83.6928 29.692 83.5329 29.6076 83.3939 29.4946C83.2549 29.3817 83.1395 29.2425 83.0543 29.0849C82.9691 28.9274 82.9158 28.7546 82.8974 28.5765C82.8789 28.3983 82.8958 28.2183 82.9469 28.0466C82.9981 27.875 83.0825 27.7151 83.1955 27.5761C83.2196 27.5397 83.2455 27.5047 83.2733 27.471ZM107.471 154.961L139.105 122.922L109.467 156.817C109.349 156.952 109.206 157.062 109.046 157.141C108.885 157.22 108.711 157.267 108.532 157.279C108.354 157.291 108.175 157.268 108.005 157.21C107.836 157.153 107.679 157.063 107.545 156.945C107.41 156.827 107.3 156.684 107.22 156.524C107.141 156.364 107.094 156.189 107.082 156.011C107.07 155.832 107.094 155.653 107.151 155.484C107.208 155.314 107.298 155.158 107.416 155.023L107.471 154.961ZM122.772 72.7643L176.339 14.9093L124.803 74.5777C124.688 74.7178 124.546 74.8334 124.385 74.9177C124.225 75.0021 124.049 75.0535 123.868 75.0689C123.687 75.0844 123.505 75.0635 123.332 75.0076C123.16 74.9517 123 74.8618 122.863 74.7433C122.725 74.6248 122.613 74.4801 122.532 74.3176C122.451 74.155 122.404 73.978 122.393 73.7969C122.381 73.6158 122.406 73.4343 122.466 73.263C122.526 73.0916 122.619 72.934 122.741 72.7993C122.749 72.7858 122.76 72.774 122.772 72.7643Z" fill="#FDA01F"/>
<path id="Vector_12" d="M107.467 32.6934C108.086 32.6934 108.587 32.1917 108.587 31.5727C108.587 30.9537 108.086 30.4519 107.467 30.4519C106.848 30.4519 106.346 30.9537 106.346 31.5727C106.346 32.1917 106.848 32.6934 107.467 32.6934Z" stroke="#D86C1D" stroke-width="0.389151" stroke-linecap="round" stroke-linejoin="round"/>
<path id="Vector_13" d="M33.0222 59.8328C33.6412 59.8328 34.1429 59.331 34.1429 58.712C34.1429 58.0931 33.6412 57.5913 33.0222 57.5913C32.4032 57.5913 31.9014 58.0931 31.9014 58.712C31.9014 59.331 32.4032 59.8328 33.0222 59.8328Z" stroke="#D86C1D" stroke-width="0.389151" stroke-linecap="round" stroke-linejoin="round"/>
<path id="Vector_14" d="M88.0364 77.1227C88.6017 77.1227 89.0599 76.6645 89.0599 76.0993C89.0599 75.534 88.6017 75.0758 88.0364 75.0758C87.4712 75.0758 87.0129 75.534 87.0129 76.0993C87.0129 76.6645 87.4712 77.1227 88.0364 77.1227Z" fill="#D86C1D"/>
<path id="Vector_15" d="M68.3455 30.9306C68.9107 30.9306 69.369 30.4724 69.369 29.9071C69.369 29.3419 68.9107 28.8837 68.3455 28.8837C67.7802 28.8837 67.322 29.3419 67.322 29.9071C67.322 30.4724 67.7802 30.9306 68.3455 30.9306Z" fill="#D86C1D"/>
<path id="Vector_16" d="M184.791 16.7383C185.41 16.7383 185.912 16.2365 185.912 15.6175C185.912 14.9985 185.41 14.4968 184.791 14.4968C184.172 14.4968 183.67 14.9985 183.67 15.6175C183.67 16.2365 184.172 16.7383 184.791 16.7383Z" fill="#D86C1D"/>
<path id="Vector_17" d="M147.417 109.535C148.036 109.535 148.538 109.033 148.538 108.414C148.538 107.795 148.036 107.294 147.417 107.294C146.798 107.294 146.296 107.795 146.296 108.414C146.296 109.033 146.798 109.535 147.417 109.535Z" fill="#D86C1D"/>
<path id="Vector_18" d="M141.918 67.7287C142.537 67.7287 143.039 67.2269 143.039 66.6079C143.039 65.989 142.537 65.4872 141.918 65.4872C141.299 65.4872 140.797 65.989 140.797 66.6079C140.797 67.2269 141.299 67.7287 141.918 67.7287Z" stroke="#D86C1D" stroke-width="0.389151" stroke-linecap="round" stroke-linejoin="round"/>
<path id="Vector_19" d="M92.2354 147.174C92.8544 147.174 93.3562 146.672 93.3562 146.053C93.3562 145.434 92.8544 144.932 92.2354 144.932C91.6165 144.932 91.1147 145.434 91.1147 146.053C91.1147 146.672 91.6165 147.174 92.2354 147.174Z" stroke="#D86C1D" stroke-width="0.389151" stroke-linecap="round" stroke-linejoin="round"/>
<path id="Vector_20" d="M155.472 77.22C156.091 77.22 156.593 76.7182 156.593 76.0993C156.593 75.4803 156.091 74.9785 155.472 74.9785C154.853 74.9785 154.352 75.4803 154.352 76.0993C154.352 76.7182 154.853 77.22 155.472 77.22Z" stroke="#D86C1D" stroke-width="0.389151" stroke-linecap="round" stroke-linejoin="round"/>
<path id="Vector_21" d="M18.7443 131.946C19.3633 131.946 19.8651 131.444 19.8651 130.825C19.8651 130.207 19.3633 129.705 18.7443 129.705C18.1254 129.705 17.6236 130.207 17.6236 130.825C17.6236 131.444 18.1254 131.946 18.7443 131.946Z" stroke="#D86C1D" stroke-width="0.389151" stroke-linecap="round" stroke-linejoin="round"/>
<path id="Vector_22" d="M105.194 112.345C105.813 112.345 106.315 111.843 106.315 111.224C106.315 110.605 105.813 110.103 105.194 110.103C104.575 110.103 104.073 110.605 104.073 111.224C104.073 111.843 104.575 112.345 105.194 112.345Z" stroke="#D86C1D" stroke-width="0.389151" stroke-linecap="round" stroke-linejoin="round"/>
<path id="Vector_23" d="M153.137 11.835C153.756 11.835 154.258 11.3332 154.258 10.7142C154.258 10.0953 153.756 9.59348 153.137 9.59348C152.518 9.59348 152.017 10.0953 152.017 10.7142C152.017 11.3332 152.518 11.835 153.137 11.835Z" fill="#D86C1D"/>
<path id="Vector_24" d="M116.853 2.8456C117.472 2.8456 117.974 2.34383 117.974 1.72485C117.974 1.10588 117.472 0.604095 116.853 0.604095C116.234 0.604095 115.732 1.10588 115.732 1.72485C115.732 2.34383 116.234 2.8456 116.853 2.8456Z" stroke="#D86C1D" stroke-width="0.389151" stroke-linecap="round" stroke-linejoin="round"/>
</g>
</g>
</g>
<defs>
<clipPath id="clip0_6781_2133">
<rect width="186" height="167" fill="white" transform="translate(0 0.000488281)"/>
</clipPath>
</defs>
</svg>
