<svg width="20" height="20" viewBox="0 0 20 20" fill="none" xmlns="http://www.w3.org/2000/svg">
<g id="copy-01">
<path id="Vector" d="M7.5 12.5001C7.5 10.1431 7.5 8.96459 8.23223 8.23233C8.9645 7.50009 10.143 7.50009 12.5 7.50009H13.3333C15.6903 7.50009 16.8688 7.50009 17.6011 8.23233C18.3333 8.96459 18.3333 10.1431 18.3333 12.5001V13.3334C18.3333 15.6904 18.3333 16.8689 17.6011 17.6012C16.8688 18.3334 15.6903 18.3334 13.3333 18.3334H12.5C10.143 18.3334 8.9645 18.3334 8.23223 17.6012C7.5 16.8689 7.5 15.6904 7.5 13.3334V12.5001Z" stroke="white" stroke-width="1.25" stroke-linecap="round" stroke-linejoin="round"/>
<path id="Vector_2" d="M14.1663 7.49917C14.1643 5.03492 14.127 3.75851 13.4097 2.88452C13.2712 2.71574 13.1165 2.56098 12.9477 2.42247C12.0257 1.66583 10.656 1.66583 7.91638 1.66583C5.17681 1.66583 3.80703 1.66583 2.88507 2.42247C2.71629 2.56097 2.56153 2.71574 2.42302 2.88452C1.66638 3.80648 1.66638 5.17627 1.66638 7.91583C1.66638 10.6554 1.66638 12.0252 2.42302 12.9472C2.56152 13.1159 2.71629 13.2707 2.88507 13.4092C3.75906 14.1265 5.03547 14.1637 7.49971 14.1657" stroke="white" stroke-width="1.25" stroke-linecap="round" stroke-linejoin="round"/>
</g>
</svg>
