<svg width="20" height="20" viewBox="0 0 20 20" fill="none" xmlns="http://www.w3.org/2000/svg">
<g id="more-horizontal-circle-01">
<path id="Vector" d="M17.5 10C17.5 9.30967 16.9403 8.75 16.25 8.75C15.5597 8.75 15 9.30967 15 10C15 10.6903 15.5597 11.25 16.25 11.25C16.9403 11.25 17.5 10.6903 17.5 10Z" stroke="#F57C00" stroke-width="1.25"/>
<path id="Vector_2" d="M11.25 10C11.25 9.30967 10.6903 8.75 10 8.75C9.30967 8.75 8.75 9.30967 8.75 10C8.75 10.6903 9.30967 11.25 10 11.25C10.6903 11.25 11.25 10.6903 11.25 10Z" stroke="#F57C00" stroke-width="1.25"/>
<path id="Vector_3" d="M5 10C5 9.30967 4.44036 8.75 3.75 8.75C3.05964 8.75 2.5 9.30967 2.5 10C2.5 10.6903 3.05964 11.25 3.75 11.25C4.44036 11.25 5 10.6903 5 10Z" stroke="#F57C00" stroke-width="1.25"/>
</g>
</svg>
