<svg width="20" height="20" viewBox="0 0 20 20" fill="none" xmlns="http://www.w3.org/2000/svg">
<g id="edit-02">
<path id="Vector" d="M11.7282 3.23786C12.3492 2.56506 12.6597 2.22866 12.9896 2.03243C13.7857 1.55896 14.766 1.54423 15.5754 1.99359C15.9108 2.17982 16.2308 2.50676 16.8709 3.16062C17.511 3.81449 17.8311 4.14142 18.0133 4.4841C18.4532 5.31092 18.4388 6.31232 17.9753 7.12557C17.7832 7.46262 17.4539 7.77981 16.7953 8.41416L8.95892 15.9619C7.71082 17.1641 7.08675 17.7652 6.3068 18.0697C5.52685 18.3744 4.66942 18.352 2.95455 18.3072L2.72123 18.3011C2.19917 18.2874 1.93814 18.2806 1.78641 18.1083C1.63467 17.9362 1.65538 17.6702 1.69682 17.1385L1.71932 16.8497C1.83592 15.3529 1.89422 14.6046 2.18651 13.9318C2.47878 13.2591 2.98295 12.7129 3.99127 11.6204L11.7282 3.23786Z" stroke="#F57C00" stroke-width="1.25" stroke-linejoin="round"/>
<path id="Vector_2" d="M10.8333 3.33334L16.6666 9.16668" stroke="#F57C00" stroke-width="1.25" stroke-linejoin="round"/>
<path id="Vector_3" d="M11.6667 18.3333H18.3334" stroke="#F57C00" stroke-width="1.25" stroke-linecap="round" stroke-linejoin="round"/>
</g>
</svg>
