<svg width="20" height="20" viewBox="0 0 20 20" fill="none" xmlns="http://www.w3.org/2000/svg">
<g id="ethereum">
<path id="Vector" d="M15.8333 9.99984L11.0336 12.1486C10.524 12.3828 10.2693 12.4998 9.99996 12.4998C9.73063 12.4998 9.47588 12.3828 8.96629 12.1486L4.16663 9.99984M15.8333 9.99984C15.8333 9.55634 15.5787 9.16625 15.0695 8.38617L12.1497 3.91326C11.172 2.41542 10.683 1.6665 9.99996 1.6665C9.31688 1.6665 8.82796 2.41542 7.85023 3.91326L4.93048 8.38617C4.42124 9.16625 4.16663 9.55634 4.16663 9.99984M15.8333 9.99984C15.8333 10.4433 15.5787 10.8334 15.0695 11.6135L12.1497 16.0864C11.172 17.5843 10.683 18.3332 9.99996 18.3332C9.31688 18.3332 8.82796 17.5843 7.85023 16.0864L4.93048 11.6135C4.42124 10.8334 4.16663 10.4433 4.16663 9.99984" stroke="#F57C00" stroke-width="1.25" stroke-linecap="round" stroke-linejoin="round"/>
</g>
</svg>
