<svg width="19" height="18" viewBox="0 0 19 18" fill="none" xmlns="http://www.w3.org/2000/svg">
<g id="give-pill">
<path id="Vector" d="M8.75 5.25H13.25M8.75 3.75V6.75C8.75 7.99268 9.75732 9 11 9C12.2427 9 13.25 7.99268 13.25 6.75V3.75C13.25 2.50736 12.2427 1.5 11 1.5C9.75732 1.5 8.75 2.50736 8.75 3.75Z" stroke="#F57C00" stroke-width="1.125" stroke-linecap="round" stroke-linejoin="round"/>
<path id="Vector_2" d="M3.5 10.5H5.29612C5.51673 10.5 5.73431 10.5497 5.93163 10.6452L7.46311 11.3862C7.66043 11.4817 7.87801 11.5313 8.09863 11.5313H8.88057C9.63687 11.5313 10.25 12.1247 10.25 12.8565C10.25 12.8861 10.2297 12.9121 10.2003 12.9202L8.29468 13.4471C7.9528 13.5416 7.58675 13.5087 7.26875 13.3548L5.63158 12.5627" stroke="#F57C00" stroke-width="1.125" stroke-linecap="round" stroke-linejoin="round"/>
<path id="Vector_3" d="M10.25 12.375L13.6946 11.3167C14.3053 11.1264 14.9653 11.352 15.3478 11.8817C15.6244 12.2647 15.5118 12.8132 15.1089 13.0457L9.47218 16.2979C9.11368 16.5047 8.69067 16.5552 8.2964 16.4382L3.5 15.0149" stroke="#F57C00" stroke-width="1.125" stroke-linecap="round" stroke-linejoin="round"/>
</g>
</svg>
