<svg width="185" height="207" viewBox="0 0 185 207" fill="none" xmlns="http://www.w3.org/2000/svg">
<g id="Group">
<g id="Group_2">
<g id="Group_3">
<g id="Group_4">
<g id="Group_5">
<path id="Vector" d="M113.906 4.765C113.059 4.26759 111.89 4.32953 110.583 5.0884L13.0494 61.3845C13.0369 61.3969 13.0245 61.3969 13.0121 61.4094C11.6682 62.1929 10.4735 63.5364 9.63984 65.0787C8.88084 66.472 8.39539 68.0144 8.40792 69.4198V70.1288L8.60687 151.707C8.60687 153.162 9.12975 154.194 9.96338 154.68L2.73359 150.488C1.9125 150.003 1.38974 148.97 1.38974 147.503L1.17813 66.1361V65.2157C1.17813 63.8101 1.65119 62.2801 2.41006 60.8872C3.25622 59.3574 4.43858 58.0014 5.75752 57.2176C5.78244 57.2055 5.79498 57.1927 5.81962 57.1806L103.366 0.884217C104.66 0.138163 105.83 0.0757942 106.676 0.561103L113.906 4.765Z" fill="#52525B"/>
<path id="Vector_2" d="M9.96312 154.926C9.92074 154.926 9.87837 154.916 9.83993 154.893L2.61056 150.701C1.66332 150.142 1.14351 149.007 1.14351 147.503L0.931763 65.2155C0.931763 63.8408 1.38032 62.2616 2.19382 60.769C3.10826 59.1161 4.32893 57.78 5.63139 57.0055C5.66983 56.9814 5.6891 56.9698 5.71318 56.9583L103.243 0.670785C104.569 -0.0939948 105.832 -0.207609 106.798 0.346829L114.009 4.54059C114.016 4.54439 114.024 4.54833 114.03 4.55255C114.147 4.6214 114.186 4.77205 114.118 4.88904C114.049 5.00646 113.898 5.04603 113.781 4.97803L113.763 4.96691C112.958 4.50441 111.873 4.62365 110.707 5.30142L13.1725 61.5975C11.8662 62.3619 10.7014 63.6311 9.85612 65.1955C9.06966 66.6408 8.64221 68.1397 8.65375 69.4167V70.1285L8.85298 151.706C8.85298 153.021 9.29 154 10.0832 154.464L10.0862 154.466C10.0872 154.466 10.0872 154.466 10.0872 154.467C10.2046 154.535 10.244 154.686 10.1757 154.803C10.1307 154.883 10.0479 154.926 9.96312 154.926ZM105.449 0.493954C104.852 0.493954 104.184 0.69655 103.489 1.09795L5.9431 57.3936C5.90748 57.4163 5.88819 57.4278 5.86411 57.4394C4.65499 58.16 3.49797 59.4302 2.62577 61.0065C1.85085 62.4269 1.42439 63.9223 1.42439 65.2156V66.1359L1.63614 147.503C1.63614 148.825 2.07034 149.81 2.85863 150.275L8.76344 153.699C8.49875 153.151 8.36007 152.478 8.36007 151.707L8.16084 69.4195C8.14831 68.0621 8.59687 66.4782 9.4229 64.961C10.3095 63.3207 11.5379 61.985 12.8826 61.1995C12.8971 61.1899 12.9114 61.1808 12.922 61.1754L110.46 4.87539C111.152 4.47258 111.826 4.2483 112.45 4.20438L106.551 0.77399C106.225 0.586878 105.854 0.493954 105.449 0.493954Z" fill="#373B42"/>
</g>
</g>
<g id="Group_6">
<g id="Group_7">
<path id="Vector_3" d="M13.0119 61.4094C11.6681 62.1929 10.4733 63.5364 9.6397 65.0787C8.88069 66.472 8.39524 68.0144 8.40777 69.4198V70.1288C8.39524 70.1786 8.38285 70.2409 8.37046 70.2907L1.17798 66.1362V65.2159C1.17798 63.8102 1.65104 62.2802 2.40991 60.8874C3.25606 59.3575 4.43844 58.0015 5.75738 57.2178L13.0119 61.4094Z" fill="#52525B"/>
</g>
</g>
<g id="Group_8">
<g id="Group_9">
<path id="Vector_4" d="M13.2776 154.363C10.7086 155.845 10.6949 158.254 13.2472 159.737L75.0236 195.622C77.576 197.105 81.737 197.105 84.3061 195.622L181.853 139.328C184.429 137.841 184.435 135.436 181.883 133.953L120.107 98.0682C117.554 96.5855 113.4 96.5816 110.824 98.0682L13.2776 154.363Z" fill="#27272A"/>
<path id="Vector_5" d="M79.6592 196.976C77.9333 196.977 76.2101 196.596 74.8999 195.836L13.1235 159.95C11.8143 159.19 11.0943 158.163 11.0952 157.059C11.0972 155.948 11.8278 154.914 13.1543 154.149L110.702 97.8548C113.337 96.3338 117.61 96.3338 120.231 97.8548L182.007 133.74C183.318 134.501 184.039 135.529 184.038 136.632C184.036 137.741 183.304 138.775 181.976 139.541L84.4292 195.835C83.1112 196.596 81.3842 196.976 79.6592 196.976ZM115.472 97.1996C113.836 97.1996 112.197 97.5602 110.948 98.2812L13.4008 154.576C12.2331 155.25 11.5891 156.132 11.5882 157.059C11.5872 157.98 12.2206 158.855 13.372 159.524L75.1484 195.409C77.6291 196.851 81.6828 196.852 84.1827 195.409L181.73 139.114C182.899 138.439 183.543 137.557 183.545 136.631C183.546 135.711 182.912 134.836 181.759 134.166L119.982 98.2812C118.741 97.5602 117.108 97.1996 115.472 97.1996Z" fill="#373B42"/>
</g>
</g>
<g id="Group_10">
<g id="Group_11">
<g id="Group_12">
<path id="Vector_6" d="M85.3418 122.5C84.7494 122.842 84.7515 123.395 85.3348 123.734L91.0325 127.043C91.6211 127.385 92.5701 127.385 93.1625 127.043L99.8482 123.185C100.441 122.843 100.444 122.294 99.8551 121.952L94.1574 118.642C93.5741 118.303 92.6199 118.3 92.0275 118.642L85.3418 122.5Z" fill="#3F3F46"/>
</g>
</g>
<g id="Group_13">
<g id="Group_14">
<path id="Vector_7" d="M97.4912 115.489C96.8989 115.831 96.9008 116.383 97.4841 116.722L103.182 120.032C103.77 120.374 104.719 120.374 105.312 120.032L111.998 116.174C112.59 115.832 112.593 115.282 112.004 114.94L106.307 111.631C105.723 111.292 104.769 111.289 104.177 111.631L97.4912 115.489Z" fill="#3F3F46"/>
</g>
</g>
<g id="Group_15">
<g id="Group_16">
<path id="Vector_8" d="M120.719 114.913C120.127 115.255 120.129 115.807 120.712 116.146L126.41 119.456C126.999 119.798 127.948 119.798 128.54 119.456L135.226 115.598C135.818 115.256 135.821 114.706 135.233 114.365L129.535 111.055C128.952 110.716 127.997 110.713 127.405 111.055L120.719 114.913Z" fill="#3F3F46"/>
</g>
</g>
<g id="Group_17">
<g id="Group_18">
<path id="Vector_9" d="M109.641 108.477C109.048 108.819 109.05 109.372 109.634 109.711L115.331 113.02C115.92 113.362 116.869 113.362 117.461 113.02L124.147 109.162C124.739 108.82 124.742 108.271 124.154 107.929L118.456 104.619C117.873 104.28 116.919 104.277 116.326 104.619L109.641 108.477Z" fill="#3F3F46"/>
</g>
</g>
<g id="Group_19">
<g id="Group_20">
<path id="Vector_10" d="M108.57 121.924C107.978 122.266 107.98 122.819 108.563 123.158L114.261 126.467C114.849 126.809 115.798 126.809 116.391 126.467L123.076 122.609C123.669 122.267 123.672 121.718 123.083 121.376L117.385 118.066C116.802 117.727 115.848 117.724 115.256 118.066L108.57 121.924Z" fill="#3F3F46"/>
</g>
</g>
<g id="Group_21">
<g id="Group_22">
<path id="Vector_11" d="M107.499 135.371C106.907 135.713 106.909 136.266 107.492 136.605L113.19 139.914C113.773 140.253 114.727 140.256 115.32 139.914L122.006 136.056C122.598 135.714 122.596 135.162 122.013 134.823L116.315 131.513C115.732 131.174 114.777 131.171 114.185 131.513L107.499 135.371Z" fill="#3F3F46"/>
</g>
</g>
<g id="Group_23">
<g id="Group_24">
<path id="Vector_12" d="M96.4206 128.936C95.8281 129.278 95.8303 129.83 96.4136 130.169L102.111 133.479C102.7 133.821 103.649 133.821 104.241 133.479L110.927 129.621C111.519 129.279 111.522 128.729 110.934 128.387L105.236 125.078C104.653 124.739 103.699 124.736 103.106 125.078L96.4206 128.936Z" fill="#3F3F46"/>
</g>
</g>
<g id="Group_25">
<g id="Group_26">
<g id="Group_27">
<path id="Vector_13" d="M36.7388 150.549C36.1517 150.888 36.1485 151.444 36.7318 151.782L42.4295 155.092C43.0181 155.434 43.9724 155.431 44.5595 155.092L51.2504 151.231C51.8428 150.889 51.8458 150.339 51.2573 149.998L45.5596 146.688C44.9763 146.349 44.0221 146.346 43.4297 146.688L36.7388 150.549Z" fill="#3F3F46"/>
</g>
</g>
<g id="Group_28">
<g id="Group_29">
<path id="Vector_14" d="M24.5895 157.561C24.0024 157.9 23.9992 158.455 24.5825 158.794L30.2802 162.104C30.8687 162.446 31.823 162.443 32.4102 162.104L39.1012 158.242C39.6936 157.901 39.6966 157.351 39.1081 157.009L33.4104 153.699C32.8271 153.361 31.873 153.358 31.2806 153.699L24.5895 157.561Z" fill="#3F3F46"/>
</g>
</g>
<g id="Group_30">
<g id="Group_31">
<path id="Vector_15" d="M47.8176 156.985C47.2305 157.324 47.2273 157.879 47.8106 158.218L53.5083 161.528C54.0968 161.87 55.0512 161.867 55.6383 161.528L62.3293 157.666C62.9217 157.325 62.9247 156.775 62.3362 156.433L56.6385 153.123C56.0552 152.785 55.1011 152.782 54.5086 153.123L47.8176 156.985Z" fill="#3F3F46"/>
</g>
</g>
<g id="Group_32">
<g id="Group_33">
<path id="Vector_16" d="M35.6683 163.996C35.0812 164.335 35.078 164.891 35.6613 165.229L41.359 168.539C41.9476 168.881 42.9018 168.878 43.489 168.539L50.1798 164.678C50.7723 164.336 50.7753 163.786 50.1868 163.445L44.4891 160.135C43.9058 159.796 42.9516 159.793 42.3592 160.135L35.6683 163.996Z" fill="#3F3F46"/>
</g>
</g>
</g>
<g id="Group_34">
<g id="Group_35">
<path id="Vector_17" d="M48.8883 143.538C48.3012 143.877 48.298 144.432 48.8813 144.771L54.579 148.081C55.1675 148.423 56.1218 148.42 56.7089 148.081L63.3999 144.219C63.9922 143.878 63.9953 143.328 63.4068 142.986L57.7091 139.676C57.1258 139.338 56.1716 139.335 55.5792 139.676L48.8883 143.538Z" fill="#3F3F46"/>
</g>
</g>
<g id="Group_36">
<g id="Group_37">
<path id="Vector_18" d="M46.7469 170.432C46.1598 170.771 46.1567 171.326 46.74 171.665L52.4377 174.975C53.021 175.314 53.9803 175.313 54.5676 174.975L61.2584 171.113C61.8509 170.771 61.8488 170.219 61.2655 169.88L55.5678 166.57C54.9845 166.231 54.0302 166.228 53.4377 166.57L46.7469 170.432Z" fill="#3F3F46"/>
</g>
</g>
<g id="Group_38">
<g id="Group_39">
<path id="Vector_19" d="M58.8962 163.42C58.3091 163.759 58.3061 164.315 58.8894 164.653L64.587 167.963C65.1703 168.302 66.1298 168.302 66.7168 167.963L73.4078 164.102C74.0002 163.76 73.9981 163.208 73.4148 162.869L67.7171 159.559C67.1338 159.22 66.1795 159.217 65.5871 159.559L58.8962 163.42Z" fill="#3F3F46"/>
</g>
</g>
<g id="Group_40">
<g id="Group_41">
<path id="Vector_20" d="M71.0457 156.409C70.4586 156.748 70.4555 157.303 71.0388 157.642L76.7365 160.952C77.3198 161.291 78.2792 161.29 78.8664 160.952L109.856 143.067C110.448 142.726 110.446 142.173 109.863 141.834L104.165 138.525C103.582 138.186 102.628 138.183 102.035 138.525L71.0457 156.409Z" fill="#3F3F46"/>
</g>
</g>
<g id="Group_42">
<g id="Group_43">
<g id="Group_44">
<path id="Vector_21" d="M72.1164 142.962C71.5293 143.301 71.5261 143.856 72.1094 144.195L77.8071 147.505C78.3956 147.847 79.3499 147.844 79.9371 147.505L86.628 143.643C87.2203 143.302 87.2234 142.752 86.6349 142.41L80.9372 139.101C80.3539 138.762 79.3997 138.759 78.8073 139.101L72.1164 142.962Z" fill="#3F3F46"/>
</g>
</g>
<g id="Group_45">
<g id="Group_46">
<path id="Vector_22" d="M59.9671 149.973C59.3799 150.312 59.3767 150.868 59.96 151.207L65.6577 154.516C66.2464 154.858 67.2005 154.855 67.7878 154.516L74.4786 150.655C75.0709 150.313 75.074 149.764 74.4855 149.422L68.7878 146.112C68.2045 145.773 67.2504 145.77 66.6579 146.112L59.9671 149.973Z" fill="#3F3F46"/>
</g>
</g>
</g>
<g id="Group_47">
<g id="Group_48">
<path id="Vector_23" d="M84.2711 135.947C83.6787 136.289 83.6808 136.842 84.2641 137.181L89.9618 140.49C90.5504 140.832 91.4994 140.832 92.0918 140.49L98.7774 136.632C99.3698 136.29 99.3729 135.741 98.7843 135.399L93.0866 132.089C92.5033 131.75 91.5492 131.747 90.9569 132.089L84.2711 135.947Z" fill="#3F3F46"/>
</g>
</g>
<g id="Group_49">
<g id="Group_50">
<path id="Vector_24" d="M73.1925 129.512C72.6 129.854 72.6021 130.406 73.1854 130.745L78.8831 134.055C79.4717 134.397 80.4207 134.397 81.0132 134.055L87.6988 130.197C88.2911 129.855 88.2942 129.305 87.7057 128.963L82.008 125.654C81.4247 125.315 80.4706 125.312 79.8781 125.654L73.1925 129.512Z" fill="#3F3F46"/>
</g>
</g>
<g id="Group_51">
<g id="Group_52">
<path id="Vector_25" d="M61.0377 136.526C60.4506 136.865 60.4473 137.421 61.0306 137.76L66.7283 141.069C67.317 141.411 68.2711 141.408 68.8584 141.069L75.5493 137.208C76.1417 136.866 76.1448 136.317 75.5563 135.975L69.8586 132.665C69.2753 132.326 68.3211 132.323 67.7287 132.665L61.0377 136.526Z" fill="#3F3F46"/>
</g>
</g>
<g id="Group_53">
<g id="Group_54">
<path id="Vector_26" d="M131.798 121.348C131.206 121.69 131.208 122.243 131.791 122.582L137.489 125.891C138.072 126.23 139.026 126.233 139.619 125.891L146.304 122.033C146.897 121.691 146.895 121.139 146.311 120.8L140.614 117.49C140.03 117.151 139.076 117.148 138.484 117.49L131.798 121.348Z" fill="#3F3F46"/>
</g>
</g>
<g id="Group_55">
<g id="Group_56">
<path id="Vector_27" d="M119.649 128.36C119.056 128.702 119.058 129.254 119.642 129.593L125.339 132.903C125.923 133.242 126.877 133.245 127.469 132.903L134.155 129.045C134.747 128.703 134.745 128.15 134.162 127.811L128.464 124.502C127.881 124.163 126.927 124.16 126.334 124.502L119.649 128.36Z" fill="#3F3F46"/>
</g>
</g>
</g>
<g id="Group_57">
<g id="Group_58">
<path id="Vector_28" d="M13.0448 61.3804C10.4757 62.8629 8.39511 66.4651 8.40356 69.4158L8.60617 151.702C8.61448 154.652 10.7087 155.845 13.2778 154.363L110.824 98.0682C113.4 96.5816 115.474 92.9835 115.465 90.0328L115.263 7.74695C115.255 4.79624 113.167 3.59937 110.591 5.08598L13.0448 61.3804Z" fill="#373B42"/>
<path id="Vector_29" d="M11.1905 155.249C10.7034 155.249 10.251 155.134 9.8496 154.903C8.89377 154.352 8.36425 153.216 8.35947 151.702L8.15728 69.4164C8.14855 66.389 10.2856 62.6885 12.9214 61.167L110.468 4.87285C111.795 4.10609 113.057 3.98811 114.02 4.54269C114.976 5.09333 115.505 6.2312 115.509 7.7464L115.712 90.0324C115.721 93.0598 113.584 96.7607 110.948 98.2812L13.4008 154.576C12.6257 155.023 11.8739 155.249 11.1905 155.249ZM13.1676 61.5936C10.6686 63.0366 8.64133 66.5454 8.64992 69.415L8.8521 151.701C8.8559 153.031 9.29784 154.017 10.0958 154.476C10.9016 154.94 11.9874 154.823 13.1541 154.149L110.701 97.8548C113.201 96.4122 115.228 92.9038 115.219 90.0333L115.016 7.74739C115.012 6.41564 114.571 5.42939 113.774 4.97013C112.971 4.50763 111.884 4.62449 110.715 5.2993L13.1676 61.5936Z" fill="#373B42"/>
</g>
<g id="Group_59">
<g id="Group_60">
<g id="Group_61">
<g id="Group_62">
<path id="Vector_30" d="M27.3041 142.448L100.947 99.6702C102.806 100.743 104.308 103.346 104.302 105.483L30.6595 148.261C30.6655 146.124 29.1633 143.521 27.3041 142.448Z" fill="#27272A"/>
<path id="Vector_31" d="M30.6597 148.507C30.6173 148.507 30.5749 148.496 30.5365 148.474C30.4604 148.43 30.4133 148.349 30.4133 148.26C30.419 146.205 28.9683 143.694 27.1807 142.662C27.1047 142.618 27.0575 142.537 27.0575 142.449C27.0575 142.361 27.1037 142.28 27.1797 142.235L100.823 99.457C100.9 99.4126 100.993 99.4126 101.07 99.457C102.994 100.568 104.555 103.271 104.548 105.484C104.548 105.571 104.501 105.652 104.426 105.696L30.7838 148.474C30.7453 148.496 30.7019 148.507 30.6597 148.507ZM27.7785 142.458C29.4207 143.596 30.7271 145.858 30.8887 147.843L104.053 105.342C103.997 103.362 102.637 101.005 100.945 99.9564L27.7785 142.458Z" fill="#373B42"/>
</g>
</g>
<g id="Group_63">
<g id="Group_64">
<path id="Vector_32" d="M27.3041 142.448C29.1633 143.521 30.6655 146.124 30.6595 148.261L27.2932 146.318L27.3041 142.448Z" fill="#27272A"/>
<path id="Vector_33" d="M30.6599 148.507C30.6175 148.507 30.5751 148.496 30.5367 148.474L27.1704 146.531C27.0943 146.487 27.0472 146.405 27.0472 146.317L27.0577 142.448C27.0577 142.36 27.1049 142.279 27.1809 142.235C27.2579 142.191 27.3503 142.191 27.4273 142.235C29.3517 143.346 30.9121 146.049 30.9063 148.261C30.9063 148.35 30.8591 148.431 30.7831 148.475C30.7445 148.496 30.7021 148.507 30.6599 148.507ZM27.54 146.176L30.3932 147.822C30.2277 146.008 29.0426 143.955 27.5495 142.898L27.54 146.176Z" fill="#373B42"/>
</g>
</g>
</g>
</g>
<g id="Group_65">
<path id="Vector_34" d="M11.1911 148.704C10.7441 148.704 10.7072 147.781 10.7062 147.498L10.5032 69.4099C10.497 67.2086 12.1752 64.3055 14.0945 63.1977L111.641 6.90345C112.201 6.58062 112.556 6.54585 112.682 6.54585C113.137 6.54585 113.163 7.5511 113.164 7.75257L113.365 85.8417C113.372 88.0434 111.693 90.9461 109.774 92.0533L12.2276 148.348C11.6709 148.669 11.3171 148.704 11.1911 148.704Z" fill="#27272A"/>
<path id="Vector_35" d="M11.1914 148.95C10.7225 148.95 10.4626 148.435 10.4598 147.5L10.2566 69.4103C10.2509 67.1327 11.9865 64.1298 13.9714 62.9847L111.518 6.69059C112.108 6.3503 112.5 6.29975 112.681 6.29975C113.333 6.29975 113.408 7.31528 113.41 7.75187L113.611 85.8411C113.618 88.1177 111.882 91.1207 109.898 92.2667L12.3505 148.561C11.7633 148.9 11.3724 148.95 11.1914 148.95ZM112.682 6.79252C112.599 6.79252 112.287 6.81603 111.764 7.11747L14.218 63.4112C12.3649 64.4806 10.7438 67.2834 10.7496 69.4093L10.9527 147.498C10.9547 148.116 11.0952 148.457 11.1915 148.457C11.2743 148.457 11.5843 148.434 12.1041 148.134L109.651 91.8402C111.505 90.7698 113.125 87.9675 113.119 85.8425L112.917 7.75328C112.914 7.16688 112.776 6.79252 112.682 6.79252Z" fill="#373B42"/>
</g>
<g id="Group_66">
<g id="Group_67">
<path id="Vector_36" d="M113.369 85.8446C113.369 88.0432 111.694 90.9499 109.778 92.0492L12.2277 148.349C11.6696 148.665 11.3196 148.707 11.1943 148.707C10.7448 148.707 10.7028 147.783 10.7028 147.499L10.5278 77.252L10.503 69.4068C10.4944 67.2081 12.1776 64.3014 14.0941 63.1938L111.644 6.90249C112.203 6.57768 112.552 6.54431 112.677 6.54431C113.136 6.54431 113.161 7.5521 113.161 7.75202L113.194 18.0042L113.369 85.8446Z" fill="#27272A"/>
<path id="Vector_37" d="M11.1943 148.954C10.5291 148.954 10.457 147.937 10.457 147.5L10.2568 69.4079C10.2481 67.1327 11.9838 64.1292 13.9716 62.9809L111.522 6.68961C112.107 6.34889 112.498 6.29779 112.678 6.29779C113.336 6.29779 113.408 7.31486 113.408 7.75188L113.441 18.0035L113.615 85.8445V85.8449C113.615 88.1283 111.88 91.1274 109.901 92.2628L12.3516 148.562C11.7276 148.915 11.3348 148.954 11.1943 148.954ZM112.678 6.79056C112.596 6.79056 112.287 6.81421 111.769 7.11593L14.218 63.4072C12.3621 64.4801 10.741 67.2828 10.7496 69.4059L10.7746 77.251L10.9498 147.499C10.9498 148.095 11.0923 148.461 11.1943 148.461C11.2502 148.461 11.5591 148.445 12.1069 148.134L109.655 91.8359C111.502 90.7756 113.122 87.9767 113.122 85.8454L112.914 7.75273C112.914 7.17422 112.772 6.79056 112.678 6.79056Z" fill="#373B42"/>
</g>
</g>
</g>
<g id="Group_68">
<g id="Group_69">
<path id="Vector_38" d="M9.96312 154.926C9.92074 154.926 9.87837 154.916 9.83993 154.893L2.61056 150.701C1.66332 150.142 1.14351 149.007 1.14351 147.503L0.931763 65.2155C0.931763 63.8408 1.38032 62.2616 2.19382 60.769C3.10826 59.1161 4.32893 57.78 5.63139 57.0055C5.66983 56.9814 5.6891 56.9698 5.71318 56.9583L103.243 0.670785C104.569 -0.0939948 105.832 -0.207609 106.798 0.346829L114.009 4.54059C114.016 4.54439 114.024 4.54833 114.03 4.55255C114.147 4.6214 114.186 4.77205 114.118 4.88904C114.049 5.00646 113.898 5.04603 113.781 4.97803L113.763 4.96691C112.958 4.50441 111.873 4.62365 110.707 5.30142L13.1725 61.5975C11.8662 62.3619 10.7014 63.6311 9.85612 65.1955C9.06966 66.6408 8.64221 68.1397 8.65375 69.4167V70.1285L8.85298 151.706C8.85298 153.021 9.29 154 10.0832 154.464L10.0862 154.466C10.0872 154.466 10.0872 154.466 10.0872 154.467C10.2046 154.535 10.244 154.686 10.1757 154.803C10.1307 154.883 10.0479 154.926 9.96312 154.926ZM105.449 0.493954C104.852 0.493954 104.184 0.69655 103.489 1.09795L5.9431 57.3936C5.90748 57.4163 5.88819 57.4278 5.86411 57.4394C4.65499 58.16 3.49797 59.4302 2.62577 61.0065C1.85085 62.4269 1.42439 63.9223 1.42439 65.2156V66.1359L1.63614 147.503C1.63614 148.825 2.07034 149.81 2.85863 150.275L8.76344 153.699C8.49875 153.151 8.36007 152.478 8.36007 151.707L8.16084 69.4195C8.14831 68.0621 8.59687 66.4782 9.4229 64.961C10.3095 63.3207 11.5379 61.985 12.8826 61.1995C12.8971 61.1899 12.9114 61.1808 12.922 61.1754L110.46 4.87539C111.152 4.47258 111.826 4.2483 112.45 4.20438L106.551 0.77399C106.225 0.586878 105.854 0.493954 105.449 0.493954Z" fill="#373B42"/>
</g>
</g>
<g id="Group_70">
<path id="Vector_39" d="M8.41904 81.4032C8.37666 81.4032 8.33429 81.3927 8.29487 81.3696L1.06156 77.1508C0.944139 77.0825 0.904573 76.9313 0.972997 76.8139C1.04044 76.696 1.19151 76.6555 1.30991 76.7253L8.54323 80.9441C8.66065 81.0124 8.70022 81.1636 8.63179 81.281C8.5866 81.3594 8.5038 81.4032 8.41904 81.4032Z" fill="#373B42"/>
</g>
<g id="Group_71">
<path id="Vector_40" d="M8.58658 146.197C8.5442 146.197 8.50183 146.187 8.46339 146.164L1.24063 141.977C1.12223 141.908 1.08281 141.758 1.15109 141.64C1.21853 141.521 1.37058 141.482 1.48702 141.55L8.70964 145.737C8.82804 145.806 8.86746 145.956 8.79918 146.074C8.75399 146.153 8.6712 146.197 8.58658 146.197Z" fill="#373B42"/>
</g>
<g id="Group_72">
<g id="Group_73">
<path id="Vector_41" d="M92.2386 160.297C90.528 161.284 90.519 162.883 92.2186 163.87L107.468 172.728C109.168 173.716 111.929 173.716 113.64 172.728L142.209 156.241C143.929 155.248 143.938 153.649 142.239 152.662L126.989 143.804C125.29 142.817 122.528 142.817 120.808 143.809L92.2386 160.297Z" fill="#3F3F46"/>
</g>
</g>
<g id="Group_74">
<g id="Group_75">
<g id="Group_76">
<path id="Vector_42" d="M183.821 145.793C183.832 146.769 183.192 147.745 181.89 148.49L84.3412 204.789C83.9317 205.03 83.4803 205.219 83.0079 205.376C81.9267 205.744 80.6981 205.911 79.47 205.891H79.4594C78.2838 205.87 77.1289 205.67 76.1211 205.292C75.7431 205.145 75.3863 204.977 75.0608 204.789L13.2896 168.911C12.0194 168.166 11.3791 167.2 11.3791 166.224L11.337 157.074C11.3475 158.029 11.9877 158.994 13.2475 159.739L75.0187 195.617C75.3548 195.817 75.7223 195.985 76.1211 196.131C77.1289 196.509 78.2944 196.709 79.4594 196.73V196.719C80.6878 196.74 81.9267 196.572 83.0079 196.194C83.4697 196.037 83.9107 195.848 84.3097 195.617L181.858 139.319C183.139 138.584 183.79 137.587 183.79 136.622L183.821 145.793Z" fill="#52525B"/>
</g>
<g id="Group_77">
<path id="Vector_43" d="M16.7853 171.182C16.6496 171.182 16.5389 171.072 16.5389 170.936V161.796C16.5389 161.66 16.6496 161.55 16.7853 161.55C16.921 161.55 17.0317 161.66 17.0317 161.796V170.936C17.0319 171.072 16.921 171.182 16.7853 171.182Z" fill="#373B42"/>
</g>
<g id="Group_78">
<path id="Vector_44" d="M88.3095 202.747C88.1737 202.747 88.0631 202.637 88.0631 202.501V193.309C88.0631 193.173 88.1737 193.062 88.3095 193.062C88.4452 193.062 88.5559 193.173 88.5559 193.309V202.501C88.5559 202.637 88.4452 202.747 88.3095 202.747Z" fill="#373B42"/>
</g>
<g id="Group_79">
<path id="Vector_45" d="M176.714 151.727C176.579 151.727 176.468 151.617 176.468 151.481V142.288C176.468 142.152 176.579 142.042 176.714 142.042C176.85 142.042 176.961 142.152 176.961 142.288V151.481C176.961 151.617 176.85 151.727 176.714 151.727Z" fill="#373B42"/>
</g>
<g id="Group_80">
<path id="Vector_46" d="M83.0079 196.194V205.376C81.9266 205.743 80.6981 205.911 79.47 205.89H79.4594C78.2838 205.869 77.1289 205.67 76.1211 205.292V196.131C77.1289 196.509 78.2943 196.709 79.4594 196.729V196.719C80.6879 196.74 81.9266 196.572 83.0079 196.194Z" fill="#3F3F46"/>
</g>
<g id="Group_81">
<path id="Vector_47" d="M79.69 206.139C79.615 206.139 79.5408 206.138 79.4648 206.137C77.734 206.103 76.1293 205.7 74.9365 205.001L13.1659 169.124C11.8548 168.355 11.1328 167.325 11.1328 166.224L11.0904 157.078C11.0904 157.077 11.0904 157.077 11.0904 157.077V157.075C11.0894 156.939 11.1993 156.828 11.335 156.827C11.336 156.827 11.336 156.827 11.337 156.827C11.4717 156.827 11.5815 156.936 11.5834 157.071C11.5929 157.978 12.2293 158.851 13.3729 159.527L75.1436 195.404C76.2708 196.059 77.7794 196.441 79.3985 196.481C79.4196 196.476 79.4187 196.469 79.4649 196.472C81.2545 196.505 82.9371 196.125 84.1866 195.404L181.736 139.106C182.885 138.446 183.543 137.541 183.543 136.622C183.543 136.486 183.653 136.375 183.79 136.375C183.926 136.375 184.036 136.485 184.036 136.621L184.068 145.79C184.081 146.904 183.35 147.938 182.012 148.704L84.4647 205.002C83.2017 205.738 81.5123 206.139 79.69 206.139ZM11.59 158.585L11.6256 166.223C11.6256 167.143 12.261 168.022 13.4142 168.698L75.1848 204.575C76.3064 205.233 77.8264 205.612 79.4648 205.644C81.3131 205.685 82.9784 205.297 84.2173 204.576L181.766 148.277C182.943 147.603 183.585 146.723 183.575 145.796C183.575 145.795 183.575 145.795 183.575 145.794L183.548 138.136C183.198 138.661 182.666 139.139 181.981 139.533L84.433 195.83C83.1228 196.587 81.3891 196.98 79.5226 196.966C79.5015 196.973 79.4813 196.977 79.4552 196.976C77.7292 196.942 76.109 196.535 74.8951 195.83L13.1235 159.953C12.4525 159.556 11.9346 159.091 11.59 158.585Z" fill="#373B42"/>
</g>
</g>
<g id="Group_82">
<g id="Group_83">
<g id="Group_84">
<path id="Vector_48" d="M23.6603 168.01C23.8785 168.136 24.0568 168.444 24.0561 168.699L24.0499 171.42C24.0492 171.675 23.8697 171.773 23.6514 171.647L23.3366 171.465L23.3349 172.215C23.3342 172.47 23.1547 172.572 22.9365 172.446L21.0583 171.362C20.8401 171.236 20.6619 170.927 20.6626 170.673L20.6643 169.923L20.3494 169.742C20.1312 169.616 19.9528 169.311 19.9537 169.056L19.96 166.335C19.9607 166.08 20.1402 165.978 20.3585 166.104L23.6603 168.01Z" fill="#373B42"/>
</g>
</g>
</g>
</g>
</g>
<g id="Group_85">
<g id="Group_86">
<g id="Group_87">
<g id="Group_88">
<g id="Group_89">
<path id="Vector_49" d="M104.474 55.6326C102.017 54.446 71.5921 39.8632 71.5921 39.8632C70.8145 39.5131 69.871 39.5963 68.8975 40.0412C68.7373 40.1182 68.5712 40.2014 68.4049 40.2963C67.2474 40.9607 66.096 42.1057 65.1939 43.5949C65.1939 43.5949 33.8494 94.8721 32.3239 97.3579C32.2883 97.4232 32.2645 97.4529 32.2645 97.4529L26.8338 94.2966C26.8515 94.2669 26.8753 94.2431 26.893 94.2136C28.4184 91.7217 59.763 40.4447 59.763 40.4447C60.6652 38.9555 61.8226 37.8165 62.974 37.1461C63.1401 37.0453 63.3123 36.9622 63.4785 36.885C64.446 36.452 65.3897 36.363 66.1612 36.7189C66.1612 36.7189 98.7877 52.3459 99.2032 52.5536C99.3872 52.6426 99.5593 52.7434 99.7315 52.8798L99.7374 52.868L104.474 55.6326Z" fill="#373B42"/>
<path id="Vector_50" d="M32.2607 97.6979C32.2193 97.6979 32.1779 97.6877 32.1403 97.6661L26.7092 94.5095C26.6514 94.4759 26.61 94.4205 26.5946 94.3555C26.5782 94.291 26.5888 94.2227 26.6244 94.1658C26.6292 94.1587 26.663 94.1115 26.6678 94.1047C28.209 91.5932 59.5535 40.3159 59.5535 40.3159C60.4362 38.8584 61.6068 37.6566 62.8495 36.9332C63.0209 36.8297 63.201 36.7421 63.3741 36.6617C64.4551 36.1776 65.4553 36.1217 66.264 36.4952C67.6001 37.1348 98.9004 52.127 99.3133 52.333C99.5039 52.4249 99.6666 52.5226 99.8187 52.6363C99.8333 52.641 99.8476 52.6468 99.8611 52.655L104.598 55.4197C104.713 55.4862 104.754 55.6315 104.692 55.7485C104.629 55.8654 104.485 55.9116 104.367 55.8543C101.938 54.6818 71.7895 40.2312 71.4853 40.0854C70.7989 39.7754 69.9364 39.837 68.9997 40.2655C68.8485 40.3381 68.6879 40.4185 68.5271 40.51C67.3642 41.1781 66.2543 42.3188 65.4043 43.7229C65.0905 44.2365 34.0416 95.0292 32.534 97.4873C32.4906 97.5672 32.456 97.6076 32.456 97.6076C32.407 97.6657 32.3339 97.6979 32.2607 97.6979ZM27.1818 94.2141L32.1817 97.1198C34.4199 93.4657 64.6738 43.9729 64.9837 43.4666C65.876 41.9932 67.0475 40.7915 68.2827 40.0824C68.453 39.9843 68.6254 39.8981 68.7909 39.8187C69.8287 39.3441 70.8019 39.2695 71.6124 39.6036C68.3597 38.0456 66.1388 36.9819 66.0541 36.9414C65.3803 36.6295 64.5216 36.6877 63.5791 37.1099C63.4241 37.1821 63.2595 37.261 63.1007 37.3568C61.9254 38.0418 60.8154 39.1829 59.974 40.5721C59.9732 40.5729 29.4768 90.4642 27.1818 94.2141ZM83.9555 45.5161C89.1826 48.0224 95.021 50.8222 99.1748 52.8149C99.1497 52.8014 99.1238 52.7884 99.0958 52.7755C98.9023 52.6786 91.6286 49.1929 83.9555 45.5161Z" fill="#373B42"/>
</g>
<g id="Group_90">
<g id="Group_91">
<g id="Group_92">
<g id="Group_93">
<g id="Group_94">
<g id="Group_95">
<path id="Vector_51" d="M32.1472 149.157L26.8446 146.072C25.5806 145.333 24.8891 143.967 24.8653 141.877L24.754 100.965C24.746 99.8846 24.9526 98.7404 25.3184 97.6042C25.3819 97.3897 25.4615 97.1752 25.5409 96.9607C25.8748 96.0548 26.312 95.1491 26.8285 94.2989L26.8366 94.3068V94.2989L32.2665 97.4553C30.9867 99.5529 30.1837 101.96 30.1918 104.13L30.3031 145.041C30.311 147.052 31.0105 148.49 32.1472 149.157Z" fill="#373B42"/>
<path id="Vector_52" d="M32.1471 149.404C32.1048 149.404 32.0624 149.393 32.0229 149.37L32.022 149.369V149.37L26.7207 146.285C25.35 145.484 24.6424 144.001 24.6183 141.88L24.5076 100.966C24.4999 99.8961 24.6935 98.7395 25.0833 97.5284C25.143 97.3268 25.22 97.1192 25.2961 96.9113C25.6531 95.9438 26.0931 95.0337 26.6178 94.1706C26.6572 94.1062 26.7237 94.0628 26.7989 94.0542C26.8249 94.0498 26.847 94.0513 26.8701 94.0556C26.9019 94.0594 26.9318 94.0691 26.9606 94.0855L32.3908 97.242C32.4476 97.2757 32.489 97.3306 32.5054 97.3946C32.5218 97.4591 32.5112 97.527 32.4776 97.5839C31.1731 99.7195 30.431 102.105 30.4386 104.129L30.5493 145.041C30.557 146.91 31.1692 148.297 32.2724 148.945C32.3889 149.013 32.4284 149.164 32.36 149.281C32.3137 149.36 32.2319 149.404 32.1471 149.404ZM26.9171 94.6309C26.4618 95.4058 26.0777 96.2169 25.7717 97.0456C25.6859 97.2795 25.6129 97.4768 25.5541 97.6742C25.1786 98.8404 24.9929 99.9451 25.0005 100.963L25.1112 141.876C25.1333 143.838 25.7418 145.141 26.9691 145.859L30.7571 148.063C30.3037 147.271 30.0612 146.245 30.0562 145.042L29.9456 104.13C29.9368 102.056 30.6397 99.725 31.9266 97.5427L26.9171 94.6309Z" fill="#373B42"/>
</g>
<g id="Group_96">
<g id="Group_97">
<path id="Vector_53" d="M30.189 104.126L30.3016 145.044C30.3102 147.206 31.1234 148.693 32.4124 149.299C33.5629 149.852 35.1027 149.705 36.7811 148.728L100.425 112.004C102.104 111.035 103.635 109.41 104.768 107.533H104.776C106.057 105.441 106.861 103.028 106.853 100.866L106.731 59.9483C106.723 57.7865 105.918 56.3077 104.629 55.7024C103.479 55.1404 101.948 55.2873 100.261 56.256L36.6253 92.9802C34.9383 93.9573 33.4071 95.583 32.2652 97.4594C30.9849 99.552 30.1804 101.964 30.189 104.126Z" fill="#F57C00"/>
<path id="Vector_54" d="M33.8848 149.866C33.3178 149.866 32.7855 149.752 32.3051 149.52C30.8852 148.853 30.0641 147.222 30.0554 145.045L29.9428 104.127C29.934 102.016 30.7042 99.5387 32.0558 97.3304C33.2609 95.3498 34.8398 93.7287 36.5022 92.7665L100.138 56.0423C101.842 55.0628 103.476 54.8636 104.737 55.4805C106.151 56.1448 106.969 57.773 106.978 59.9467L107.099 100.865C107.108 102.976 106.338 105.453 104.986 107.661C104.976 107.679 104.964 107.694 104.95 107.708C103.759 109.666 102.197 111.265 100.549 112.217L36.9046 148.941C35.8505 149.555 34.8195 149.866 33.8848 149.866ZM103.147 55.6223C102.304 55.6223 101.362 55.9077 100.383 56.4694L36.7486 93.1931C35.1564 94.1149 33.6392 95.6753 32.4764 97.5871C31.1712 99.7202 30.4279 102.103 30.4357 104.125C30.4357 104.125 30.4357 104.125 30.4357 104.125L30.5483 145.044C30.556 147.022 31.2741 148.491 32.5168 149.076C33.6392 149.614 35.1092 149.416 36.6571 148.515L100.302 111.79C101.893 110.872 103.405 109.315 104.557 107.405C104.567 107.388 104.58 107.372 104.594 107.357C105.881 105.237 106.614 102.874 106.606 100.867L106.485 59.9487C106.477 57.9734 105.762 56.5068 104.524 55.9249C104.11 55.723 103.646 55.6223 103.147 55.6223Z" fill="#373B42"/>
</g>
</g>
</g>
</g>
<g id="Group_98">
<g id="Group_99">
<g id="Group_100">
<path id="Vector_55" d="M32.4124 149.299C33.5629 149.852 35.1027 149.705 36.7811 148.728L100.425 112.004C102.104 111.035 103.635 109.41 104.768 107.533L76.9294 97.6493L74.5764 101.212L71.4015 106.011C70.9863 106.643 70.5279 107.204 70.0347 107.68C69.5503 108.156 69.0485 108.545 68.5381 108.839C67.5172 109.427 66.4965 109.626 65.6574 109.332L60.1035 107.36L32.4124 149.299Z" fill="#F57C00"/>
<path id="Vector_56" d="M33.8848 149.866C33.3178 149.866 32.7855 149.752 32.3051 149.52C32.2406 149.49 32.1935 149.433 32.1742 149.364C32.1559 149.296 32.1674 149.222 32.206 149.163L59.8973 107.225C59.9608 107.129 60.0792 107.092 60.1861 107.128L65.7405 109.099C66.4807 109.361 67.4338 109.192 68.4146 108.625C68.9066 108.342 69.3936 107.965 69.8624 107.504C70.338 107.045 70.7866 106.497 71.1957 105.876L76.7232 97.5135C76.7867 97.4181 76.9061 97.3807 77.012 97.4167L104.851 107.301C104.92 107.326 104.975 107.381 105 107.45C105.025 107.52 105.017 107.597 104.979 107.661C103.784 109.639 102.211 111.258 100.549 112.217L36.9048 148.941C35.8505 149.555 34.8195 149.866 33.8848 149.866ZM32.7806 149.187C33.8635 149.58 35.2275 149.347 36.6571 148.515L100.302 111.791C101.821 110.914 103.267 109.455 104.398 107.663L77.0283 97.9464L71.6077 106.147C71.1784 106.799 70.7066 107.375 70.2061 107.857C69.7094 108.346 69.1886 108.748 68.661 109.053C67.552 109.691 66.4557 109.873 65.5757 109.565L60.2023 107.658L32.7806 149.187Z" fill="#373B42"/>
</g>
</g>
<g id="Group_101">
<g id="Group_102">
<g id="Group_103">
<path id="Vector_57" d="M78.3667 116.348C79.4771 115.707 80.3814 116.222 80.3851 117.494C80.3887 118.769 79.4902 120.325 78.3798 120.966C77.2758 121.603 76.3715 121.087 76.3678 119.812C76.3642 118.54 77.2627 116.985 78.3667 116.348Z" fill="#27272A"/>
</g>
</g>
<g id="Group_104">
<g id="Group_105">
<path id="Vector_58" d="M69.7182 121.341C70.8286 120.7 71.7329 121.215 71.7366 122.487C71.7403 123.762 70.8417 125.318 69.7313 125.959C68.6273 126.596 67.723 126.081 67.7194 124.805C67.7159 123.534 68.6144 121.978 69.7182 121.341Z" fill="#27272A"/>
</g>
</g>
<g id="Group_106">
<g id="Group_107">
<path id="Vector_59" d="M61.0699 126.334C62.1803 125.693 63.0846 126.208 63.0883 127.48C63.092 128.755 62.1934 130.311 61.083 130.952C59.9791 131.589 59.0747 131.074 59.0711 129.798C59.0676 128.527 59.966 126.971 61.0699 126.334Z" fill="#27272A"/>
</g>
</g>
</g>
</g>
</g>
</g>
<g id="Group_108">
<g id="Group_109">
<path id="Vector_60" d="M104.634 55.7013L74.579 101.214L71.4074 106.013C70.9941 106.64 70.533 107.205 70.0402 107.681C69.5552 108.158 69.0466 108.547 68.5457 108.841C67.5202 109.429 66.5028 109.628 65.6603 109.334L32.2747 97.4554H32.2666C32.3222 97.3601 65.1912 43.5924 65.1912 43.5924C66.0973 42.1066 67.25 40.9624 68.4026 40.2949C69.5392 39.6354 70.684 39.4527 71.5902 39.8659C71.5902 39.8659 104.221 55.4947 104.634 55.7013Z" fill="#F57C00"/>
<path id="Vector_61" d="M66.4893 109.716C66.1707 109.716 65.8654 109.666 65.5796 109.566L32.201 97.6911C32.1413 97.6728 32.0884 97.6329 32.0566 97.5781C32.0124 97.5011 32.0094 97.4072 32.0536 97.3307C32.1104 97.2344 63.6378 45.659 64.9807 43.4638C65.876 41.9958 67.0475 40.795 68.2788 40.0816C69.5215 39.3616 70.7344 39.2042 71.6922 39.6416C73.0294 40.2818 104.333 55.2758 104.744 55.481C104.807 55.5128 104.853 55.5695 104.871 55.6379C104.89 55.7058 104.878 55.7785 104.84 55.8372L71.6133 106.148C71.1868 106.795 70.7152 107.371 70.2117 107.859C69.7245 108.337 69.2057 108.739 68.6704 109.054C67.9034 109.494 67.1641 109.716 66.4893 109.716ZM32.6362 97.3224L65.7434 109.102C66.4847 109.362 67.4387 109.193 68.4233 108.628C68.922 108.335 69.4092 107.957 69.8683 107.506C70.3467 107.041 70.7953 106.494 71.2016 105.877L104.273 55.8004C101.223 54.3324 71.7955 40.2374 71.4836 40.0882C70.6808 39.7214 69.6267 39.8697 68.5254 40.5079C67.3644 41.1807 66.2546 42.3216 65.4017 43.7208C65.0858 44.2362 35.0861 93.3117 32.6362 97.3224Z" fill="#373B42"/>
</g>
</g>
<g id="Group_110">
<g id="Group_111">
<g id="Group_112">
<g id="Group_113">
<path id="Vector_62" d="M43.9669 101.614L39.8715 100.162L39.7844 57.3434L43.8739 59.7239L43.9669 101.614Z" fill="#52525B"/>
<path id="Vector_63" d="M43.9664 101.86C43.9385 101.86 43.9105 101.855 43.8836 101.846L39.7886 100.395C39.6904 100.36 39.6249 100.267 39.6249 100.163L39.5384 57.3436C39.5384 57.2555 39.5855 57.1737 39.6616 57.1295C39.7386 57.0857 39.8329 57.0857 39.9089 57.1305L43.9982 59.5115C44.0733 59.5553 44.1204 59.6361 44.1204 59.7239L44.2128 101.613C44.2128 101.693 44.1743 101.768 44.1089 101.815C44.0665 101.845 44.0165 101.86 43.9664 101.86ZM40.1179 99.988L43.719 101.264L43.6275 59.8662L40.0321 57.7725L40.1179 99.988Z" fill="#373B42"/>
</g>
</g>
<g id="Group_114">
<g id="Group_115">
<path id="Vector_64" d="M43.8762 59.7229L39.7821 57.3448L95.5732 25.1474L99.6673 27.5256L43.8762 59.7229Z" fill="#3F3F46"/>
<path id="Vector_65" d="M43.8759 59.9691C43.8335 59.9691 43.7902 59.958 43.7518 59.9359L39.6577 57.5576C39.5816 57.5133 39.5355 57.432 39.5355 57.3439C39.5355 57.2563 39.5826 57.1749 39.6587 57.1312L95.4503 24.9342C95.5273 24.8899 95.6207 24.8899 95.6977 24.9342L99.7918 27.3125C99.8678 27.3568 99.914 27.4381 99.914 27.5262C99.914 27.6138 99.8668 27.6951 99.7908 27.7389L43.9991 59.9359C43.9607 59.958 43.9183 59.9691 43.8759 59.9691ZM40.2738 57.345L43.8759 59.4377L99.1757 27.5253L95.5735 25.4326L40.2738 57.345Z" fill="#373B42"/>
</g>
</g>
<g id="Group_116">
<g id="Group_117">
<path id="Vector_66" d="M99.7264 63.1345L74.5798 101.213L71.4082 106.015C70.9956 106.642 70.531 107.205 70.043 107.681C69.555 108.157 69.044 108.546 68.5443 108.843C67.5219 109.429 66.5054 109.626 65.6631 109.336L43.9496 101.608L43.8741 59.724L99.6686 27.5275L99.7264 63.1345Z" fill="#27272A"/>
<path id="Vector_67" d="M66.4893 109.716C66.1727 109.716 65.8694 109.668 65.5834 109.569L43.8663 101.84C43.7682 101.805 43.7027 101.712 43.7027 101.608L43.6277 59.7248C43.6277 59.6367 43.6749 59.5549 43.7509 59.5111L99.5455 27.3142C99.6225 27.2698 99.7149 27.2704 99.7919 27.3137C99.8679 27.3581 99.9151 27.4389 99.9151 27.5271L99.9728 63.1345C99.9728 63.1831 99.9583 63.2303 99.9324 63.2708L71.6144 106.151C71.1967 106.785 70.7258 107.359 70.2156 107.858C69.7285 108.333 69.2087 108.735 68.6706 109.055C67.9044 109.494 67.1651 109.716 66.4893 109.716ZM44.1955 101.434L65.7461 109.104C66.4901 109.361 67.4413 109.191 68.4222 108.629C68.9237 108.331 69.4128 107.952 69.871 107.505C70.3561 107.031 70.8037 106.484 71.2023 105.879L99.4799 63.061L99.4231 27.9536L44.1205 59.866L44.1955 101.434Z" fill="#373B42"/>
</g>
</g>
</g>
</g>
</g>
</g>
</g>
</g>
</g>
<g id="Group_118">
<g id="Group_119">
<path id="Vector_68" d="M80.9992 74.5389L83.6871 72.9877C83.1665 74.4935 82.3044 76.1966 81.1008 78.1488C79.8742 80.0887 78.4191 81.898 76.7355 83.6033C75.0291 85.3216 73.003 86.8319 70.6112 88.2122C68.4243 89.4743 66.3962 90.3301 64.5491 90.741C62.6796 91.1908 61.1051 91.1038 59.8031 90.571C58.4782 90.0255 57.4945 89.0992 56.829 87.78C56.003 86.1076 55.5864 84.0418 55.5793 81.5302C55.5716 78.7833 56.0424 75.8646 57.0375 72.7744C58.2362 68.9903 59.9378 65.6499 62.1427 62.7527C64.3705 59.8161 67.0559 57.4537 70.2222 55.6264C72.6596 54.2197 74.8707 53.5203 76.8329 53.5409C78.7725 53.5746 80.3263 54.4078 81.4718 56.0267C82.4339 57.4367 82.9182 59.2799 82.9249 61.6085C82.9341 64.8789 81.9175 68.4009 79.9202 72.1216C78.1272 75.4624 76.1715 77.7179 74.0302 78.9536C73.3468 79.348 72.7998 79.5592 72.3663 79.5732C71.9556 79.5742 71.6359 79.4184 71.4296 79.0919C71.3148 78.8698 71.2224 78.4252 71.152 77.7845C70.5165 78.9896 69.7896 80.0905 68.9938 81.0742C68.198 82.0572 67.4016 82.7789 66.6043 83.239C65.7388 83.7386 64.8721 83.9244 64.0506 83.822C63.2061 83.7066 62.543 83.1982 62.0155 82.2709C61.4882 81.3437 61.2338 80.1277 61.2296 78.6625C61.2245 76.8572 61.6066 74.8286 62.4214 72.5498C63.2135 70.2845 64.212 68.3455 65.3939 66.7464C66.5985 65.1338 67.7589 64.0187 68.8753 63.3746C69.7408 62.8751 70.5615 62.6633 71.3604 62.7268C72.1363 62.7769 72.7991 63.1807 73.3716 63.9245L73.8652 60.993L76.5304 59.4548L74.4216 72.1239C74.13 73.8906 73.973 74.846 73.9736 75.0295C73.9744 75.3172 74.0891 75.5394 74.2946 75.6301C74.5002 75.7212 74.7285 75.7206 75.0246 75.5497C75.5485 75.2474 76.2308 74.4867 77.0944 73.307C78.2081 71.7469 79.0929 70.0311 79.7492 68.106C80.4054 66.2075 80.7198 64.4535 80.7153 62.8314C80.7099 60.9214 80.2949 59.3788 79.4473 58.2432C78.5997 57.0812 77.3205 56.483 75.6547 56.4483C73.9664 56.453 72.1199 57.0209 70.0925 58.1911C67.7692 59.5318 65.6525 61.3822 63.7654 63.7029C61.8555 66.063 60.3572 68.7099 59.3159 71.6429C58.2746 74.5502 57.7578 77.338 57.7654 80.0066C57.7733 82.7798 58.3039 84.8846 59.3575 86.2943C60.411 87.7042 61.9414 88.2887 63.9487 88.0999C65.9331 87.9243 68.1441 87.1201 70.5586 85.7267C73.1553 84.2281 75.3179 82.482 77.0691 80.4756C78.8199 78.4696 80.1377 76.4774 80.9992 74.5389ZM72.0267 72.4578C72.3652 71.1093 72.544 69.8531 72.5408 68.6755C72.5364 67.1319 72.1913 66.1258 71.5283 65.6695C70.8655 65.1873 70.0442 65.242 69.0876 65.7942C68.4498 66.1624 67.858 66.6873 67.2897 67.3821C66.7439 68.0638 66.1991 68.9812 65.6773 70.0943C65.1558 71.2341 64.7485 72.4388 64.4328 73.7999C64.1173 75.1614 63.9611 76.3262 63.9637 77.2941C63.9682 78.8641 64.2905 79.8834 64.9307 80.3787C65.5937 80.8609 66.3238 80.8589 67.1438 80.3857C67.7132 80.0571 68.2822 79.5453 68.8962 78.8242C69.5101 78.0769 70.1007 77.1595 70.6453 76.1112C71.2127 75.024 71.6656 73.8192 72.0267 72.4578Z" fill="#52525B"/>
</g>
</g>
</g>
</g>
</svg>
