<svg width="23" height="22" viewBox="0 0 23 22" fill="none" xmlns="http://www.w3.org/2000/svg">
<g id="money-bag-02">
<path id="Vector" d="M19.6975 15.4324C19.0959 11.8127 17.2229 9.11728 15.5947 7.53407C15.1209 7.07337 14.8841 6.84303 14.3607 6.62985C13.8374 6.41666 13.3876 6.41666 12.488 6.41666H10.512C9.61241 6.41666 9.16259 6.41666 8.63928 6.62985C8.11598 6.84303 7.87908 7.07337 7.40528 7.53407C5.77708 9.11728 3.90414 11.8127 3.3025 15.4324C2.85485 18.1256 5.33933 20.1667 8.11596 20.1667H14.8841C17.6606 20.1667 20.1452 18.1256 19.6975 15.4324Z" stroke="#F57C00" stroke-width="1.375" stroke-linecap="round" stroke-linejoin="round"/>
<path id="Vector_2" d="M7.15198 4.07264C6.96287 3.79738 6.68875 3.42375 7.25499 3.33856C7.83701 3.25098 8.44136 3.64939 9.03292 3.6412C9.56809 3.6338 9.84073 3.39643 10.1332 3.05753C10.4412 2.70067 10.9182 1.83334 11.5001 1.83334C12.082 1.83334 12.5589 2.70067 12.8669 3.05753C13.1594 3.39643 13.432 3.6338 13.9672 3.6412C14.5588 3.64939 15.1632 3.25098 15.7452 3.33856C16.3114 3.42375 16.0373 3.79738 15.8482 4.07264L14.993 5.31726C14.6273 5.84968 14.4444 6.11589 14.0616 6.26629C13.6789 6.41668 13.1843 6.41668 12.1951 6.41668H10.8051C9.81589 6.41668 9.32126 6.41668 8.93851 6.26629C8.55577 6.11589 8.37287 5.84968 8.00708 5.31726L7.15198 4.07264Z" stroke="#F57C00" stroke-width="1.375" stroke-linejoin="round"/>
<path id="Vector_3" d="M12.9911 11.842C12.7929 11.1104 11.7842 10.4503 10.5734 10.9442C9.36252 11.438 9.17018 13.027 11.0017 13.1959C11.8295 13.2721 12.3692 13.1073 12.8633 13.5736C13.3575 14.0398 13.4492 15.3366 12.186 15.686C10.9229 16.0354 9.67209 15.4895 9.53589 14.714M11.3548 10.0766V10.7737M11.3548 15.7935V16.4933" stroke="#F57C00" stroke-width="1.375" stroke-linecap="round" stroke-linejoin="round"/>
</g>
</svg>
