<svg width="18" height="18" viewBox="0 0 18 18" fill="none" xmlns="http://www.w3.org/2000/svg">
<g id="money-bag-02">
<path id="Vector" d="M15.707 12.6265C15.2148 9.66495 13.6824 7.4596 12.3502 6.16425C11.9626 5.78731 11.7688 5.59885 11.3406 5.42443C10.9124 5.25 10.5444 5.25 9.80835 5.25H8.19165C7.45561 5.25 7.08757 5.25 6.65941 5.42443C6.23125 5.59885 6.03743 5.78731 5.64978 6.16425C4.31761 7.4596 2.78521 9.66495 2.29295 12.6265C1.9267 14.83 3.95945 16.5 6.23124 16.5H11.7688C14.0405 16.5 16.0733 14.83 15.707 12.6265Z" stroke="#F57C00" stroke-width="1.125" stroke-linecap="round" stroke-linejoin="round"/>
<path id="Vector_2" d="M5.44246 3.33215C5.28773 3.10694 5.06346 2.80124 5.52674 2.73154C6.00294 2.65988 6.49741 2.98585 6.98141 2.97916C7.41928 2.9731 7.64235 2.77889 7.88167 2.50161C8.13367 2.20963 8.5239 1.5 9 1.5C9.4761 1.5 9.86633 2.20963 10.1183 2.50161C10.3577 2.77889 10.5807 2.9731 11.0185 2.97916C11.5026 2.98585 11.9971 2.65988 12.4733 2.73154C12.9365 2.80124 12.7123 3.10694 12.5576 3.33215L11.8579 4.35048C11.5586 4.7861 11.409 5.0039 11.0958 5.12695C10.7827 5.25 10.378 5.25 9.56865 5.25H8.43135C7.62203 5.25 7.21732 5.25 6.90417 5.12695C6.59101 5.0039 6.44138 4.7861 6.14209 4.35048L5.44246 3.33215Z" stroke="#F57C00" stroke-width="1.125" stroke-linejoin="round"/>
<path id="Vector_3" d="M10.22 9.68893C10.0579 9.09036 9.23258 8.55021 8.2419 8.95431C7.25122 9.35833 7.09385 10.6585 8.59238 10.7966C9.26963 10.859 9.71123 10.7242 10.1155 11.1057C10.5198 11.4871 10.5949 12.5481 9.56138 12.834C8.52788 13.1199 7.5045 12.6732 7.39307 12.0388M8.88128 8.24451V8.81481M8.88128 12.922V13.4945" stroke="#F57C00" stroke-width="1.125" stroke-linecap="round" stroke-linejoin="round"/>
</g>
</svg>
