<svg width="14" height="14" viewBox="0 0 14 14" fill="none" xmlns="http://www.w3.org/2000/svg">
<g id="nano-technology">
<path id="Vector" d="M2.91675 9.33332L5.83341 7.58332M8.16675 6.41666L11.0834 4.66666M7.00008 2.91666V5.83332M7.00008 8.16666V11.0833M2.91675 4.66666L5.83341 6.41666M8.16675 7.58332L11.0834 9.33332" stroke="#FFC400" stroke-width="0.875" stroke-linejoin="round"/>
<path id="Vector_2" d="M11.9584 5.25V8.45832M7.87508 11.9583L11.0834 10.2083M2.62508 10.2083L6.12508 11.9583M2.04175 8.74999V5.25M2.62508 3.79166L6.12508 2.04166M11.3751 3.79166L7.87508 2.04166" stroke="#FFC400" stroke-width="0.875" stroke-linejoin="round"/>
<path id="Vector_3" d="M7 2.91666C7.48325 2.91666 7.875 2.52491 7.875 2.04166C7.875 1.55841 7.48325 1.16666 7 1.16666C6.51675 1.16666 6.125 1.55841 6.125 2.04166C6.125 2.52491 6.51675 2.91666 7 2.91666Z" stroke="#FFC400" stroke-width="0.875" stroke-linejoin="round"/>
<path id="Vector_4" d="M7 12.8333C7.48325 12.8333 7.875 12.4416 7.875 11.9583C7.875 11.4751 7.48325 11.0833 7 11.0833C6.51675 11.0833 6.125 11.4751 6.125 11.9583C6.125 12.4416 6.51675 12.8333 7 12.8333Z" stroke="#FFC400" stroke-width="0.875" stroke-linejoin="round"/>
<path id="Vector_5" d="M2.04175 5.25C2.525 5.25 2.91675 4.85825 2.91675 4.375C2.91675 3.89175 2.525 3.5 2.04175 3.5C1.5585 3.5 1.16675 3.89175 1.16675 4.375C1.16675 4.85825 1.5585 5.25 2.04175 5.25Z" stroke="#FFC400" stroke-width="0.875" stroke-linejoin="round"/>
<path id="Vector_6" d="M11.9583 5.25C12.4415 5.25 12.8333 4.85825 12.8333 4.375C12.8333 3.89175 12.4415 3.5 11.9583 3.5C11.475 3.5 11.0833 3.89175 11.0833 4.375C11.0833 4.85825 11.475 5.25 11.9583 5.25Z" stroke="#FFC400" stroke-width="0.875" stroke-linejoin="round"/>
<path id="Vector_7" d="M11.9583 10.5C12.4415 10.5 12.8333 10.1082 12.8333 9.625C12.8333 9.14175 12.4415 8.75 11.9583 8.75C11.475 8.75 11.0833 9.14175 11.0833 9.625C11.0833 10.1082 11.475 10.5 11.9583 10.5Z" stroke="#FFC400" stroke-width="0.875" stroke-linejoin="round"/>
<path id="Vector_8" d="M2.04175 10.5C2.525 10.5 2.91675 10.1082 2.91675 9.625C2.91675 9.14175 2.525 8.75 2.04175 8.75C1.5585 8.75 1.16675 9.14175 1.16675 9.625C1.16675 10.1082 1.5585 10.5 2.04175 10.5Z" stroke="#FFC400" stroke-width="0.875" stroke-linejoin="round"/>
<path id="Vector_9" d="M6.99992 5.6875L8.16659 6.34375V7.65625L6.99992 8.3125L5.83325 7.65625V6.34375L6.99992 5.6875Z" stroke="#FFC400" stroke-width="0.875" stroke-linejoin="round"/>
</g>
</svg>
