<svg width="23" height="22" viewBox="0 0 23 22" fill="none" xmlns="http://www.w3.org/2000/svg">
<g id="pool">
<path id="Vector" d="M20.6666 19.25H19.75C18.4195 19.25 17.2548 18.4627 17 17.4167C16.7451 18.4627 15.5804 19.25 14.25 19.25C12.9195 19.25 11.7548 18.4627 11.5 17.4167C11.2451 18.4627 10.0804 19.25 8.74998 19.25C7.41956 19.25 6.25478 18.4627 5.99998 17.4167C5.74518 18.4627 4.5804 19.25 3.24998 19.25H2.33331" stroke="#F57C00" stroke-width="1.375" stroke-linecap="round" stroke-linejoin="round"/>
<path id="Vector_2" d="M17.9167 2.75L17.6739 2.83094C16.4639 3.23429 15.8588 3.43596 15.5127 3.91609C15.1667 4.39621 15.1667 5.03396 15.1667 6.30945V15.5833" stroke="#F57C00" stroke-width="1.375" stroke-linecap="round" stroke-linejoin="round"/>
<path id="Vector_3" d="M10.5833 2.75L10.3405 2.83094C9.13044 3.23429 8.52542 3.43596 8.17937 3.91609C7.83331 4.39621 7.83331 5.03396 7.83331 6.30945V15.5833" stroke="#F57C00" stroke-width="1.375" stroke-linecap="round" stroke-linejoin="round"/>
<path id="Vector_4" d="M7.83331 6.41666H15.1666M7.83331 10.0833H15.1666M7.83331 13.75H15.1666" stroke="#F57C00" stroke-width="1.375" stroke-linecap="round" stroke-linejoin="round"/>
</g>
</svg>
