<svg width="20" height="20" viewBox="0 0 20 20" fill="none" xmlns="http://www.w3.org/2000/svg">
<g id="purse">
<path id="Vector" d="M13.3331 11.6665C13.3331 12.3568 13.8928 12.9165 14.5831 12.9165C15.2735 12.9165 15.8331 12.3568 15.8331 11.6665C15.8331 10.9762 15.2735 10.4165 14.5831 10.4165C13.8928 10.4165 13.3331 10.9762 13.3331 11.6665Z" stroke="#D1D5DB" stroke-width="1.25"/>
<path id="Vector_2" d="M3.33317 16.6665C2.4127 16.6665 1.6665 15.9203 1.6665 14.9998C1.6665 14.0793 2.4127 13.3332 3.33317 13.3332C4.25365 13.3332 4.99984 14.4442 4.99984 14.9998C4.99984 15.5554 4.25365 16.6665 3.33317 16.6665Z" stroke="#D1D5DB" stroke-width="1.25"/>
<path id="Vector_3" d="M6.66667 16.6665C5.74619 16.6665 5 15.4165 5 14.9998C5 14.5832 5.74619 13.3332 6.66667 13.3332C7.58714 13.3332 8.33333 14.0793 8.33333 14.9998C8.33333 15.9203 7.58714 16.6665 6.66667 16.6665Z" stroke="#D1D5DB" stroke-width="1.25"/>
<path id="Vector_4" d="M10.8332 16.6665H13.3332C15.6902 16.6665 16.8687 16.6665 17.6009 15.9342C18.3332 15.202 18.3332 14.0235 18.3332 11.6665V10.8332C18.3332 8.47616 18.3332 7.29763 17.6009 6.56539C17.0665 6.03098 16.2943 5.8866 14.9998 5.84759M14.9998 5.84759C14.5207 5.83316 13.9699 5.83316 13.3332 5.83316H8.33317M14.9998 5.84759C14.9998 5.05747 14.9998 4.66241 14.8686 4.35156C14.6998 3.95158 14.3814 3.63328 13.9814 3.4644C13.6706 3.33316 13.2755 3.33316 12.4854 3.33316H8.33317C5.19047 3.33316 3.61913 3.33316 2.64281 4.30947C1.6665 5.28579 1.6665 6.02379 1.6665 9.16649V10.8332" stroke="#D1D5DB" stroke-width="1.25" stroke-linecap="round"/>
</g>
</svg>
