<svg width="23" height="22" viewBox="0 0 23 22" fill="none" xmlns="http://www.w3.org/2000/svg">
<g id="rocket-01">
<path id="Vector" d="M11.3179 5.94869L12.6797 4.58692C14.213 3.05359 16.2205 2.41758 18.3449 2.31365C19.1713 2.27323 19.5844 2.25301 19.9157 2.58433C20.2471 2.91564 20.2268 3.3288 20.1864 4.15514C20.0825 6.27962 19.4465 8.28705 17.9132 9.82034L16.5514 11.1821C15.4299 12.3036 15.1111 12.6225 15.3465 13.8389C15.5789 14.7681 15.8037 15.6679 15.1281 16.3436C14.3085 17.1632 13.5608 17.1632 12.7412 16.3436L6.15645 9.75883C5.33686 8.93922 5.33684 8.1916 6.15645 7.372C6.83211 6.69633 7.73193 6.92123 8.66114 7.15356C9.87758 7.389 10.1965 7.07014 11.3179 5.94869Z" stroke="#52525B" stroke-width="1.375" stroke-linejoin="round"/>
<path id="Vector_2" d="M16.0798 6.41666H16.0888" stroke="#52525B" stroke-width="1.83333" stroke-linecap="round" stroke-linejoin="round"/>
<path id="Vector_3" d="M2.79175 19.7083L7.37508 15.125" stroke="#52525B" stroke-width="1.375" stroke-linecap="round"/>
<path id="Vector_4" d="M8.29175 19.7083L10.1251 17.875" stroke="#52525B" stroke-width="1.375" stroke-linecap="round"/>
<path id="Vector_5" d="M2.79175 14.2083L4.62508 12.375" stroke="#52525B" stroke-width="1.375" stroke-linecap="round"/>
</g>
</svg>
