<svg width="14" height="14" viewBox="0 0 14 14" fill="none" xmlns="http://www.w3.org/2000/svg">
<g id="rocket-01">
<path id="Vector" d="M6.88438 3.78585L7.75098 2.91927C8.72672 1.94352 10.0042 1.53878 11.3561 1.47264C11.882 1.44692 12.1449 1.43406 12.3557 1.6449C12.5666 1.85573 12.5537 2.11865 12.528 2.6445C12.4618 3.99644 12.0571 5.2739 11.0813 6.24963L10.2147 7.11623C9.50109 7.82988 9.29821 8.03282 9.44801 8.8069C9.59588 9.39822 9.73898 9.97082 9.309 10.4008C8.78744 10.9224 8.31168 10.9224 7.79012 10.4008L3.59979 6.21048C3.07824 5.68891 3.07822 5.21316 3.59979 4.69159C4.02976 4.26162 4.60237 4.40474 5.19368 4.55259C5.96778 4.70241 6.17073 4.4995 6.88438 3.78585Z" stroke="#00E676" stroke-width="0.875" stroke-linejoin="round"/>
<path id="Vector_2" d="M9.91467 4.08365H9.92142" stroke="#00E676" stroke-width="1.16667" stroke-linecap="round" stroke-linejoin="round"/>
<path id="Vector_3" d="M1.45862 12.5416L4.37529 9.62497" stroke="#00E676" stroke-width="0.875" stroke-linecap="round"/>
<path id="Vector_4" d="M4.95862 12.5416L6.12528 11.375" stroke="#00E676" stroke-width="0.875" stroke-linecap="round"/>
<path id="Vector_5" d="M1.45862 9.04164L2.62528 7.87497" stroke="#00E676" stroke-width="0.875" stroke-linecap="round"/>
</g>
</svg>
