<svg width="23" height="22" viewBox="0 0 23 22" fill="none" xmlns="http://www.w3.org/2000/svg">
<g id="rocket-01">
<path id="Vector" d="M11.3179 5.94869L12.6797 4.58692C14.213 3.05359 16.2204 2.41758 18.3449 2.31365C19.1712 2.27323 19.5844 2.25301 19.9157 2.58433C20.247 2.91564 20.2268 3.3288 20.1864 4.15514C20.0824 6.27962 19.4464 8.28705 17.9131 9.82034L16.5513 11.1821C15.4299 12.3036 15.111 12.6225 15.3464 13.8389C15.5788 14.7681 15.8037 15.6679 15.128 16.3436C14.3084 17.1632 13.5608 17.1632 12.7412 16.3436L6.15638 9.75883C5.3368 8.93922 5.33677 8.1916 6.15638 7.372C6.83205 6.69633 7.73187 6.92123 8.66108 7.15356C9.87752 7.389 10.1964 7.07014 11.3179 5.94869Z" stroke="#F57C00" stroke-width="1.375" stroke-linejoin="round"/>
<path id="Vector_2" d="M16.0798 6.41666H16.0888" stroke="#F57C00" stroke-width="1.83333" stroke-linecap="round" stroke-linejoin="round"/>
<path id="Vector_3" d="M2.79169 19.7083L7.37502 15.125" stroke="#F57C00" stroke-width="1.375" stroke-linecap="round"/>
<path id="Vector_4" d="M8.29169 19.7083L10.125 17.875" stroke="#F57C00" stroke-width="1.375" stroke-linecap="round"/>
<path id="Vector_5" d="M2.79169 14.2083L4.62502 12.375" stroke="#F57C00" stroke-width="1.375" stroke-linecap="round"/>
</g>
</svg>
