<svg width="20" height="20" viewBox="0 0 20 20" fill="none" xmlns="http://www.w3.org/2000/svg">
<path d="M9.83409 5.40759L11.0721 4.16961C12.466 2.77568 14.2909 2.19749 16.2223 2.103C16.9735 2.06625 17.3491 2.04788 17.6503 2.34908C17.9515 2.65027 17.9331 3.02587 17.8963 3.77709C17.8018 5.70843 17.2237 7.53336 15.8298 8.92726L14.5918 10.1653C13.5723 11.1848 13.2824 11.4747 13.4964 12.5805C13.7077 13.4253 13.9121 14.2433 13.2978 14.8575C12.5528 15.6026 11.8731 15.6026 11.128 14.8575L5.14182 8.87134C4.39675 8.12624 4.39672 7.44659 5.14182 6.7015C5.75607 6.08725 6.57408 6.29171 7.41882 6.50292C8.52467 6.71695 8.81459 6.42709 9.83409 5.40759Z" stroke="black" stroke-width="1.25" stroke-linejoin="round"/>
<path d="M14.1631 5.83301H14.1706" stroke="black" stroke-width="1.66667" stroke-linecap="round" stroke-linejoin="round"/>
<path d="M2.08301 17.9167L6.24967 13.75" stroke="black" stroke-width="1.25" stroke-linecap="round"/>
<path d="M7.08301 17.9167L8.74967 16.25" stroke="black" stroke-width="1.25" stroke-linecap="round"/>
<path d="M2.08301 12.9167L3.74967 11.25" stroke="black" stroke-width="1.25" stroke-linecap="round"/>
</svg>
