<svg width="193" height="123" viewBox="0 0 193 123" fill="none" xmlns="http://www.w3.org/2000/svg">
<g clip-path="url(#clip0_7163_9648)">
<path d="M167.231 62.7139C168.006 71.4507 166.088 80.2156 161.734 87.8299C157.381 95.4442 150.8 101.543 142.877 105.306L120.975 90.5242C116.29 90.5242 110.174 90.4587 102.955 90.2949C94.5459 90.0983 89.615 89.8635 87.6001 86.7183C86.7064 85.2251 86.2504 83.5109 86.2841 81.7711C86.3712 80.3449 86.8183 78.9641 87.5837 77.7576C85.3057 78.1823 82.9521 77.6939 81.0311 76.3979C79.8492 75.6625 78.9387 74.5623 78.4374 73.2636C77.1651 69.4412 80.7199 64.3739 80.7199 64.3739C75.9529 65.3186 71.6391 62.5337 70.7872 58.8206C70.1866 56.1941 71.3333 53.2782 73.6649 51.3069C71.1476 52.5738 68.4064 52.5137 66.6809 51.0885C65.6696 50.1469 65.0236 48.8781 64.8571 47.5064C64.3111 44.3502 65.8618 41.7456 66.3478 40.9538C68.3628 37.612 72.2124 35.7117 80.3158 33.7241C91.0621 31.0812 96.4297 29.7652 102.753 30.7154C111.921 32.0969 118.665 36.6564 122.755 39.4194C133.163 46.4143 137.848 49.8981 137.848 49.8981C139.604 51.2215 141.501 52.3459 143.505 53.2509C144.744 53.7969 145.689 54.13 146.022 54.2501L167.231 62.7139Z" fill="#FCA490"/>
<path d="M159.296 59.5473C159.296 59.5473 156.67 82.8527 136.1 100.747L149.986 113.251C151.502 114.623 153.469 115.392 155.513 115.412C157.558 115.432 159.539 114.702 161.082 113.361C164.167 110.65 166.975 107.639 169.464 104.373C175.986 95.6914 180.191 85.4933 181.684 74.7384C181.965 72.8246 181.575 70.8726 180.58 69.2142C179.584 67.5557 178.045 66.2932 176.224 65.6412L159.296 59.5473Z" fill="#F57C00"/>
<path d="M118.175 16.5676V95.6357C118.175 98.2294 115.215 100.332 111.562 100.332H17.9198C14.2667 100.332 11.3071 98.2294 11.3071 95.6357V16.6877C11.318 14.0885 14.2667 12.0135 17.9198 12.0135H111.633C115.182 12.0135 118.153 14.023 118.186 16.5403L118.175 16.5676Z" fill="#F57C00"/>
<path d="M118.108 14.4052V17.7634H11.2351V14.4052C11.2351 10.5829 14.6916 7.44855 18.9617 7.44855H110.381C111.615 7.4298 112.835 7.69716 113.947 8.22962C115.06 8.76209 116.033 9.54516 116.792 10.5173C117.642 11.6356 118.104 13.0006 118.108 14.4052Z" fill="#11152C"/>
<path d="M20.9329 10.3374C21.3824 10.3363 21.8221 10.4686 22.1964 10.7175C22.5706 10.9665 22.8626 11.3209 23.0354 11.7359C23.2082 12.1508 23.2539 12.6077 23.1669 13.0487C23.0799 13.4897 22.864 13.895 22.5465 14.2132C22.229 14.5315 21.8243 14.7484 21.3835 14.8364C20.9427 14.9245 20.4857 14.8799 20.0703 14.7081C19.6549 14.5363 19.2998 14.2452 19.05 13.8715C18.8001 13.4978 18.6667 13.0584 18.6667 12.6089C18.6667 12.0074 18.9053 11.4305 19.3301 11.0046C19.755 10.5788 20.3313 10.3388 20.9329 10.3374ZM29.6041 10.3374C30.0534 10.3374 30.4926 10.4706 30.8662 10.7202C31.2397 10.9698 31.5309 11.3246 31.7028 11.7396C31.8747 12.1547 31.9197 12.6115 31.8321 13.0521C31.7444 13.4927 31.5281 13.8975 31.2104 14.2152C30.8927 14.5329 30.4879 14.7492 30.0473 14.8369C29.6067 14.9245 29.1499 14.8795 28.7348 14.7076C28.3198 14.5357 27.965 14.2445 27.7154 13.8709C27.4658 13.4974 27.3326 13.0582 27.3326 12.6089C27.3318 12.3104 27.3901 12.0147 27.504 11.7388C27.6179 11.4629 27.7852 11.2122 27.9963 11.0011C28.2074 10.79 28.4581 10.6227 28.734 10.5088C29.0099 10.3949 29.3056 10.3366 29.6041 10.3374ZM38.27 10.3374C38.7192 10.3374 39.1584 10.4706 39.532 10.7202C39.9055 10.9698 40.1967 11.3246 40.3686 11.7396C40.5405 12.1547 40.5855 12.6115 40.4979 13.0521C40.4102 13.4927 40.1939 13.8975 39.8762 14.2152C39.5585 14.5329 39.1538 14.7492 38.7131 14.8369C38.2725 14.9245 37.8157 14.8795 37.4007 14.7076C36.9856 14.5357 36.6308 14.2445 36.3812 13.8709C36.1316 13.4974 35.9984 13.0582 35.9984 12.6089C35.9977 12.3104 36.0559 12.0147 36.1698 11.7388C36.2837 11.4629 36.451 11.2122 36.6621 11.0011C36.8732 10.79 37.1239 10.6227 37.3998 10.5088C37.6757 10.3949 37.9714 10.3366 38.27 10.3374Z" fill="white"/>
<path d="M140.637 67.099C139.753 68.1911 137.951 70.4026 135.046 71.2926C131.169 72.4885 128.57 69.4852 116.808 63.2056C100.552 54.5234 98.1273 49.0083 97.6959 45.6447C97.4065 43.4605 98.0181 42.6032 98.242 42.3684C100.426 39.6818 106.542 43.7226 116.999 44.3778C118.331 44.4652 119.336 44.3068 121.722 44.3778C124.611 44.4379 128.346 44.5143 131.092 45.0658C133.304 45.5136 140.823 47.0262 143.428 53.1747C145.568 58.2311 143.242 63.8882 140.637 67.099Z" fill="#FCA490"/>
<path d="M135.703 74.547C117.138 66.9023 106.036 57.6959 105.927 57.6195L107.161 56.1506C107.27 56.238 118.137 65.2696 136.435 72.7887L135.703 74.547Z" fill="#D66662"/>
<path d="M62.1585 75.3881H62.0985C61.4085 75.3796 60.7296 75.2145 60.1128 74.9052C59.496 74.5958 58.9576 74.1504 58.5382 73.6025L43.7949 54.2942C43.1188 53.3348 42.8403 52.151 43.0176 50.9908C43.195 49.8307 43.8144 48.7841 44.7461 48.0705C45.6779 47.3568 46.8497 47.0315 48.016 47.1625C49.1823 47.2936 50.2526 47.871 51.0027 48.7736L62.2405 63.4678L85.868 33.932C86.2406 33.4659 86.7013 33.0777 87.2238 32.7896C87.7463 32.5016 88.3205 32.3192 88.9135 32.2531C89.5065 32.1869 90.1067 32.2382 90.6799 32.404C91.2531 32.5698 91.788 32.8468 92.2541 33.2194C92.7202 33.5919 93.1084 34.0526 93.3964 34.5751C93.6845 35.0976 93.8668 35.6718 93.933 36.2648C93.9992 36.8578 93.9479 37.458 93.7821 38.0312C93.6163 38.6044 93.3392 39.1393 92.9667 39.6054L65.7024 73.679C65.2778 74.2115 64.7388 74.6417 64.1254 74.9376C63.5119 75.2335 62.8396 75.3874 62.1585 75.3881Z" fill="white"/>
</g>
<defs>
<clipPath id="clip0_7163_9648">
<rect width="191.118" height="122.861" fill="white" transform="translate(0.941162 0.00050354)"/>
</clipPath>
</defs>
</svg>
