<svg width="20" height="20" viewBox="0 0 20 20" fill="none" xmlns="http://www.w3.org/2000/svg">
<g id="settings-02">
<path id="Vector" d="M12.9167 10C12.9167 11.6108 11.6109 12.9167 10 12.9167C8.38921 12.9167 7.08337 11.6108 7.08337 10C7.08337 8.38918 8.38921 7.08334 10 7.08334C11.6109 7.08334 12.9167 8.38918 12.9167 10Z" stroke="#F57C00" stroke-width="1.25"/>
<path id="Vector_2" d="M17.5091 11.7471C17.944 11.6298 18.1615 11.5712 18.2474 11.459C18.3333 11.3469 18.3333 11.1665 18.3333 10.8058V9.19435C18.3333 8.8336 18.3333 8.65318 18.2474 8.5411C18.1615 8.42893 17.944 8.37026 17.5091 8.253C15.8838 7.81467 14.8665 6.11544 15.286 4.50074C15.4014 4.05667 15.459 3.83465 15.404 3.70442C15.3489 3.5742 15.1909 3.48446 14.8747 3.30498L13.4375 2.48896C13.1273 2.31284 12.9722 2.22478 12.833 2.24353C12.6938 2.26228 12.5368 2.41896 12.2226 2.73229C11.0066 3.94541 8.99463 3.94536 7.77858 2.73221C7.46448 2.41887 7.30744 2.26221 7.16823 2.24345C7.02903 2.2247 6.87393 2.31276 6.56373 2.48887L5.12649 3.30491C4.8104 3.48437 4.65235 3.57411 4.59728 3.70431C4.54219 3.83451 4.59985 4.05657 4.71517 4.50068C5.13443 6.11543 4.11639 7.81471 2.49081 8.25301C2.05589 8.37026 1.83843 8.42893 1.75253 8.54101C1.66663 8.65318 1.66663 8.8336 1.66663 9.19435V10.8058C1.66663 11.1665 1.66663 11.3469 1.75253 11.459C1.83842 11.5712 2.05588 11.6298 2.49081 11.7471C4.11613 12.1854 5.13336 13.8847 4.71389 15.4993C4.59853 15.9434 4.54085 16.1654 4.59593 16.2957C4.65101 16.4259 4.80906 16.5157 5.12517 16.6951L6.56242 17.5112C6.87263 17.6873 7.02774 17.7753 7.16696 17.7566C7.30618 17.7378 7.46319 17.5811 7.77722 17.2678C8.99388 16.0537 11.0073 16.0536 12.224 17.2677C12.538 17.5811 12.695 17.7378 12.8343 17.7565C12.9735 17.7753 13.1286 17.6872 13.4388 17.5111L14.876 16.695C15.1922 16.5156 15.3503 16.4258 15.4053 16.2956C15.4604 16.1653 15.4027 15.9433 15.2873 15.4993C14.8676 13.8847 15.884 12.1855 17.5091 11.7471Z" stroke="#F57C00" stroke-width="1.25" stroke-linecap="round"/>
</g>
</svg>
