<svg width="21" height="20" viewBox="0 0 21 20" fill="none" xmlns="http://www.w3.org/2000/svg">
<g id="unlink-03">
<path id="Vector" d="M8.43604 12.0306L12.5303 7.9364" stroke="#F44336" stroke-width="1.25" stroke-linecap="round"/>
<path id="Vector_2" d="M18.0128 13.3407H16.343M13.8384 17.516V15.8458" stroke="#F44336" stroke-width="1.25" stroke-linecap="round" stroke-linejoin="round"/>
<path id="Vector_3" d="M2.98535 6.66007H4.65513M7.15979 2.48474V4.15487" stroke="#F44336" stroke-width="1.25" stroke-linecap="round" stroke-linejoin="round"/>
<path id="Vector_4" d="M13.089 10.4739C14.039 11.0903 15.0129 10.9258 15.7248 10.2138L18.2202 7.71799C19.0352 6.9027 19.0352 5.58087 18.2202 4.76559L15.7324 2.27731C14.9172 1.46203 13.5958 1.46203 12.7806 2.27731L10.2853 4.77315C9.7005 5.35806 9.36283 6.46975 10.0544 7.42507" stroke="#F44336" stroke-width="1.25" stroke-linecap="round" stroke-linejoin="round"/>
<path id="Vector_5" d="M10.9738 12.5903C11.59 13.5406 11.4255 14.5148 10.7137 15.2268L8.21833 17.7226C7.40323 18.5379 6.08168 18.5379 5.26656 17.7226L2.77882 15.2343C1.9637 14.4191 1.9637 13.0973 2.77882 12.2819L5.27413 9.78609C5.85892 9.20117 6.97037 8.86342 7.92548 9.55517" stroke="#F44336" stroke-width="1.25" stroke-linecap="round" stroke-linejoin="round"/>
</g>
</svg>
