<svg width="23" height="22" viewBox="0 0 23 22" fill="none" xmlns="http://www.w3.org/2000/svg">
<g id="user-group">
<path id="Vector" d="M19.5426 16.4999C20.2294 16.4999 20.7758 16.0677 21.2664 15.4632C22.2705 14.226 20.6218 13.2373 19.993 12.7531C19.3538 12.2608 18.64 11.982 17.9164 11.9165M16.9998 10.0832C18.2654 10.0832 19.2914 9.0572 19.2914 7.79154C19.2914 6.52589 18.2654 5.49988 16.9998 5.49988" stroke="#F57C00" stroke-width="1.375" stroke-linecap="round"/>
<path id="Vector_2" d="M3.45648 16.4999C2.76962 16.4999 2.22329 16.0677 1.73277 15.4632C0.728595 14.226 2.37729 13.2373 3.00611 12.7531C3.64532 12.2608 4.35905 11.982 5.08268 11.9165M5.54101 10.0832C4.27536 10.0832 3.24935 9.0572 3.24935 7.79154C3.24935 6.52589 4.27536 5.49988 5.54101 5.49988" stroke="#F57C00" stroke-width="1.375" stroke-linecap="round"/>
<path id="Vector_3" d="M7.9095 13.8523C6.97287 14.4315 4.51709 15.6141 6.01282 17.0939C6.74348 17.8167 7.55724 18.3337 8.58034 18.3337H14.4184C15.4415 18.3337 16.2552 17.8167 16.9859 17.0939C18.4816 15.6141 16.0258 14.4315 15.0892 13.8523C12.8928 12.4942 10.1059 12.4942 7.9095 13.8523Z" stroke="#F57C00" stroke-width="1.375" stroke-linecap="round" stroke-linejoin="round"/>
<path id="Vector_4" d="M14.7077 6.87539C14.7077 8.6473 13.2713 10.0837 11.4993 10.0837C9.72743 10.0837 8.29102 8.6473 8.29102 6.87539C8.29102 5.10347 9.72743 3.66705 11.4993 3.66705C13.2713 3.66705 14.7077 5.10347 14.7077 6.87539Z" stroke="#F57C00" stroke-width="1.375"/>
</g>
</svg>
