<svg width="20" height="20" viewBox="0 0 20 20" fill="none" xmlns="http://www.w3.org/2000/svg">
<g id="user">
<path id="Vector" d="M5.48131 12.9012C4.30234 13.6032 1.21114 15.0366 3.09389 16.8304C4.01359 17.7065 5.03791 18.3332 6.32573 18.3332H13.6743C14.9621 18.3332 15.9864 17.7065 16.9061 16.8304C18.7888 15.0366 15.6977 13.6032 14.5187 12.9012C11.754 11.2549 8.24599 11.2549 5.48131 12.9012Z" stroke="#F57C00" stroke-width="1.25" stroke-linecap="round" stroke-linejoin="round"/>
<path id="Vector_2" d="M13.75 5.4165C13.75 7.48757 12.0711 9.1665 10 9.1665C7.92893 9.1665 6.25 7.48757 6.25 5.4165C6.25 3.34544 7.92893 1.6665 10 1.6665C12.0711 1.6665 13.75 3.34544 13.75 5.4165Z" stroke="#F57C00" stroke-width="1.25"/>
</g>
</svg>
