<svg width="20" height="20" viewBox="0 0 20 20" fill="none" xmlns="http://www.w3.org/2000/svg">
<g id="user-group">
<path id="Vector" d="M17.3117 15.0001C17.9361 15.0001 18.4327 14.6072 18.8787 14.0577C19.7916 12.933 18.2927 12.0341 17.7212 11.594C17.14 11.1465 16.4912 10.893 15.8333 10.8335M15 9.16679C16.1506 9.16679 17.0833 8.23405 17.0833 7.08346C17.0833 5.93286 16.1506 5.00012 15 5.00012" stroke="#D1D5DB" stroke-width="1.25" stroke-linecap="round"/>
<path id="Vector_2" d="M2.68809 15.0001C2.06368 15.0001 1.56702 14.6072 1.12109 14.0577C0.208202 12.933 1.70702 12.0341 2.27867 11.594C2.85977 11.1465 3.50861 10.893 4.16646 10.8335M4.58313 9.16679C3.43254 9.16679 2.49979 8.23405 2.49979 7.08346C2.49979 5.93286 3.43254 5.00012 4.58313 5.00012" stroke="#D1D5DB" stroke-width="1.25" stroke-linecap="round"/>
<path id="Vector_3" d="M6.73629 12.5932C5.88482 13.1197 3.65229 14.1948 5.01204 15.5401C5.67628 16.1972 6.41606 16.6672 7.34615 16.6672H12.6535C13.5835 16.6672 14.3233 16.1972 14.9875 15.5401C16.3473 14.1948 14.1148 13.1197 13.2633 12.5932C11.2665 11.3586 8.73305 11.3586 6.73629 12.5932Z" stroke="#D1D5DB" stroke-width="1.25" stroke-linecap="round" stroke-linejoin="round"/>
<path id="Vector_4" d="M12.9165 6.25059C12.9165 7.86142 11.6106 9.16726 9.9998 9.16726C8.38896 9.16726 7.08313 7.86142 7.08313 6.25059C7.08313 4.63976 8.38896 3.33392 9.9998 3.33392C11.6106 3.33392 12.9165 4.63976 12.9165 6.25059Z" stroke="#D1D5DB" stroke-width="1.25"/>
</g>
</svg>
