<svg width="12" height="18" viewBox="0 0 12 18" fill="none" xmlns="http://www.w3.org/2000/svg">
<path id="Vector" d="M11.25 9L6.9303 10.9339C6.47167 11.1446 6.2424 11.25 6 11.25C5.7576 11.25 5.52832 11.1446 5.0697 10.9339L0.75 9M11.25 9C11.25 8.60085 11.0209 8.24977 10.5625 7.5477L7.93477 3.52208C7.0548 2.17402 6.61477 1.5 6 1.5C5.38522 1.5 4.9452 2.17402 4.06525 3.52208L1.43747 7.5477C0.979155 8.24977 0.75 8.60085 0.75 9M11.25 9C11.25 9.39915 11.0209 9.75022 10.5625 10.4523L7.93477 14.4779C7.0548 15.826 6.61477 16.5 6 16.5C5.38522 16.5 4.9452 15.826 4.06525 14.4779L1.43747 10.4523C0.979155 9.75022 0.75 9.39915 0.75 9" stroke="#71717A" stroke-width="1.125" stroke-linecap="round" stroke-linejoin="round"/>
</svg>
