<svg width="150" height="150" viewBox="0 0 150 150" fill="none" xmlns="http://www.w3.org/2000/svg">
<g id="wallet 1">
<path id="Vector" d="M51.4152 132.918C51.39 132.919 51.3646 132.919 51.3394 132.918C48.8974 132.696 46.4885 132.198 44.1588 131.433C43.9418 131.362 43.7619 131.208 43.6584 131.005C43.555 130.801 43.5366 130.565 43.6074 130.348C43.6782 130.131 43.8322 129.951 44.0357 129.847C44.2392 129.744 44.4753 129.726 44.6924 129.796C46.8981 130.521 49.1789 130.993 51.491 131.204C51.7186 131.214 51.9331 131.314 52.0872 131.481C52.2413 131.649 52.3224 131.871 52.3128 132.099C52.3031 132.326 52.2034 132.541 52.0356 132.695C51.8678 132.849 51.6457 132.93 51.4181 132.92L51.4152 132.918ZM58.5314 132.557C58.3185 132.557 58.1133 132.478 57.9553 132.336C57.7974 132.193 57.6981 131.997 57.6766 131.785C57.6552 131.573 57.7133 131.362 57.8395 131.19C57.9657 131.019 58.1511 130.9 58.3597 130.858C59.9011 130.55 61.3966 130.045 62.8097 129.358C63.4762 129.027 64.1313 128.689 64.7565 128.356C64.953 128.27 65.1746 128.261 65.3775 128.331C65.5804 128.4 65.75 128.543 65.8528 128.731C65.9556 128.92 65.9842 129.139 65.933 129.348C65.8818 129.556 65.7545 129.738 65.576 129.856C64.9324 130.206 64.2587 130.555 63.5735 130.892C62.0298 131.648 60.3953 132.202 58.7102 132.54C58.6527 132.551 58.5942 132.557 58.5356 132.557H58.5314ZM37.898 128.582C37.7474 128.584 37.5992 128.545 37.4689 128.469C35.3425 127.262 33.3453 125.84 31.5084 124.227C31.3377 124.076 31.2338 123.864 31.2196 123.637C31.2054 123.409 31.282 123.186 31.4327 123.015C31.5833 122.845 31.7955 122.74 32.0227 122.726C32.25 122.712 32.4735 122.788 32.6441 122.939C34.392 124.476 36.2929 125.829 38.3171 126.977C38.4825 127.071 38.612 127.217 38.6855 127.392C38.759 127.567 38.7722 127.762 38.7231 127.945C38.674 128.129 38.5654 128.291 38.4143 128.407C38.2631 128.521 38.0781 128.584 37.888 128.582H37.898ZM71.1789 126.11C70.9992 126.111 70.8237 126.055 70.6774 125.95C70.5311 125.846 70.4212 125.698 70.3634 125.528C70.3055 125.358 70.3026 125.174 70.355 125.002C70.4074 124.83 70.5125 124.679 70.6553 124.57C72.5049 123.173 74.1852 121.566 75.6615 119.779C75.732 119.691 75.8198 119.617 75.9195 119.562C76.0185 119.507 76.128 119.473 76.2405 119.46C76.3538 119.448 76.4678 119.458 76.5765 119.49C76.686 119.522 76.7873 119.575 76.875 119.647C76.9635 119.719 77.0363 119.807 77.0903 119.908C77.1435 120.007 77.1773 120.117 77.1878 120.23C77.199 120.343 77.1878 120.457 77.154 120.565C77.121 120.674 77.0663 120.775 76.9935 120.862C75.4328 122.753 73.6566 124.455 71.701 125.933C71.5512 126.048 71.3677 126.11 71.1789 126.11ZM27.2831 119.158C27.1466 119.159 27.0123 119.126 26.8908 119.065C26.7694 119.002 26.6646 118.912 26.5851 118.801C25.1473 116.804 23.9711 114.631 23.0849 112.336C23.0034 112.123 23.0096 111.887 23.1023 111.679C23.1949 111.471 23.3664 111.308 23.579 111.226C23.7917 111.145 24.0281 111.151 24.2361 111.244C24.4441 111.337 24.6068 111.508 24.6884 111.721C25.5212 113.878 26.6269 115.919 27.9783 117.796C28.07 117.924 28.1246 118.075 28.1361 118.232C28.1476 118.39 28.1155 118.547 28.0434 118.687C27.9713 118.828 27.8619 118.945 27.7272 119.027C27.5926 119.11 27.438 119.153 27.2802 119.153L27.2831 119.158ZM34.4135 115.243C33.3307 115.236 32.253 115.092 31.2066 114.813C30.2754 114.545 29.3904 114.137 28.5819 113.603C28.4865 113.543 28.404 113.464 28.339 113.372C28.2739 113.281 28.2277 113.176 28.2029 113.066C28.1527 112.844 28.1928 112.611 28.3144 112.419C28.436 112.226 28.629 112.09 28.8512 112.039C29.0732 111.99 29.3062 112.03 29.4987 112.151C30.1591 112.591 30.8826 112.93 31.6443 113.152C32.9917 113.516 34.3978 113.608 35.781 113.423C35.8926 113.407 36.0063 113.413 36.1154 113.441C36.2247 113.469 36.3273 113.518 36.4174 113.586C36.5076 113.653 36.5836 113.738 36.6411 113.835C36.6985 113.932 36.7363 114.04 36.7523 114.151C36.7682 114.262 36.762 114.376 36.7341 114.485C36.7062 114.595 36.6569 114.697 36.5894 114.787C36.5218 114.877 36.437 114.953 36.3401 115.011C36.2431 115.069 36.1358 115.106 36.0242 115.122C35.4909 115.201 34.9527 115.241 34.4135 115.243ZM79.9658 115.06C79.8248 115.06 79.6868 115.026 79.5623 114.96C79.4378 114.894 79.332 114.799 79.2533 114.682C79.1753 114.565 79.1265 114.43 79.1115 114.291C79.0973 114.151 79.1175 114.01 79.1708 113.879C80.025 111.733 80.592 109.482 80.8553 107.186C80.8695 107.074 80.9055 106.966 80.961 106.868C81.0165 106.771 81.0908 106.684 81.18 106.615C81.2685 106.546 81.3705 106.495 81.4793 106.465C81.588 106.435 81.7013 106.426 81.813 106.441C81.9248 106.454 82.0328 106.49 82.131 106.546C82.2293 106.601 82.3155 106.676 82.3845 106.765C82.4535 106.854 82.5045 106.955 82.5345 107.064C82.5645 107.173 82.5728 107.286 82.5593 107.398C82.2773 109.843 81.6728 112.24 80.7608 114.526C80.697 114.684 80.5868 114.819 80.445 114.915C80.3033 115.01 80.1368 115.06 79.9658 115.06ZM41.9932 111.728C41.83 111.728 41.6701 111.681 41.5325 111.593C41.3948 111.506 41.2849 111.381 41.2159 111.233C41.1468 111.085 41.1213 110.92 41.1425 110.758C41.1636 110.596 41.2304 110.444 41.3352 110.319C42.654 108.745 43.5352 106.642 43.8842 104.241C43.9225 104.021 44.0453 103.825 44.2262 103.693C44.4073 103.562 44.6323 103.507 44.8535 103.539C45.0747 103.571 45.2745 103.689 45.4106 103.866C45.5466 104.043 45.6081 104.266 45.582 104.488C45.1887 107.206 44.1746 109.6 42.6512 111.421C42.5707 111.517 42.4701 111.594 42.3563 111.647C42.2426 111.7 42.1187 111.728 41.9932 111.728ZM23.6928 109.01C23.5728 109.009 23.4543 108.984 23.3449 108.934C23.2356 108.885 23.1377 108.814 23.0577 108.724C21.4347 106.927 19.9279 105.028 18.5463 103.038C18.4818 102.946 18.4361 102.841 18.4118 102.731C18.3876 102.622 18.3852 102.508 18.405 102.397C18.4247 102.286 18.4661 102.18 18.5267 102.085C18.5874 101.989 18.6663 101.908 18.7586 101.843C18.8511 101.779 18.9553 101.733 19.0654 101.709C19.1754 101.684 19.2892 101.682 19.4002 101.702C19.5112 101.722 19.6172 101.763 19.7122 101.824C19.8072 101.884 19.8892 101.963 19.9538 102.055C20.3352 102.6 20.7195 103.132 21.1067 103.654C21.0394 102.902 21.0051 102.175 21.0051 101.482C20.9972 100.255 21.1156 99.0313 21.3584 97.8283C21.3789 97.7158 21.4215 97.6085 21.4841 97.5125C21.5466 97.4173 21.6276 97.3348 21.7224 97.2703C21.8172 97.2065 21.9239 97.1623 22.0361 97.1398C22.1483 97.118 22.2639 97.118 22.376 97.1413C22.488 97.1645 22.5944 97.2095 22.6887 97.274C22.783 97.3393 22.8635 97.4218 22.9252 97.5185C22.987 97.6145 23.0289 97.7225 23.0485 97.835C23.068 97.9475 23.0648 98.063 23.0391 98.1748C22.8205 99.2623 22.7141 100.369 22.7216 101.478C22.7277 102.654 22.8175 103.828 22.9904 104.991C23.0099 105.126 22.9969 105.263 22.9527 105.392C22.9084 105.521 22.8341 105.637 22.7359 105.732C23.2632 106.375 23.7939 106.989 24.3279 107.575C24.4381 107.698 24.5103 107.851 24.536 108.014C24.5617 108.178 24.5396 108.345 24.4726 108.496C24.4056 108.647 24.2963 108.775 24.1579 108.866C24.0196 108.956 23.858 109.005 23.6928 109.006V109.01ZM81.9795 101C81.756 101 81.5415 100.912 81.381 100.756C81.2205 100.6 81.1275 100.388 81.1215 100.165C81.0645 98.0518 80.9153 95.8648 80.7713 93.7475L80.724 93.0583C80.709 92.831 80.7848 92.606 80.9348 92.435C81.0848 92.2633 81.297 92.1583 81.525 92.1425C81.7523 92.1275 81.9765 92.2033 82.1483 92.354C82.32 92.504 82.425 92.7163 82.44 92.9435L82.4858 93.632C82.629 95.7643 82.7805 97.97 82.8398 100.119C82.8458 100.346 82.761 100.567 82.605 100.732C82.4483 100.897 82.233 100.993 82.0058 101H81.9795ZM44.2489 98.165C44.0808 98.165 43.9164 98.1155 43.776 98.0233C43.6356 97.9303 43.5255 97.799 43.4594 97.6438C42.7013 95.873 41.0964 94.2223 38.9408 92.9938C38.7506 92.8775 38.6132 92.6915 38.5577 92.4755C38.5021 92.2595 38.5328 92.0308 38.6432 91.8373C38.7536 91.643 38.9352 91.4998 39.1493 91.4375C39.3634 91.3753 39.5934 91.3993 39.7904 91.5035C42.2693 92.915 44.1331 94.856 45.0371 96.9688C45.0816 97.0723 45.1051 97.184 45.1065 97.2965C45.1079 97.409 45.0871 97.5215 45.0453 97.6258C45.0034 97.7308 44.9414 97.826 44.8627 97.9063C44.784 97.9873 44.6901 98.0518 44.5865 98.096C44.4796 98.141 44.3648 98.1643 44.2489 98.165ZM15.4838 97.3168C15.3293 97.3168 15.1775 97.2755 15.0446 97.1968C14.9117 97.118 14.8025 97.0048 14.7285 96.869C13.5627 94.7428 12.5318 92.5445 11.6418 90.2893C11.6007 90.1843 11.5808 90.0718 11.583 89.9593C11.5853 89.8468 11.6097 89.735 11.6549 89.6323C11.7002 89.5288 11.7653 89.4358 11.8466 89.357C11.9279 89.279 12.0238 89.2183 12.1288 89.177C12.2338 89.1358 12.3458 89.1163 12.4586 89.1185C12.5713 89.1208 12.6824 89.1448 12.7857 89.1898C12.889 89.2355 12.9824 89.3008 13.0605 89.3818C13.1386 89.4628 13.1999 89.5588 13.241 89.6638C14.1038 91.8508 15.1043 93.9808 16.2362 96.041C16.3091 96.1715 16.3464 96.3193 16.3446 96.4685C16.3427 96.6185 16.3018 96.7655 16.2257 96.8945C16.1496 97.0235 16.0411 97.13 15.911 97.2043C15.7808 97.2785 15.6335 97.3168 15.4838 97.3168ZM25.794 92.8708C25.6131 92.8708 25.4367 92.8138 25.29 92.708C25.1435 92.6015 25.0342 92.4515 24.9779 92.2798C24.9215 92.108 24.921 91.922 24.9765 91.7503C25.0318 91.5778 25.1402 91.427 25.2863 91.3205C27.0542 90.0245 29.3214 89.339 31.8403 89.339C32.0963 89.339 32.3581 89.339 32.617 89.3608C32.8446 89.3735 33.0579 89.4755 33.21 89.6458C33.3621 89.8153 33.4406 90.0388 33.4281 90.266C33.4155 90.494 33.3131 90.707 33.1433 90.8593C32.9735 91.0115 32.7502 91.0895 32.5226 91.0775C32.2952 91.064 32.0648 91.0588 31.8403 91.0588C29.6947 91.0588 27.7737 91.631 26.3019 92.708C26.1549 92.8168 25.9767 92.8745 25.794 92.8738V92.8708ZM81.2475 86.72C81.0195 86.72 80.8013 86.63 80.6408 86.4688C80.4795 86.3083 80.3895 86.0893 80.3895 85.862C80.3895 85.7188 80.3895 85.5763 80.3895 85.433C80.388 83.1455 80.559 80.861 80.9025 78.5998C80.9205 78.4888 80.9603 78.3823 81.0195 78.2863C81.0788 78.1903 81.156 78.107 81.2475 78.0403C81.339 77.9743 81.4425 77.927 81.552 77.9015C81.6615 77.8753 81.7755 77.8708 81.8865 77.8888C81.9983 77.9068 82.1048 77.9465 82.2008 78.0058C82.2968 78.065 82.38 78.1423 82.446 78.2338C82.512 78.3253 82.5593 78.4288 82.5855 78.5383C82.6118 78.6478 82.6155 78.7618 82.5975 78.8728C82.2668 81.0478 82.1018 83.2445 82.1025 85.4443C82.1025 85.5875 82.1025 85.7203 82.1025 85.859C82.104 85.9715 82.0823 86.0833 82.0403 86.1883C81.9983 86.2925 81.9353 86.3878 81.8565 86.468C81.7778 86.5483 81.6833 86.6128 81.5798 86.6563C81.4755 86.7005 81.3645 86.7238 81.252 86.7245L81.2475 86.72ZM10.4216 83.9885C10.2213 83.9878 10.0274 83.9173 9.87355 83.789C9.71965 83.6608 9.61555 83.483 9.57917 83.2858C9.31562 81.9035 9.17207 80.5003 9.15002 79.0933C9.15002 79.0288 9.15002 78.9658 9.15002 78.902C9.1543 77.897 9.22022 76.8943 9.34742 75.8983C9.3613 75.7858 9.39715 75.6778 9.4528 75.5803C9.50845 75.482 9.58285 75.3958 9.67172 75.3268C9.76067 75.257 9.86237 75.206 9.97105 75.176C10.0797 75.146 10.1932 75.1378 10.3051 75.152C10.4169 75.1655 10.5249 75.2015 10.623 75.257C10.721 75.3133 10.8071 75.3875 10.8764 75.476C10.9457 75.5653 10.9967 75.6673 11.0267 75.7753C11.0567 75.884 11.0649 75.998 11.051 76.1098C10.9326 77.0338 10.871 77.9645 10.8665 78.896C10.8665 78.9545 10.8665 79.013 10.8665 79.0723C10.8881 80.3795 11.0226 81.6823 11.2684 82.967C11.2891 83.078 11.2877 83.192 11.2643 83.3023C11.2409 83.4125 11.1959 83.5175 11.132 83.6105C11.0681 83.7035 10.9865 83.783 10.8919 83.8438C10.7972 83.9053 10.6913 83.948 10.5804 83.9683C10.5282 83.9795 10.475 83.9863 10.4216 83.9885ZM83.4375 72.6624C83.3438 72.6619 83.2515 72.6465 83.163 72.6166C82.947 72.5439 82.7693 72.3886 82.668 72.1847C82.5668 71.9808 82.551 71.7451 82.6238 71.5295C83.403 69.2258 84.375 66.9913 85.527 64.8496C85.578 64.7468 85.65 64.6554 85.737 64.5807C85.824 64.506 85.9253 64.4496 86.0348 64.4148C86.1443 64.38 86.2598 64.3675 86.3745 64.3781C86.4885 64.3887 86.5995 64.4221 86.7008 64.4764C86.802 64.5307 86.8913 64.6048 86.9633 64.6942C87.0353 64.7836 87.0885 64.8865 87.12 64.9969C87.1515 65.1074 87.1613 65.223 87.147 65.337C87.1328 65.451 87.096 65.561 87.039 65.6606C85.9328 67.7184 84.9998 69.8647 84.2498 72.0773C84.1928 72.2476 84.0833 72.3956 83.9378 72.5006C83.7923 72.6055 83.6168 72.6621 83.4375 72.6624ZM11.8205 69.906C11.7287 69.9065 11.6374 69.892 11.5503 69.8631C11.3342 69.7915 11.1555 69.6371 11.0532 69.4338C10.9511 69.2305 10.9337 68.9949 11.0052 68.7788C11.7726 66.4705 12.7126 64.2232 13.8174 62.056C13.9219 61.8532 14.1026 61.7003 14.32 61.6308C14.5373 61.5613 14.7732 61.581 14.976 61.6855C15.1787 61.79 15.3317 61.9708 15.4012 62.1881C15.4706 62.4054 15.451 62.6414 15.3464 62.8441C14.2796 64.932 13.3711 67.097 12.6287 69.321C12.5718 69.4906 12.4633 69.6381 12.3184 69.7429C12.1735 69.8479 11.9994 69.9049 11.8205 69.906ZM125.76 65.4074C123.135 65.4074 120.83 64.8467 118.91 63.7381C118.81 63.6829 118.722 63.6084 118.652 63.5189C118.581 63.4294 118.529 63.3267 118.499 63.2168C118.468 63.1069 118.46 62.9921 118.474 62.879C118.488 62.7659 118.525 62.6568 118.582 62.558C118.639 62.4593 118.715 62.3729 118.806 62.3039C118.897 62.2349 119 62.1847 119.111 62.1562C119.221 62.1277 119.336 62.1215 119.449 62.1379C119.562 62.1544 119.67 62.1931 119.768 62.2519C121.529 63.2675 123.69 63.751 126.205 63.6823C126.432 63.6765 126.653 63.7612 126.818 63.9181C126.983 64.0748 127.079 64.2908 127.085 64.5184C127.091 64.7461 127.006 64.9666 126.849 65.1318C126.692 65.2969 126.476 65.3929 126.249 65.3989C126.082 65.406 125.921 65.4074 125.76 65.4074ZM133.211 64.0371C133.01 64.0368 132.817 63.9666 132.663 63.8388C132.509 63.7109 132.405 63.5334 132.368 63.3368C132.332 63.1402 132.365 62.937 132.462 62.7622C132.559 62.5873 132.714 62.452 132.9 62.3793C135.242 61.471 136.976 60.145 138.05 58.4386C138.109 58.3419 138.187 58.258 138.279 58.1917C138.371 58.1254 138.476 58.078 138.587 58.0523C138.697 58.0266 138.812 58.0231 138.923 58.042C139.035 58.0609 139.142 58.1017 139.238 58.1623C139.334 58.2229 139.418 58.3018 139.483 58.3947C139.548 58.4875 139.595 58.5924 139.619 58.7032C139.643 58.8141 139.646 58.9286 139.625 59.0404C139.605 59.152 139.563 59.2587 139.502 59.354C138.224 61.3795 136.211 62.93 133.518 63.9784C133.42 64.0167 133.316 64.0366 133.211 64.0371ZM90.1313 60.0978C89.9723 60.0978 89.8163 60.0534 89.6805 59.9696C89.5448 59.8858 89.4353 59.7659 89.364 59.6234C89.2928 59.4808 89.2628 59.3212 89.277 59.1625C89.2913 59.0038 89.349 58.8521 89.445 58.7246C90.8978 56.7901 92.4705 54.948 94.152 53.209C94.3103 53.0452 94.527 52.9507 94.7543 52.9466C94.9823 52.9424 95.202 53.0289 95.3663 53.1868C95.5298 53.3449 95.6243 53.5615 95.6288 53.7892C95.6325 54.0167 95.5463 54.2367 95.388 54.4006C93.756 56.0881 92.2298 57.8758 90.8198 59.7531C90.7395 59.8601 90.636 59.947 90.516 60.0069C90.3968 60.0667 90.2648 60.0979 90.1313 60.0978ZM114.96 58.4099C114.779 58.4099 114.603 58.3528 114.457 58.2467C114.311 58.1406 114.201 57.991 114.145 57.8192C113.716 56.4821 113.502 55.0853 113.511 53.6811C113.516 52.549 113.635 51.4204 113.867 50.3125C113.888 50.2 113.93 50.0926 113.993 49.9967C114.056 49.9009 114.137 49.8185 114.232 49.7545C114.326 49.6904 114.433 49.646 114.545 49.6237C114.658 49.6015 114.773 49.602 114.885 49.625C114.997 49.6481 115.103 49.6934 115.198 49.7581C115.292 49.8229 115.373 49.9059 115.434 50.0022C115.496 50.0985 115.538 50.2062 115.558 50.3189C115.577 50.4316 115.574 50.5471 115.548 50.6587C115.339 51.6526 115.232 52.6654 115.228 53.6811C115.22 54.904 115.408 56.1202 115.783 57.2842C115.853 57.5005 115.836 57.736 115.733 57.9391C115.631 58.1421 115.451 58.2961 115.235 58.367C115.146 58.3957 115.054 58.4101 114.96 58.4099ZM18.2974 57.2013C18.1385 57.2019 17.9825 57.1583 17.8469 57.0755C17.7113 56.9927 17.6012 56.8739 17.5292 56.7323C17.4571 56.5906 17.4258 56.4318 17.4387 56.2735C17.4515 56.1151 17.5082 55.9633 17.6022 55.8352C19.0236 53.8522 20.6258 52.0053 22.3883 50.3182C22.4694 50.2375 22.5658 50.1738 22.6718 50.1308C22.7779 50.0878 22.8915 50.0665 23.0059 50.0682C23.1203 50.0698 23.2333 50.0942 23.3381 50.1401C23.4429 50.186 23.5375 50.2524 23.6163 50.3354C23.6951 50.4184 23.7565 50.5163 23.7969 50.6233C23.8373 50.7304 23.8559 50.8445 23.8515 50.9588C23.8472 51.0732 23.82 51.1855 23.7716 51.2892C23.7233 51.3929 23.6546 51.4859 23.5697 51.5626C21.8841 53.1766 20.3517 54.9436 18.9926 56.8408C18.9136 56.9517 18.8094 57.0423 18.6884 57.1049C18.5675 57.1676 18.4335 57.2006 18.2974 57.2013ZM139.992 52.8743C139.79 52.8742 139.593 52.8022 139.439 52.6713C139.284 52.5404 139.181 52.359 139.147 52.1591C138.795 50.0994 137.859 47.9824 136.429 46.0371C136.304 45.853 136.256 45.6277 136.293 45.4084C136.331 45.1892 136.453 44.9932 136.632 44.8619C136.812 44.7305 137.036 44.674 137.256 44.7043C137.476 44.7347 137.676 44.8494 137.813 45.0244C139.394 47.1828 140.438 49.5501 140.834 51.8702C140.855 51.9933 140.849 52.1195 140.816 52.2399C140.783 52.3603 140.724 52.4721 140.644 52.5674C140.563 52.6628 140.462 52.7394 140.349 52.7919C140.236 52.8444 140.113 52.8715 139.988 52.8715L139.992 52.8743ZM99.9968 49.789C99.8213 49.7891 99.6495 49.7352 99.5055 49.6345C99.3608 49.5339 99.2513 49.3914 99.1905 49.2262C99.1298 49.0612 99.1215 48.8814 99.1665 48.7114C99.2115 48.5413 99.3075 48.3892 99.4418 48.2756C101.211 46.7823 103.133 45.2962 105.154 43.86C105.339 43.7332 105.567 43.6843 105.788 43.7238C106.01 43.7634 106.207 43.8882 106.337 44.0715C106.468 44.2548 106.52 44.4819 106.485 44.704C106.45 44.926 106.328 45.1253 106.148 45.259C104.165 46.6678 102.286 48.1197 100.549 49.5873C100.394 49.7174 100.199 49.7888 99.9968 49.789ZM28.6949 47.539C28.5051 47.539 28.3207 47.476 28.1705 47.3601C28.0203 47.2441 27.9128 47.0817 27.8647 46.8981C27.8166 46.7146 27.8308 46.5202 27.9049 46.3456C27.979 46.1708 28.1089 46.0256 28.2743 45.9326C30.4283 44.7071 32.7661 43.8377 35.1975 43.3579C35.3092 43.3337 35.4247 43.332 35.5372 43.3531C35.6496 43.3741 35.7567 43.4173 35.8522 43.4803C35.9477 43.5433 36.0296 43.6248 36.0932 43.72C36.1567 43.8151 36.2006 43.9219 36.2222 44.0343C36.2439 44.1466 36.2428 44.2621 36.2192 44.374C36.1956 44.4859 36.1497 44.592 36.0846 44.686C36.0193 44.78 35.936 44.86 35.8394 44.9212C35.7428 44.9826 35.6349 45.0239 35.5221 45.043C33.2719 45.4907 31.1086 46.2982 29.1154 47.4346C28.9865 47.5048 28.8417 47.5407 28.6949 47.539ZM49.1752 47.0369C49.05 47.0371 48.9263 47.0092 48.8133 46.9554C46.7601 45.9796 44.5798 45.2978 42.3365 44.9299C42.1116 44.8947 41.9098 44.7715 41.7757 44.5874C41.6415 44.4034 41.586 44.1736 41.6213 43.9487C41.6566 43.7237 41.7798 43.522 41.9638 43.3879C42.1479 43.2538 42.3776 43.1982 42.6026 43.2335C45.0048 43.6246 47.3402 44.3518 49.5399 45.3934C49.7173 45.4759 49.8612 45.6166 49.9477 45.7921C50.0342 45.9676 50.0582 46.1673 50.0156 46.3582C49.9731 46.5492 49.8665 46.7199 49.7136 46.842C49.5609 46.9642 49.3709 47.0304 49.1752 47.0298V47.0369ZM117.366 44.7483C117.214 44.7484 117.065 44.708 116.933 44.6314C116.802 44.5547 116.693 44.4445 116.618 44.3122C116.544 44.1797 116.506 44.0298 116.507 43.8777C116.51 43.7256 116.552 43.5769 116.631 43.4467C117.91 41.3476 119.442 39.4144 121.194 37.6907C121.356 37.5323 121.574 37.4443 121.8 37.4458C122.027 37.4473 122.243 37.5382 122.403 37.6989C122.563 37.8595 122.652 38.0767 122.653 38.3032C122.653 38.5297 122.564 38.7471 122.404 38.908C120.752 40.5319 119.308 42.3537 118.103 44.332C118.026 44.4581 117.917 44.5621 117.788 44.6341C117.659 44.7059 117.514 44.7433 117.366 44.7426V44.7483ZM131.938 41.5285C131.773 41.5268 131.612 41.4772 131.474 41.3854C129.557 40.1428 127.421 39.2776 125.18 38.8365C125.07 38.8149 124.964 38.7717 124.871 38.7094C124.777 38.6471 124.696 38.5669 124.633 38.4734C124.57 38.3799 124.526 38.2749 124.504 38.1644C124.481 38.0539 124.481 37.9402 124.502 37.8295C124.524 37.7188 124.568 37.6135 124.63 37.5196C124.692 37.4257 124.772 37.3449 124.865 37.282C124.959 37.219 125.064 37.1751 125.174 37.1527C125.285 37.1303 125.399 37.1299 125.51 37.1515C127.962 37.6352 130.299 38.5823 132.397 39.9422C132.553 40.0424 132.673 40.1906 132.737 40.3645C132.803 40.5384 132.809 40.7286 132.757 40.9067C132.704 41.0848 132.596 41.2411 132.447 41.3521C132.299 41.4632 132.118 41.5231 131.932 41.5228L131.938 41.5285ZM111.626 41.4913C111.437 41.4918 111.254 41.4302 111.104 41.3161C110.954 41.2019 110.846 41.0416 110.796 40.8598C110.747 40.678 110.758 40.4849 110.828 40.3103C110.9 40.1356 111.026 39.9892 111.188 39.8935C113.316 38.6138 115.642 37.6991 118.071 37.1872C118.183 37.1619 118.298 37.1591 118.412 37.1791C118.524 37.1992 118.631 37.2415 118.727 37.3036C118.824 37.3658 118.907 37.4467 118.971 37.5412C119.036 37.6359 119.08 37.7424 119.103 37.8547C119.126 37.9669 119.126 38.0824 119.102 38.1946C119.08 38.3068 119.035 38.4133 118.97 38.5078C118.906 38.6024 118.823 38.6831 118.727 38.7452C118.631 38.8073 118.523 38.8495 118.41 38.8694C116.171 39.3421 114.026 40.1857 112.064 41.3654C111.93 41.4451 111.777 41.4868 111.622 41.4856L111.626 41.4913ZM127.332 34.6369C127.154 34.6372 126.98 34.582 126.834 34.4789C126.689 34.3759 126.579 34.2301 126.52 34.0618C126.461 33.8935 126.456 33.7111 126.506 33.5399C126.556 33.3687 126.657 33.2171 126.797 33.1063C128.279 31.9334 128.998 30.3571 128.998 28.2859C128.998 28.027 128.987 27.7567 128.964 27.482C128.954 27.3694 128.967 27.2559 129.002 27.1482C129.036 27.0405 129.092 26.9406 129.164 26.8543C129.238 26.7679 129.327 26.6968 129.428 26.645C129.528 26.5932 129.638 26.5617 129.751 26.5523C129.863 26.5429 129.977 26.5558 130.085 26.5903C130.192 26.6247 130.292 26.68 130.379 26.7531C130.465 26.8261 130.536 26.9155 130.588 27.016C130.64 27.1165 130.671 27.2263 130.68 27.339C130.709 27.6608 130.722 27.9799 130.722 28.2874C130.722 30.8806 129.762 32.9547 127.87 34.4538C127.716 34.5741 127.526 34.6387 127.332 34.6369ZM127.655 21.4887C127.496 21.4891 127.34 21.445 127.204 21.3617C127.068 21.2783 126.959 21.1588 126.887 21.0167C125.829 18.9399 124.58 16.9664 123.155 15.1221C123.084 15.0341 123.032 14.9332 123 14.8249C122.969 14.7167 122.959 14.6032 122.971 14.4912C122.983 14.3791 123.017 14.2705 123.071 14.1715C123.125 14.0727 123.199 13.9855 123.287 13.9148C123.374 13.8442 123.476 13.7916 123.584 13.7599C123.692 13.7284 123.806 13.7183 123.917 13.7305C124.03 13.7428 124.138 13.777 124.237 13.8312C124.336 13.8853 124.424 13.9585 124.494 14.0464C125.996 15.9833 127.311 18.0586 128.42 20.2443C128.486 20.375 128.518 20.5204 128.511 20.6668C128.505 20.8131 128.462 20.9553 128.385 21.08C128.309 21.2047 128.201 21.3078 128.073 21.3793C127.946 21.4509 127.802 21.4885 127.655 21.4887Z" fill="white"/>
<path id="Vector_2" d="M54.5933 65.3708C64.7995 63.3962 71.5525 53.9361 69.6768 44.2411C67.8011 34.5461 58.0068 28.2875 47.8007 30.2621C37.5946 32.2368 30.8415 41.6968 32.7172 51.3918C34.5929 61.0869 44.3872 67.3455 54.5933 65.3708Z" fill="white"/>
<path id="Vector_3" d="M50.8303 66.5921C41.6858 66.5921 33.5927 60.4415 31.8733 51.5558C30.9206 46.6325 32.0421 41.6175 35.0288 37.4336C38.0154 33.2497 42.4839 30.4161 47.6376 29.4234C58.2912 27.3623 68.5571 33.9377 70.5239 44.0835C72.4864 54.2278 65.4146 64.1576 54.7595 66.2188C53.4647 66.468 52.1489 66.593 50.8303 66.5921ZM51.5583 30.758C50.3504 30.7587 49.1453 30.8747 47.9595 31.1042C43.2392 32.0182 39.1426 34.62 36.422 38.4306C33.7013 42.2411 32.693 46.7741 33.554 51.2297C35.3377 60.4443 44.6996 66.4104 54.4248 64.5323C64.1501 62.6543 70.6112 53.6213 68.8303 44.4068C67.274 36.3365 59.9004 30.758 51.5583 30.758Z" fill="white"/>
<path id="Vector_4" d="M51.272 56.2244C48.7274 56.2244 47.0667 54.4464 46.6948 53.0389C46.6475 52.8221 46.686 52.5953 46.8023 52.4062C46.9186 52.2171 47.1036 52.0805 47.3186 52.025C47.5334 51.9695 47.7615 51.9993 47.9549 52.1084C48.1482 52.2174 48.2918 52.3971 48.3554 52.6098C48.5543 53.3665 49.7615 54.8784 52.0573 54.4335C53.4248 54.1689 54.3459 53.6983 54.7922 53.0332C55.1083 52.5626 55.1927 51.9847 55.0497 51.2652C55.0297 51.1608 54.509 48.7363 51.0332 49.2984C47.8376 49.8134 45.9653 48.1441 45.529 46.2588C45.4076 45.67 45.4037 45.0629 45.5177 44.4726C45.6315 43.8822 45.8609 43.3202 46.1927 42.8188C46.6833 42.0635 47.6231 41.1023 49.3396 40.7647C50.6884 40.5029 51.9043 40.6317 52.8583 41.1352C53.3102 41.3633 53.7039 41.6916 54.0094 42.0953C54.3148 42.4989 54.5239 42.967 54.6206 43.4639C54.66 43.6857 54.6107 43.9142 54.483 44.1C54.3554 44.2858 54.1599 44.4139 53.9387 44.4567C53.7174 44.4995 53.4882 44.4536 53.3005 44.3289C53.1128 44.2041 52.9817 44.0105 52.9355 43.79C52.8869 43.5455 52.7822 43.3157 52.6298 43.1183C52.4775 42.9211 52.2815 42.7617 52.0573 42.6528C51.4537 42.3338 50.6269 42.2638 49.6657 42.4497C48.5457 42.6657 47.9492 43.2779 47.6345 43.7528C47.2183 44.3755 47.0642 45.1371 47.2054 45.8726C47.4428 46.8983 48.5185 47.9681 50.7628 47.6048C54.8394 46.9469 56.4543 49.4944 56.7389 50.9333C56.9707 52.1077 56.7962 53.1362 56.2197 53.993C55.5045 55.05 54.2172 55.7652 52.3877 56.12C52.0201 56.1906 51.6464 56.2256 51.272 56.2244Z" fill="black"/>
<path id="Vector_5" d="M52.591 57.3373C52.392 57.337 52.1992 57.2674 52.0458 57.1406C51.8923 57.0138 51.7878 56.8376 51.75 56.6422L48.5545 40.1011C48.5311 39.9897 48.5302 39.8748 48.5518 39.763C48.5732 39.6513 48.6168 39.5449 48.6798 39.4502C48.7427 39.3554 48.8239 39.2741 48.9187 39.211C49.0134 39.1479 49.1197 39.1043 49.2314 39.0826C49.3432 39.061 49.4581 39.0619 49.5694 39.085C49.6809 39.1082 49.7866 39.1534 49.8804 39.2178C49.9742 39.2822 50.0542 39.3646 50.1159 39.4603C50.1775 39.556 50.2195 39.6629 50.2395 39.775L53.4393 56.3103C53.4812 56.5331 53.4333 56.7634 53.306 56.951C53.1787 57.1387 52.9824 57.2683 52.7598 57.3115C52.7046 57.3261 52.648 57.3347 52.591 57.3373ZM106.056 56.2445C101.433 55.9213 53.0357 92.0242 52.8111 96.3367C52.5508 101.359 79.0627 135.05 83.2972 136.21C86.9377 137.212 133.541 99.6869 134.029 96.5887C134.516 93.4904 110.696 56.5678 106.056 56.2445Z" fill="white"/>
<path id="Vector_6" d="M100.225 54.4405C95.604 54.1187 47.2069 90.2187 46.9809 94.5342C46.7191 99.5562 73.2314 133.246 77.4652 134.406C81.1072 135.408 127.709 97.8844 128.197 94.7847C128.685 91.6849 104.867 54.7652 100.225 54.4405Z" fill="#F57C00"/>
<path id="Vector_7" d="M99.9494 90.701C99.6862 90.701 99.4274 90.6912 99.1702 90.671C96.7709 90.485 94.8157 89.4298 93.3584 87.5353C91.5359 85.1653 90.9269 82.5807 91.5547 79.8545C93.5872 70.9974 108.067 63.6652 108.683 63.3562C108.886 63.2583 109.12 63.2442 109.333 63.3169C109.547 63.3897 109.723 63.5435 109.824 63.7451C109.925 63.9468 109.942 64.18 109.873 64.3944C109.803 64.6089 109.652 64.7872 109.452 64.891C109.309 64.964 95.0774 72.1703 93.2279 80.2393C92.7149 82.4735 93.2039 84.5173 94.7204 86.4883C95.8829 88.0018 97.3822 88.8103 99.2977 88.9603C99.5159 88.9775 99.738 88.9842 99.9607 88.9842C107.852 88.9842 118.818 78.6643 118.931 78.557C119.096 78.4003 119.317 78.3155 119.544 78.3208C119.772 78.3268 119.988 78.4227 120.145 78.5877C120.301 78.7527 120.386 78.9733 120.38 79.2013C120.375 79.4285 120.279 79.6445 120.114 79.8013C119.636 80.2595 108.542 90.701 99.9494 90.701Z" fill="white"/>
<path id="Vector_8" d="M101.933 85.0624C101.031 85.0609 100.148 84.8036 99.387 84.3214C98.6258 83.8391 98.0168 83.1514 97.6298 82.3369C97.2428 81.5231 97.095 80.6156 97.2023 79.7209C97.3095 78.8261 97.668 77.9801 98.2358 77.2804C98.8043 76.5806 99.5588 76.0556 100.412 75.7676C101.267 75.4789 102.185 75.4376 103.061 75.6491C103.937 75.8606 104.735 76.3159 105.364 76.9616C105.992 77.6081 106.424 78.4189 106.611 79.3009C106.873 80.5391 106.631 81.8306 105.941 82.8911C105.251 83.9524 104.168 84.6956 102.929 84.9581C102.602 85.0271 102.267 85.0624 101.933 85.0624ZM101.948 77.2309C101.733 77.2316 101.519 77.2541 101.309 77.2984C100.718 77.4236 100.177 77.7214 99.7553 78.1541C99.333 78.5861 99.0495 79.1344 98.9385 79.7284C98.8283 80.3224 98.8965 80.9359 99.1343 81.4909C99.3728 82.0459 99.7695 82.5184 100.277 82.8476C100.783 83.1776 101.375 83.3494 101.98 83.3419C102.584 83.3344 103.172 83.1484 103.67 82.8064C104.169 82.4651 104.555 81.9836 104.779 81.4226C105.004 80.8616 105.057 80.2466 104.932 79.6556C104.786 78.9709 104.411 78.3574 103.868 77.9164C103.325 77.4754 102.647 77.2331 101.948 77.2309Z" fill="white"/>
</g>
</svg>
