<svg width="20" height="20" viewBox="0 0 20 20" fill="none" xmlns="http://www.w3.org/2000/svg">
<g id="wallet-01">
<path id="Vector" d="M13.3334 11.6669C13.3334 12.3572 13.893 12.9169 14.5834 12.9169C15.2737 12.9169 15.8334 12.3572 15.8334 11.6669C15.8334 10.9765 15.2737 10.4169 14.5834 10.4169C13.893 10.4169 13.3334 10.9765 13.3334 11.6669Z" stroke="#D1D5DB" stroke-width="1.25"/>
<path id="Vector_2" d="M8.33341 5.83355H13.3334C15.6904 5.83355 16.8689 5.83355 17.6012 6.56578C18.3334 7.29801 18.3334 8.47655 18.3334 10.8335V12.5002C18.3334 14.8572 18.3334 16.0357 17.6012 16.768C16.8689 17.5002 15.6904 17.5002 13.3334 17.5002H8.33341C5.19071 17.5002 3.61937 17.5002 2.64306 16.5239C1.66675 15.5476 1.66675 13.9762 1.66675 10.8335V9.16688C1.66675 6.02418 1.66675 4.45284 2.64306 3.47652C3.61937 2.50021 5.19071 2.50021 8.33341 2.50021H11.6667C12.4417 2.50021 12.8292 2.50021 13.1472 2.5854C14.0098 2.81656 14.6837 3.49044 14.9149 4.35316C15.0001 4.67108 15.0001 5.05857 15.0001 5.83355" stroke="#D1D5DB" stroke-width="1.25" stroke-linecap="round"/>
</g>
</svg>
