<svg width="20" height="20" viewBox="0 0 20 20" fill="none" xmlns="http://www.w3.org/2000/svg">
<g id="wallet-01">
<path id="Vector" d="M13.3334 11.6667C13.3334 12.357 13.893 12.9167 14.5834 12.9167C15.2737 12.9167 15.8334 12.357 15.8334 11.6667C15.8334 10.9763 15.2737 10.4167 14.5834 10.4167C13.893 10.4167 13.3334 10.9763 13.3334 11.6667Z" stroke="#F57C00" stroke-width="1.25"/>
<path id="Vector_2" d="M8.33329 5.83333H13.3333C15.6903 5.83333 16.8688 5.83333 17.601 6.56557C18.3333 7.2978 18.3333 8.47633 18.3333 10.8333V12.5C18.3333 14.857 18.3333 16.0355 17.601 16.7677C16.8688 17.5 15.6903 17.5 13.3333 17.5H8.33329C5.19059 17.5 3.61925 17.5 2.64293 16.5237C1.66663 15.5474 1.66663 13.976 1.66663 10.8333V9.16667C1.66663 6.02397 1.66663 4.45262 2.64293 3.47631C3.61925 2.5 5.19059 2.5 8.33329 2.5H11.6666C12.4416 2.5 12.8291 2.5 13.147 2.58518C14.0097 2.81635 14.6836 3.49022 14.9148 4.35295C15 4.67087 15 5.05836 15 5.83333" stroke="#F57C00" stroke-width="1.25" stroke-linecap="round"/>
</g>
</svg>
