<svg width="16" height="16" viewBox="0 0 16 16" fill="none" xmlns="http://www.w3.org/2000/svg">
<g id="copy-01">
<path id="Vector" d="M6 9.99985C6 8.11425 6 7.17145 6.58579 6.58563C7.1716 5.99985 8.1144 5.99985 10 5.99985H10.6667C12.5523 5.99985 13.4951 5.99985 14.0809 6.58563C14.6667 7.17145 14.6667 8.11425 14.6667 9.99985V10.6665C14.6667 12.5521 14.6667 13.4949 14.0809 14.0807C13.4951 14.6665 12.5523 14.6665 10.6667 14.6665H10C8.1144 14.6665 7.1716 14.6665 6.58579 14.0807C6 13.4949 6 12.5521 6 10.6665V9.99985Z" stroke="#F57C00" stroke-linecap="round" stroke-linejoin="round"/>
<path id="Vector_2" d="M11.3334 5.99845C11.3318 4.02706 11.302 3.00593 10.7282 2.30674C10.6174 2.17171 10.4936 2.04791 10.3586 1.93709C9.62096 1.33179 8.52516 1.33179 6.33349 1.33179C4.14184 1.33179 3.04602 1.33179 2.30845 1.93709C2.17342 2.0479 2.04962 2.17171 1.9388 2.30674C1.3335 3.04431 1.3335 4.14013 1.3335 6.33179C1.3335 8.52345 1.3335 9.61925 1.9388 10.3569C2.04961 10.4919 2.17342 10.6157 2.30845 10.7265C3.00764 11.3003 4.02877 11.3301 6.00016 11.3317" stroke="#F57C00" stroke-linecap="round" stroke-linejoin="round"/>
</g>
</svg>
