<svg width="148" height="153" viewBox="0 0 148 153" fill="none" xmlns="http://www.w3.org/2000/svg">
<g id="delete-bin-full 1" clip-path="url(#clip0_6781_5563)">
<path id="Vector" fill-rule="evenodd" clip-rule="evenodd" d="M126.416 142.341C126.942 141.8 127.29 141.083 127.362 140.279L136.68 36.0864C136.857 34.1002 135.293 32.3893 133.299 32.3893H30.1915C28.1972 32.3893 26.6327 34.1002 26.8101 36.0864L36.1284 140.279C36.2001 141.083 36.5485 141.8 37.0742 142.342C40.7738 147.539 59.3659 151.492 81.745 151.492C104.124 151.492 122.717 147.539 126.416 142.341Z" fill="#F57C00"/>
<g id="Mask group">
<mask id="mask0_6781_5563" style="mask-type:luminance" maskUnits="userSpaceOnUse" x="26" y="32" width="111" height="120">
<g id="Group">
<path id="Vector_2" fill-rule="evenodd" clip-rule="evenodd" d="M126.416 142.341C126.942 141.8 127.29 141.083 127.362 140.279L136.68 36.0864C136.857 34.1002 135.293 32.3893 133.299 32.3893H30.1915C28.1972 32.3893 26.6327 34.1002 26.8101 36.0864L36.1284 140.279C36.2001 141.083 36.5485 141.8 37.0742 142.342C40.7738 147.539 59.3659 151.492 81.745 151.492C104.124 151.492 122.717 147.539 126.416 142.341Z" fill="white"/>
</g>
</mask>
<g mask="url(#mask0_6781_5563)">
<path id="Vector_3" d="M126.416 142.341L125.959 141.898L125.926 141.933L125.897 141.972L126.416 142.341ZM37.074 142.342L37.5926 141.973L37.5646 141.933L37.5306 141.898L37.074 142.342ZM126.872 142.785C127.496 142.143 127.91 141.29 127.995 140.336L126.728 140.222C126.669 140.876 126.387 141.458 125.959 141.898L126.872 142.785ZM127.995 140.336L137.314 36.1427L136.046 36.0294L126.728 140.222L127.995 140.336ZM137.314 36.1427C137.525 33.7844 135.666 31.7528 133.299 31.7528V33.0257C134.919 33.0257 136.19 34.4158 136.046 36.0294L137.314 36.1427ZM133.299 31.7528H30.1913V33.0257H133.299V31.7528ZM30.1913 31.7528C27.8232 31.7528 25.9651 33.7844 26.176 36.1427L27.4439 36.0294C27.2996 34.4158 28.5708 33.0257 30.1913 33.0257V31.7528ZM26.176 36.1427L35.4943 140.336L36.7622 140.222L27.4439 36.0294L26.176 36.1427ZM35.4943 140.336C35.5796 141.29 35.9933 142.143 36.6175 142.785L37.5306 141.898C37.1029 141.458 36.8203 140.876 36.7622 140.222L35.4943 140.336ZM81.7448 150.855C70.5888 150.855 60.3905 149.87 52.5339 148.243C48.6043 147.429 45.2769 146.458 42.7149 145.378C40.13 144.288 38.4115 143.123 37.5926 141.973L36.5555 142.711C37.5862 144.159 39.5796 145.437 42.2205 146.551C44.8839 147.673 48.2971 148.665 52.2755 149.489C60.2347 151.137 70.5218 152.128 81.7448 152.128V150.855ZM125.897 141.972C125.078 143.123 123.36 144.288 120.775 145.377C118.213 146.458 114.886 147.429 110.956 148.243C103.1 149.87 92.9009 150.855 81.7448 150.855V152.128C92.9679 152.128 103.255 151.137 111.214 149.489C115.193 148.665 118.606 147.673 121.27 146.551C123.91 145.437 125.903 144.159 126.934 142.711L125.897 141.972Z" fill="black"/>
</g>
</g>
<path id="Vector_4" d="M136.354 35.8112C136.354 37.407 134.97 39.0279 132.199 40.5707C129.456 42.0987 125.465 43.4845 120.505 44.6526C110.592 46.9876 96.8804 48.4345 81.724 48.4345C66.5676 48.4345 52.8559 46.9876 42.9427 44.6526C37.9833 43.4845 33.9922 42.0987 31.2486 40.5707C28.4779 39.0279 27.0938 37.407 27.0938 35.8112C27.0938 34.2158 28.4779 32.5949 31.2486 31.0521C33.9922 29.5241 37.9833 28.1379 42.9427 26.9702C52.8559 24.6352 66.5676 23.1879 81.724 23.1879C96.8804 23.1879 110.592 24.6352 120.505 26.9702C125.465 28.1379 129.456 29.5241 132.199 31.0521C134.97 32.5949 136.354 34.2158 136.354 35.8112Z" fill="#FFD789" stroke="black" stroke-width="0.636469"/>
<path id="Vector_5" fill-rule="evenodd" clip-rule="evenodd" d="M121.72 44.5704C130.923 42.2702 136.559 39.1761 136.559 35.7731C136.559 28.6718 112.018 22.9152 81.7451 22.9152C51.4721 22.9152 26.9307 28.6718 26.9307 35.7731C26.9307 39.1761 32.5672 42.2702 41.7697 44.5704C51.7695 42.0712 65.9802 40.5101 81.7451 40.5101C97.51 40.5101 111.721 42.0712 121.72 44.5704Z" fill="black"/>
<g id="Mask group_2">
<mask id="mask1_6781_5563" style="mask-type:luminance" maskUnits="userSpaceOnUse" x="26" y="22" width="111" height="23">
<g id="Group_2">
<path id="Vector_6" fill-rule="evenodd" clip-rule="evenodd" d="M121.72 44.5704C130.923 42.2702 136.559 39.1761 136.559 35.7731C136.559 28.6718 112.018 22.9152 81.7451 22.9152C51.4721 22.9152 26.9307 28.6718 26.9307 35.7731C26.9307 39.1761 32.5672 42.2702 41.7697 44.5704C51.7695 42.0712 65.9802 40.5101 81.7451 40.5101C97.51 40.5101 111.721 42.0712 121.72 44.5704Z" fill="white"/>
</g>
</mask>
<g mask="url(#mask1_6781_5563)">
<path id="Vector_7" d="M121.72 44.5705L121.566 45.1879L121.72 45.2265L121.875 45.1879L121.72 44.5705ZM41.7695 44.5705L41.615 45.1879L41.7695 45.2265L41.9235 45.1879L41.7695 44.5705ZM135.923 35.7732C135.923 37.1043 134.803 38.5648 132.271 40.035C129.786 41.4785 126.142 42.8092 121.566 43.9531L121.875 45.1879C126.501 44.0316 130.276 42.6653 132.91 41.1357C135.497 39.6332 137.196 37.8451 137.196 35.7732H135.923ZM81.7448 23.5518C96.8474 23.5518 110.5 24.9885 120.359 27.301C125.294 28.4585 129.243 29.8273 131.943 31.3247C133.293 32.0736 134.301 32.8387 134.966 33.6003C135.627 34.3577 135.923 35.0816 135.923 35.7732H137.196C137.196 34.6895 136.725 33.6801 135.925 32.7636C135.129 31.8509 133.984 31.001 132.56 30.2118C129.713 28.6325 125.634 27.231 120.65 26.0616C110.67 23.7206 96.9153 22.2788 81.7448 22.2788V23.5518ZM27.5669 35.7732C27.5669 35.0816 27.8631 34.3577 28.5237 33.6003C29.1882 32.8387 30.1968 32.0736 31.5469 31.3247C34.2468 29.8273 38.1959 28.4585 43.1307 27.301C52.99 24.9885 66.6423 23.5518 81.7448 23.5518V22.2788C66.5744 22.2788 52.8194 23.7206 42.84 26.0616C37.8552 27.231 33.7771 28.6325 30.9296 30.2118C29.506 31.001 28.3604 31.8509 27.5648 32.7636C26.7649 33.6801 26.2939 34.6895 26.2939 35.7732H27.5669ZM41.9235 43.9531C37.3477 42.8092 33.7037 41.4785 31.2185 40.035C28.6871 38.5648 27.5669 37.1043 27.5669 35.7732H26.2939C26.2939 37.8451 27.9925 39.6332 30.5795 41.1357C33.2132 42.6653 36.9883 44.0316 41.615 45.1879L41.9235 43.9531ZM41.9235 45.1879C51.8584 42.7048 66.0143 41.1467 81.7448 41.1467V39.8738C65.9451 39.8738 51.6797 41.4374 41.615 43.9531L41.9235 45.1879ZM81.7448 41.1467C97.4754 41.1467 111.631 42.7048 121.566 45.1879L121.875 43.9531C111.809 41.4374 97.5441 39.8738 81.7448 39.8738V41.1467Z" fill="black"/>
</g>
</g>
<path id="Vector_8" d="M75.89 66.1495C75.89 62.8102 78.5971 60.1031 81.9365 60.1031C85.2758 60.1031 87.9829 62.8102 87.9829 66.1495V125.978C87.9829 129.317 85.2758 132.024 81.9365 132.024C78.5971 132.024 75.89 129.317 75.89 125.978V66.1495Z" fill="#FFD789" stroke="black" stroke-width="0.636469"/>
<path id="Vector_9" fill-rule="evenodd" clip-rule="evenodd" d="M75.6543 123.069V126.228C75.6543 129.716 78.4823 132.543 81.9706 132.543C85.4589 132.543 88.2865 129.716 88.2865 126.228V123.071C88.2857 126.559 85.458 129.386 81.9706 129.386C78.4823 129.386 75.6543 126.558 75.6543 123.069Z" fill="black"/>
<g id="Mask group_3">
<mask id="mask2_6781_5563" style="mask-type:luminance" maskUnits="userSpaceOnUse" x="75" y="123" width="14" height="10">
<g id="Group_3">
<path id="Vector_10" fill-rule="evenodd" clip-rule="evenodd" d="M75.6543 123.069V126.228C75.6543 129.716 78.4823 132.543 81.9706 132.543C85.4589 132.543 88.2865 129.716 88.2865 126.228V123.071C88.2857 126.559 85.458 129.386 81.9706 129.386C78.4823 129.386 75.6543 126.558 75.6543 123.069Z" fill="white"/>
</g>
</mask>
<g mask="url(#mask2_6781_5563)">
<path id="Vector_11" d="M88.2863 123.071H88.9227H87.6498H88.2863ZM75.0176 123.069V126.228H76.2905V123.069H75.0176ZM75.0176 126.228C75.0176 130.067 78.1303 133.18 81.9704 133.18V131.907C78.8334 131.907 76.2905 129.365 76.2905 126.228H75.0176ZM81.9704 133.18C85.81 133.18 88.9227 130.067 88.9227 126.228H87.6498C87.6498 129.365 85.1069 131.907 81.9704 131.907V133.18ZM88.9227 126.228V123.071H87.6498V126.228H88.9227ZM81.9704 130.022C85.8095 130.022 88.9219 126.91 88.9227 123.072L87.6498 123.071C87.6489 126.207 85.1065 128.749 81.9704 128.749V130.022ZM75.0176 123.069C75.0176 126.91 78.1303 130.022 81.9704 130.022V128.749C78.8334 128.749 76.2905 126.206 76.2905 123.069H75.0176Z" fill="black"/>
</g>
</g>
<path id="Vector_12" d="M56.0846 62.5942C55.8262 59.5069 53.2451 57.1329 50.1476 57.1329C46.661 57.1329 43.9191 60.1137 44.2102 63.588L49.2328 123.593C49.4912 126.68 52.0723 129.054 55.1702 129.054C58.6567 129.054 61.3982 126.074 61.1072 122.599L56.0846 62.5942Z" fill="#FFD789" stroke="black" stroke-width="0.636469"/>
<path id="Vector_13" fill-rule="evenodd" clip-rule="evenodd" d="M47.4322 57.3032C47.0079 58.2443 46.8085 59.3047 46.9014 60.413L51.9363 120.46C52.21 123.72 54.9362 126.228 58.2085 126.228C59.1314 126.228 60.005 126.03 60.7913 125.676C59.8094 127.851 57.6217 129.386 55.0503 129.386C51.778 129.386 49.0518 126.879 48.7786 123.618L43.7437 63.5711C43.5128 60.8203 45.0815 58.3627 47.4322 57.3032Z" fill="black"/>
<g id="Mask group_4">
<mask id="mask3_6781_5563" style="mask-type:luminance" maskUnits="userSpaceOnUse" x="43" y="57" width="18" height="73">
<g id="Group_4">
<path id="Vector_14" fill-rule="evenodd" clip-rule="evenodd" d="M47.4322 57.3032C47.0079 58.2443 46.8085 59.3047 46.9014 60.413L51.9363 120.46C52.21 123.72 54.9362 126.228 58.2085 126.228C59.1314 126.228 60.005 126.03 60.7913 125.676C59.8094 127.851 57.6217 129.386 55.0503 129.386C51.778 129.386 49.0518 126.879 48.7786 123.618L43.7437 63.5711C43.5128 60.8203 45.0815 58.3627 47.4322 57.3032Z" fill="white"/>
</g>
</mask>
<g mask="url(#mask3_6781_5563)">
<path id="Vector_15" d="M47.4321 57.3031L48.0126 57.5649L48.7046 56.0319L47.1707 56.7231L47.4321 57.3031ZM60.7912 125.676L61.3716 125.937L62.0633 124.404L60.5298 125.096L60.7912 125.676ZM46.8521 57.0413C46.3841 58.0783 46.1651 59.2473 46.2669 60.4664L47.5356 60.3599C47.452 59.3623 47.6311 58.4097 48.0126 57.5649L46.8521 57.0413ZM46.2669 60.4664L51.3023 120.513L52.5705 120.406L47.5356 60.3599L46.2669 60.4664ZM51.3023 120.513C51.6031 124.103 54.6051 126.864 58.2084 126.864V125.591C55.267 125.591 52.8162 123.338 52.5705 120.406L51.3023 120.513ZM58.2084 126.864C59.2233 126.864 60.1861 126.646 61.053 126.256L60.5298 125.096C59.8242 125.413 59.0396 125.591 58.2084 125.591V126.864ZM55.0502 130.022C57.8829 130.022 60.2913 128.331 61.3716 125.937L60.2111 125.414C59.3277 127.372 57.3606 128.749 55.0502 128.749V130.022ZM48.1441 123.671C48.4454 127.261 51.4474 130.022 55.0502 130.022V128.749C52.1089 128.749 49.6585 126.495 49.4124 123.565L48.1441 123.671ZM43.1092 63.6241L48.1441 123.671L49.4124 123.565L44.3775 63.518L43.1092 63.6241ZM47.1707 56.7231C44.5837 57.8887 42.855 60.5941 43.1092 63.6241L44.3775 63.518C44.1704 61.0468 45.5787 58.8362 47.6939 57.8836L47.1707 56.7231Z" fill="black"/>
</g>
</g>
<path id="Vector_16" d="M108.212 62.5942C108.471 59.5069 111.052 57.1329 114.15 57.1329C117.636 57.1329 120.378 60.1137 120.087 63.588L115.064 123.593C114.806 126.68 112.225 129.054 109.127 129.054C105.641 129.054 102.899 126.074 103.19 122.599L108.212 62.5942Z" fill="#FFD789" stroke="black" stroke-width="0.636469"/>
<path id="Vector_17" fill-rule="evenodd" clip-rule="evenodd" d="M103.374 125.676C104.356 127.851 106.544 129.386 109.115 129.386C112.387 129.386 115.113 126.879 115.387 123.618L120.422 63.5711C120.652 60.8203 119.084 58.3627 116.733 57.3032C117.157 58.2443 117.357 59.3047 117.264 60.413L112.229 120.46C111.955 123.72 109.229 126.228 105.957 126.228C105.034 126.228 104.16 126.03 103.374 125.676Z" fill="black"/>
<g id="Mask group_5">
<mask id="mask4_6781_5563" style="mask-type:luminance" maskUnits="userSpaceOnUse" x="103" y="57" width="18" height="73">
<g id="Group_5">
<path id="Vector_18" fill-rule="evenodd" clip-rule="evenodd" d="M103.374 125.676C104.356 127.851 106.544 129.386 109.115 129.386C112.387 129.386 115.113 126.879 115.387 123.618L120.422 63.5711C120.652 60.8203 119.084 58.3627 116.733 57.3032C117.157 58.2443 117.357 59.3047 117.264 60.413L112.229 120.46C111.955 123.72 109.229 126.228 105.957 126.228C105.034 126.228 104.16 126.03 103.374 125.676Z" fill="white"/>
</g>
</mask>
<g mask="url(#mask4_6781_5563)">
<path id="Vector_19" d="M103.374 125.676L103.635 125.096L102.102 124.404L102.794 125.937L103.374 125.676ZM116.733 57.3031L116.995 56.7231L115.461 56.0319L116.153 57.5649L116.733 57.3031ZM109.115 128.749C106.805 128.749 104.838 127.372 103.954 125.414L102.794 125.937C103.874 128.331 106.282 130.022 109.115 130.022V128.749ZM114.752 123.565C114.507 126.495 112.056 128.749 109.115 128.749V130.022C112.718 130.022 115.72 127.261 116.021 123.671L114.752 123.565ZM119.788 63.518L114.752 123.565L116.021 123.671L121.056 63.6241L119.788 63.518ZM116.471 57.8836C118.586 58.8362 119.995 61.0468 119.788 63.518L121.056 63.6241C121.31 60.5941 119.581 57.8887 116.995 56.7231L116.471 57.8836ZM116.153 57.5649C116.534 58.4097 116.713 59.3623 116.63 60.3599L117.898 60.4664C118 59.2473 117.781 58.0783 117.313 57.0413L116.153 57.5649ZM116.63 60.3599L111.595 120.406L112.863 120.513L117.898 60.4664L116.63 60.3599ZM111.595 120.406C111.349 123.338 108.898 125.591 105.957 125.591V126.864C109.56 126.864 112.562 124.103 112.863 120.513L111.595 120.406ZM105.957 125.591C105.126 125.591 104.341 125.413 103.635 125.096L103.112 126.256C103.979 126.646 104.942 126.864 105.957 126.864V125.591Z" fill="black"/>
</g>
</g>
<path id="Vector_20" fill-rule="evenodd" clip-rule="evenodd" d="M79.384 16.1974L116.706 6.19724L120.208 19.2703L120.184 19.2771C121.248 26.8159 97.318 39.502 65.9931 47.8953C34.6678 56.2886 7.60088 57.2675 4.7526 50.207L4.72854 50.2133L4.62824 49.8386C4.62628 49.8319 4.62437 49.8246 4.62246 49.8174C4.62055 49.8106 4.61869 49.8034 4.61682 49.7962L1.22559 37.1398L38.5469 27.1396C44.7439 24.8755 51.5431 22.7234 58.7318 20.797C65.9205 18.871 72.8852 17.335 79.384 16.1974Z" fill="#F57C00"/>
<g id="Mask group_6">
<mask id="mask5_6781_5563" style="mask-type:luminance" maskUnits="userSpaceOnUse" x="1" y="6" width="120" height="49">
<g id="Group_6">
<path id="Vector_21" fill-rule="evenodd" clip-rule="evenodd" d="M79.384 16.1974L116.706 6.19724L120.208 19.2703L120.184 19.2771C121.248 26.8159 97.318 39.502 65.9931 47.8953C34.6678 56.2886 7.60088 57.2675 4.7526 50.207L4.72854 50.2133L4.62824 49.8386C4.62628 49.8319 4.62437 49.8246 4.62246 49.8174C4.62055 49.8106 4.61869 49.8034 4.61682 49.7962L1.22559 37.1398L38.5469 27.1396C44.7439 24.8755 51.5431 22.7234 58.7318 20.797C65.9205 18.871 72.8852 17.335 79.384 16.1974Z" fill="white"/>
</g>
</mask>
<g mask="url(#mask5_6781_5563)">
<path id="Vector_22" d="M79.3842 16.1975L79.4941 16.8247L79.5217 16.8196L79.5488 16.8124L79.3842 16.1975ZM116.706 6.19733L117.321 6.03269L117.156 5.41782L116.541 5.58254L116.706 6.19733ZM120.209 19.2704L120.374 19.8852L120.988 19.7206L120.823 19.1058L120.209 19.2704ZM120.184 19.2772L120.02 18.6624L119.476 18.8079L119.554 19.3659L120.184 19.2772ZM4.75281 50.207L5.34307 49.9686L5.13231 49.4462L4.58809 49.5922L4.75281 50.207ZM4.72875 50.2134L4.11396 50.378L4.27868 50.9929L4.89347 50.8282L4.72875 50.2134ZM4.62844 49.8387L5.24323 49.6741L5.24212 49.6703L4.62844 49.8387ZM4.61703 49.7963L5.23292 49.6355L5.23181 49.6317L4.61703 49.7963ZM1.22579 37.1399L1.06107 36.5255L0.446289 36.6901L0.611007 37.305L1.22579 37.1399ZM38.5471 27.1397L38.7121 27.7545L38.7393 27.7473L38.7656 27.7376L38.5471 27.1397ZM79.5488 16.8124L116.87 6.81216L116.541 5.58254L79.2195 15.5827L79.5488 16.8124ZM116.091 6.36196L119.594 19.4355L120.823 19.1058L117.321 6.03269L116.091 6.36196ZM120.044 18.6556L120.02 18.6624L120.349 19.892L120.374 19.8852L120.044 18.6556ZM119.554 19.3659C119.662 20.1267 119.462 21.0067 118.892 22.0136C118.323 23.0209 117.403 24.1169 116.14 25.2808C113.613 27.6086 109.797 30.1336 104.937 32.7033C95.225 37.8383 81.4582 43.0926 65.8282 47.2805L66.1579 48.5102C81.8528 44.3048 95.7139 39.0196 105.532 33.8286C110.438 31.2347 114.362 28.6503 117.002 26.2168C118.322 25.0003 119.343 23.8025 120 22.6403C120.658 21.4777 120.974 20.3121 120.815 19.1881L119.554 19.3659ZM65.8282 47.2805C50.1987 51.4685 35.649 53.8014 24.6703 54.2104C19.1768 54.4154 14.609 54.137 11.2578 53.3839C9.58178 53.0075 8.23756 52.5183 7.24 51.9306C6.24372 51.3433 5.63041 50.681 5.34307 49.9686L4.16259 50.4451C4.58728 51.4978 5.44304 52.3494 6.5942 53.0274C7.74451 53.7051 9.22706 54.2325 10.9786 54.6258C14.4822 55.4129 19.1729 55.6892 24.7179 55.4825C35.8162 55.0692 50.4626 52.7156 66.1579 48.5102L65.8282 47.2805ZM4.58809 49.5922L4.56403 49.5986L4.89347 50.8282L4.91757 50.8214L4.58809 49.5922ZM5.34353 50.0488L5.24323 49.6741L4.01366 50.0038L4.11396 50.378L5.34353 50.0488ZM5.24212 49.6703C5.24055 49.6643 5.23898 49.6588 5.23746 49.6529L4.00788 49.9826C4.01013 49.9906 4.01242 49.9991 4.01476 50.0076L5.24212 49.6703ZM5.23746 49.6529C5.23589 49.6474 5.23444 49.641 5.23292 49.6355L4.00118 49.9571C4.00339 49.9656 4.00564 49.9741 4.00788 49.9826L5.23746 49.6529ZM5.23181 49.6317L1.84058 36.9753L0.611007 37.305L4.00224 49.9609L5.23181 49.6317ZM1.39051 37.7547L38.7121 27.7545L38.3824 26.5253L1.06107 36.5255L1.39051 37.7547ZM38.7656 27.7376C44.9444 25.4802 51.7254 23.3336 58.8971 21.4119L58.5674 20.1822C51.3617 22.1133 44.5443 24.2709 38.329 26.5418L38.7656 27.7376ZM58.8971 21.4119C66.0684 19.4906 73.0144 17.9588 79.4941 16.8247L79.2747 15.5708C72.756 16.7118 65.7735 18.2516 58.5674 20.1822L58.8971 21.4119Z" fill="black"/>
</g>
</g>
<path id="Vector_23" d="M116.398 6.27949C116.623 7.11708 116.487 8.05567 115.977 9.09353C115.465 10.1344 114.586 11.2571 113.356 12.4422C110.898 14.812 107.089 17.3842 102.203 20.0005C92.4369 25.2301 78.4312 30.6024 62.5029 34.8701C46.5751 39.1383 31.7598 41.4885 20.6869 41.8428C15.1475 42.0198 10.5628 41.6969 7.24893 40.8737C5.59178 40.4621 4.26864 39.9292 3.30545 39.2838C2.34451 38.6401 1.75756 37.8954 1.5331 37.0579C1.30868 36.2198 1.44467 35.2817 1.95491 34.2434C2.46633 33.203 3.34581 32.0798 4.57513 30.8951C7.03338 28.5249 10.8424 25.9532 15.728 23.3369C25.4948 18.1068 39.5001 12.735 55.4284 8.46725C71.3566 4.19913 86.1715 1.84865 97.2448 1.49452C102.784 1.31732 107.368 1.64048 110.682 2.46361C112.34 2.87523 113.663 3.40796 114.626 4.05342C115.587 4.69731 116.174 5.44194 116.398 6.27949Z" fill="#F57C00" stroke="black" stroke-width="0.636469"/>
<path id="Vector_24" d="M107.247 8.73175C107.394 9.28038 107.266 9.92703 106.812 10.6819C106.357 11.4372 105.593 12.2688 104.531 13.1603C102.408 14.942 99.1534 16.915 94.999 18.956C86.6947 23.0353 74.8556 27.357 61.452 30.9483C48.0483 34.5397 35.6347 36.7169 26.4029 37.3364C21.7847 37.6461 17.9794 37.5646 15.2503 37.083C13.8848 36.842 12.8071 36.5039 12.0357 36.077C11.2647 35.6506 10.831 35.1541 10.6842 34.6055C10.537 34.0573 10.6643 33.4106 11.1187 32.6553C11.5736 31.9001 12.3373 31.0684 13.3998 30.1769C15.5222 28.3952 18.7771 26.4222 22.932 24.3812C31.2362 20.3019 43.0754 15.9807 56.479 12.3889C69.8826 8.79751 82.2963 6.62037 91.5277 6.00129C96.1459 5.69121 99.9511 5.77251 102.681 6.25419C104.046 6.49519 105.124 6.83337 105.895 7.26023C106.666 7.68667 107.1 8.18311 107.247 8.73175Z" fill="#F57C00" stroke="black" stroke-width="0.636469"/>
<path id="Vector_25" fill-rule="evenodd" clip-rule="evenodd" d="M105.15 13.0505C107.018 11.3864 107.886 9.88643 107.554 8.64913C106.134 3.34832 83.2288 4.88022 56.394 12.0708C29.5592 19.2608 8.95667 29.387 10.3768 34.6875C10.7082 35.9248 12.2107 36.79 14.6599 37.2974C14.502 37.0904 14.39 36.8676 14.3263 36.6296C13.0246 31.7708 32.2905 22.3867 57.3584 15.6698C82.4264 8.95294 103.803 7.44663 105.105 12.3054C105.169 12.5435 105.184 12.7921 105.15 13.0505Z" fill="black"/>
<g id="Mask group_7">
<mask id="mask6_6781_5563" style="mask-type:luminance" maskUnits="userSpaceOnUse" x="10" y="5" width="98" height="33">
<g id="Group_7">
<path id="Vector_26" fill-rule="evenodd" clip-rule="evenodd" d="M105.15 13.0505C107.018 11.3864 107.886 9.88643 107.554 8.64913C106.134 3.34832 83.2288 4.88022 56.394 12.0708C29.5592 19.2608 8.95667 29.387 10.3768 34.6875C10.7082 35.9248 12.2107 36.79 14.6599 37.2974C14.502 37.0904 14.39 36.8676 14.3263 36.6296C13.0246 31.7708 32.2905 22.3867 57.3584 15.6698C82.4264 8.95294 103.803 7.44663 105.105 12.3054C105.169 12.5435 105.184 12.7921 105.15 13.0505Z" fill="white"/>
</g>
</mask>
<g mask="url(#mask6_6781_5563)">
<path id="Vector_27" d="M105.15 13.0505L104.519 12.9699L104.304 14.6583L105.574 13.5258L105.15 13.0505ZM14.6599 37.2975L14.5309 37.9208L16.1976 38.2662L15.1665 36.9122L14.6599 37.2975ZM106.939 8.81378C107.049 9.22154 106.98 9.73284 106.62 10.3812C106.259 11.0321 105.633 11.7683 104.727 12.5753L105.574 13.5258C106.536 12.6687 107.277 11.8226 107.734 10.9981C108.192 10.1712 108.391 9.31404 108.169 8.48451L106.939 8.81378ZM56.5586 12.6852C69.9487 9.09765 82.3411 6.92644 91.547 6.31076C96.1551 6.00271 99.9314 6.08672 102.624 6.56323C103.972 6.80169 105.012 7.13223 105.74 7.53617C106.468 7.93927 106.823 8.37759 106.939 8.81378L108.169 8.48451C107.931 7.59515 107.259 6.92219 106.357 6.42235C105.457 5.92336 104.264 5.56045 102.846 5.30955C100.006 4.80708 96.1122 4.72965 91.4622 5.04062C82.1515 5.6633 69.6741 7.85314 56.2294 11.456L56.5586 12.6852ZM10.9917 34.5229C10.8746 34.0867 10.9624 33.53 11.3914 32.8167C11.8204 32.103 12.5553 31.2968 13.6038 30.416C15.6973 28.6572 18.9255 26.696 23.0706 24.6589C31.3506 20.5893 43.1686 16.2732 56.5586 12.6852L56.2294 11.456C42.7842 15.0584 30.8835 19.4004 22.5088 23.5166C18.3264 25.5724 14.993 27.5862 12.7848 29.4413C11.682 30.3676 10.8309 31.2786 10.3001 32.1612C9.76925 33.0442 9.52399 33.9632 9.76203 34.8526L10.9917 34.5229ZM14.7893 36.6746C13.6012 36.428 12.6902 36.1039 12.052 35.7207C11.4164 35.3393 11.1007 34.9306 10.9917 34.5229L9.76203 34.8526C9.98437 35.6821 10.5856 36.3249 11.3965 36.8121C12.2044 37.2975 13.2694 37.6594 14.5309 37.9208L14.7893 36.6746ZM15.1665 36.9122C15.0545 36.7654 14.9819 36.6169 14.9412 36.465L13.7115 36.7947C13.7985 37.1184 13.9496 37.415 14.1537 37.6832L15.1665 36.9122ZM14.9412 36.465C14.8402 36.0886 14.9162 35.5938 15.3159 34.9425C15.716 34.2912 16.4013 33.5516 17.3818 32.7399C19.3396 31.1186 22.3573 29.3064 26.2326 27.4186C33.9733 23.6482 45.0165 19.6359 57.5231 16.2847L57.1938 15.055C44.6329 18.4206 33.5087 22.4588 25.675 26.2742C21.7629 28.1798 18.6416 30.0443 16.5697 31.7593C15.5357 32.6156 14.7337 33.4583 14.2313 34.2768C13.7285 35.0949 13.4871 35.9562 13.7115 36.7947L14.9412 36.465ZM57.5231 16.2847C70.0301 12.9334 81.5999 10.887 90.1888 10.2815C94.4888 9.97852 98.0085 10.0396 100.514 10.4644C101.77 10.6769 102.733 10.9752 103.405 11.3393C104.077 11.7034 104.39 12.0937 104.491 12.4705L105.72 12.1408C105.495 11.3028 104.856 10.6774 104.011 10.22C103.167 9.76254 102.051 9.4337 100.727 9.20924C98.0755 8.75989 94.44 8.70601 90.0997 9.01194C81.4076 9.62422 69.7548 11.6893 57.1938 15.055L57.5231 16.2847ZM104.491 12.4705C104.531 12.622 104.542 12.787 104.519 12.9699L105.782 13.1312C105.825 12.7968 105.807 12.4646 105.72 12.1408L104.491 12.4705Z" fill="black"/>
</g>
</g>
<path id="Vector_28" fill-rule="evenodd" clip-rule="evenodd" d="M66.6458 16.3414L49.6504 20.8955L51.2853 26.9963L51.41 26.9628C52.3032 27.5309 55.9421 27.1698 60.1381 26.0454C64.3342 24.9214 67.6663 23.4143 68.1559 22.4757L68.2803 22.4421L68.2073 22.1702C68.2073 22.1693 68.2069 22.1685 68.2069 22.1676C68.2064 22.1668 68.2064 22.1659 68.206 22.1651L66.6458 16.3414Z" fill="#F57C00"/>
<g id="Mask group_8">
<mask id="mask7_6781_5563" style="mask-type:luminance" maskUnits="userSpaceOnUse" x="49" y="16" width="20" height="12">
<g id="Group_8">
<path id="Vector_29" fill-rule="evenodd" clip-rule="evenodd" d="M66.6458 16.3414L49.6504 20.8955L51.2853 26.9963L51.41 26.9628C52.3032 27.5309 55.9421 27.1698 60.1381 26.0454C64.3342 24.9214 67.6663 23.4143 68.1559 22.4757L68.2803 22.4421L68.2073 22.1702C68.2073 22.1693 68.2069 22.1685 68.2069 22.1676C68.2064 22.1668 68.2064 22.1659 68.206 22.1651L66.6458 16.3414Z" fill="white"/>
</g>
</mask>
<g mask="url(#mask7_6781_5563)">
<path id="Vector_30" d="M49.6506 20.8957L49.4859 20.2808L48.8711 20.4455L49.0357 21.0603L49.6506 20.8957ZM66.646 16.3415L67.2608 16.1769L67.0957 15.5621L66.4809 15.7267L66.646 16.3415ZM51.2854 26.9964L50.6706 27.1611L50.8352 27.7759L51.4501 27.6113L51.2854 26.9964ZM51.4102 26.9629L51.7513 26.4257L51.5154 26.2755L51.2451 26.3481L51.4102 26.9629ZM68.1561 22.4758L67.991 21.861L67.7212 21.9335L67.5918 22.1813L68.1561 22.4758ZM68.2804 22.4423L68.4455 23.0571L69.0599 22.8925L68.8953 22.2777L68.2804 22.4423ZM68.2074 22.1703L67.5913 22.3294L67.593 22.3349L68.2074 22.1703ZM68.2062 22.1652L67.5913 22.3294L67.593 22.3349L68.2062 22.1652ZM49.8152 21.5101L66.8106 16.9564L66.4809 15.7267L49.4859 20.2808L49.8152 21.5101ZM51.9003 26.8314L50.2654 20.7306L49.0357 21.0603L50.6706 27.1611L51.9003 26.8314ZM51.2451 26.3481L51.1208 26.3816L51.4501 27.6113L51.5748 27.5778L51.2451 26.3481ZM59.9737 25.4307C57.9005 25.9862 55.9754 26.3502 54.4703 26.5059C53.7163 26.5836 53.0824 26.6078 52.5944 26.5819C52.0742 26.5539 51.8252 26.4728 51.7513 26.4257L51.0686 27.5001C51.4416 27.7373 51.9826 27.8239 52.5265 27.8527C53.1036 27.8837 53.8092 27.854 54.601 27.7721C56.1879 27.6079 58.1805 27.2294 60.3029 26.6604L59.9737 25.4307ZM67.5918 22.1813C67.551 22.259 67.3762 22.4538 66.9396 22.738C66.5301 23.0045 65.9688 23.3007 65.2771 23.61C63.8956 24.2282 62.0468 24.8753 59.9737 25.4307L60.3029 26.6604C62.4258 26.0918 64.3407 25.4235 65.7969 24.7722C66.5238 24.4472 67.1496 24.12 67.6338 23.8048C68.0908 23.5077 68.5159 23.1619 68.72 22.7703L67.5918 22.1813ZM68.1158 21.8279L67.991 21.861L68.3207 23.0906L68.4455 23.0571L68.1158 21.8279ZM67.593 22.3349L67.6656 22.6074L68.8953 22.2777L68.8223 22.0057L67.593 22.3349ZM67.5922 22.3324C67.5922 22.332 67.5918 22.3307 67.5913 22.3294L68.824 22.0112C68.8231 22.0082 68.8223 22.0053 68.8218 22.0031L67.5922 22.3324ZM67.593 22.3349C67.5926 22.3337 67.5922 22.3332 67.5922 22.3324L68.8218 22.0031C68.821 22.0006 68.8202 21.998 68.8193 21.9951L67.593 22.3349ZM66.0311 16.5066L67.5913 22.3294L68.821 22.0006L67.2608 16.1769L66.0311 16.5066Z" fill="black"/>
</g>
</g>
<g id="Vector_31">
<path d="M66.3086 16.5836C66.3646 16.6112 66.3871 16.6324 66.3952 16.6421C66.393 16.6545 66.3841 16.6842 66.3493 16.7363C66.2895 16.8259 66.1775 16.9421 65.9997 17.0813C65.6458 17.3575 65.0925 17.6766 64.3691 18.0165C62.9268 18.6945 60.8672 19.4286 58.5331 20.054C56.1989 20.6795 54.0481 21.0737 52.4603 21.2077C51.6639 21.2748 51.0249 21.2752 50.5802 21.2128C50.3566 21.1814 50.2017 21.1365 50.105 21.0889C50.0489 21.0614 50.0265 21.0401 50.0184 21.0304C50.0205 21.0181 50.0294 20.9884 50.0642 20.9362C50.1241 20.8467 50.2356 20.7304 50.4139 20.5912C50.7673 20.315 51.321 19.9959 52.0445 19.6556C53.4867 18.978 55.5463 18.2439 57.8805 17.6185C60.2146 16.9931 62.3655 16.5989 63.9533 16.4648C64.7497 16.3977 65.3887 16.3973 65.8334 16.4597C66.057 16.4911 66.2119 16.5361 66.3086 16.5836Z" fill="#F57C00"/>
<path d="M66.396 16.6354C66.396 16.6354 66.396 16.6358 66.396 16.6366M50.0142 21.0244C50.0142 21.0244 50.0146 21.0249 50.015 21.0257M50.0176 21.0372C50.0176 21.0372 50.0176 21.0367 50.0176 21.0359M66.3986 16.6468C66.399 16.6472 66.3994 16.6477 66.3994 16.6477M66.3086 16.5836C66.3646 16.6112 66.3871 16.6324 66.3952 16.6421C66.393 16.6545 66.3841 16.6842 66.3493 16.7363C66.2895 16.8259 66.1775 16.9421 65.9997 17.0813C65.6458 17.3575 65.0925 17.6766 64.3691 18.0165C62.9268 18.6945 60.8672 19.4286 58.5331 20.054C56.1989 20.6795 54.0481 21.0737 52.4603 21.2077C51.6639 21.2748 51.0249 21.2752 50.5802 21.2128C50.3566 21.1814 50.2017 21.1365 50.105 21.0889C50.0489 21.0614 50.0265 21.0401 50.0184 21.0304C50.0205 21.0181 50.0294 20.9884 50.0642 20.9362C50.1241 20.8467 50.2356 20.7304 50.4139 20.5912C50.7673 20.315 51.321 19.9959 52.0445 19.6556C53.4867 18.978 55.5463 18.2439 57.8805 17.6185C60.2146 16.9931 62.3655 16.5989 63.9533 16.4648C64.7497 16.3977 65.3887 16.3973 65.8334 16.4597C66.057 16.4911 66.2119 16.5361 66.3086 16.5836Z" stroke="black" stroke-width="0.636469"/>
</g>
<path id="Vector_32" d="M63.7374 38.6054L65.197 44.0527M48.4855 42.6924L49.9451 48.1397M78.9897 34.5189L80.4493 39.9662M34.9456 44.4524L36.4053 49.8994M91.5965 29.2727L93.0561 34.72M22.1598 45.5425L23.6195 50.9898M103.214 23.8245L104.673 29.2718M9.77881 44.6565L11.238 50.1039M113.493 16.8662L114.953 22.3135" stroke="black" stroke-width="0.636469" stroke-linecap="round"/>
<path id="Vector_33" d="M21.4667 64.7567C21.4362 64.609 21.3059 64.5034 21.1553 64.5034C21.0046 64.5034 20.8744 64.609 20.8438 64.7567L18.6162 75.4702L7.72663 77.6634C7.57812 77.6931 7.47119 77.8238 7.47119 77.9753C7.47119 78.1268 7.57812 78.2575 7.72663 78.2872L18.6162 80.4804L20.8438 91.1939C20.8744 91.3416 21.0046 91.4472 21.1553 91.4472C21.3059 91.4472 21.4362 91.3416 21.4667 91.1939L23.6944 80.4804L34.5839 78.2872C34.7324 78.2575 34.8394 78.1268 34.8394 77.9753C34.8394 77.8238 34.7324 77.6931 34.5839 77.6634L23.6944 75.4702L21.4667 64.7567ZM133.91 116.154C133.879 116.006 133.749 115.9 133.598 115.9C133.447 115.9 133.317 116.006 133.287 116.154L131.059 126.868L120.169 129.06C120.021 129.091 119.914 129.221 119.914 129.372C119.914 129.524 120.021 129.654 120.169 129.685L131.059 131.877L133.287 142.591C133.317 142.739 133.447 142.844 133.598 142.844C133.749 142.844 133.879 142.739 133.91 142.591L136.137 131.877L147.027 129.685C147.175 129.654 147.282 129.524 147.282 129.372C147.282 129.221 147.175 129.091 147.027 129.06L136.137 126.868L133.91 116.154Z" fill="white" stroke="black" stroke-width="0.636469" stroke-linejoin="round"/>
<path id="Vector_34" fill-rule="evenodd" clip-rule="evenodd" d="M128.135 41.9876L115.364 40.6184L122.783 15.8992L104.851 33.2633L103.488 19.8848L95.1084 32.5887L85.7009 19.679L87.7287 39.5729L69.8647 35.1617L83.8929 46.8104L83.9523 48.1028C102.623 47.9026 118.864 45.5077 128.135 41.9876Z" fill="#FFD789"/>
<path id="Vector_35" d="M128.135 41.9877L128.248 42.2852L128.169 41.6712L128.135 41.9877ZM115.364 40.6185L115.059 40.5272L114.949 40.8943L115.33 40.935L115.364 40.6185ZM122.783 15.8993L123.088 15.9909L123.439 14.8211L122.562 15.6706L122.783 15.8993ZM104.852 33.2634L104.535 33.2957L104.602 33.9487L105.073 33.4921L104.852 33.2634ZM103.488 19.8849L103.805 19.8526L103.714 18.9641L103.222 19.7096L103.488 19.8849ZM95.1085 32.5888L94.8509 32.7763L95.1212 33.1472L95.3741 32.764L95.1085 32.5888ZM85.7011 19.6791L85.9582 19.4915L85.2649 18.5402L85.3845 19.7113L85.7011 19.6791ZM87.7289 39.573L87.6525 39.8823L88.0912 39.9905L88.0454 39.5407L87.7289 39.573ZM69.8649 35.1618L69.9412 34.8529L69.6616 35.4066L69.8649 35.1618ZM83.8931 46.8105L84.2109 46.796L84.2045 46.6556L84.0963 46.5656L83.8931 46.8105ZM83.9525 48.1029L83.6347 48.1178L83.6487 48.4246L83.9559 48.4212L83.9525 48.1029ZM128.169 41.6712L115.398 40.3024L115.33 40.935L128.101 42.3043L128.169 41.6712ZM115.669 40.7101L123.088 15.9909L122.478 15.8081L115.059 40.5272L115.669 40.7101ZM122.562 15.6706L104.63 33.0347L105.073 33.4921L123.004 16.128L122.562 15.6706ZM105.168 33.2312L103.805 19.8526L103.171 19.9171L104.535 33.2957L105.168 33.2312ZM103.222 19.7096L94.8425 32.4135L95.3741 32.764L103.754 20.0601L103.222 19.7096ZM95.3656 32.4012L85.9582 19.4915L85.4439 19.8662L94.8509 32.7763L95.3656 32.4012ZM85.3845 19.7113L87.4123 39.6052L88.0454 39.5407L86.0176 19.6468L85.3845 19.7113ZM87.8048 39.2641L69.9412 34.8529L69.7885 35.4707L87.6525 39.8823L87.8048 39.2641ZM69.6616 35.4066L83.6898 47.0553L84.0963 46.5656L70.0681 34.917L69.6616 35.4066ZM83.5753 46.8253L83.6347 48.1178L84.2703 48.0885L84.2109 46.796L83.5753 46.8253ZM83.9559 48.4212C102.641 48.2205 118.926 45.8248 128.248 42.2852L128.022 41.6903C118.802 45.1904 102.605 47.5844 83.9491 47.7847L83.9559 48.4212Z" fill="black"/>
</g>
<defs>
<clipPath id="clip0_6781_5563">
<rect width="147.5" height="152.074" fill="white" transform="translate(0.25)"/>
</clipPath>
</defs>
</svg>
