<svg width="16" height="16" viewBox="0 0 16 16" fill="none" xmlns="http://www.w3.org/2000/svg">
<g id="file-locked">
<path id="Vector" d="M7.33396 14.6647H7.15243C4.98159 14.6647 3.89617 14.6647 3.14239 14.1328C2.92641 13.9804 2.73467 13.7997 2.573 13.5961C2.00873 12.8856 2.00873 11.8624 2.00873 9.81625V8.11925C2.00873 6.14379 2.00873 5.15607 2.32088 4.36719C2.82269 3.09897 3.88397 2.09861 5.22941 1.62559C6.06632 1.33136 7.11416 1.33136 9.20989 1.33136C10.4075 1.33136 11.0063 1.33136 11.4845 1.49949C12.2533 1.76979 12.8597 2.34143 13.1465 3.06612C13.3249 3.51691 13.3249 4.08132 13.3249 5.21015V6.66469" stroke="#F57C00" stroke-linecap="round" stroke-linejoin="round"/>
<path id="Vector_2" d="M2.00098 7.99823C2.00098 6.77096 2.99508 5.77599 4.22138 5.77599C4.66487 5.77599 5.18772 5.85376 5.61892 5.73813C6.00204 5.63538 6.30129 5.33589 6.40395 4.95245C6.51949 4.5209 6.44178 3.99762 6.44178 3.55376C6.44178 2.32646 7.43594 1.33154 8.66214 1.33154" stroke="#F57C00" stroke-linecap="round" stroke-linejoin="round"/>
<path id="Vector_3" d="M10.4955 10.7848V9.85762C10.4955 9.72062 10.5012 9.58196 10.5502 9.45409C10.6807 9.11369 11.0264 8.66776 11.6558 8.66776C12.2851 8.66776 12.6445 9.11369 12.7749 9.45409C12.824 9.58196 12.8297 9.72062 12.8297 9.85762L12.8297 10.7848M10.5417 14.6678H12.797C13.4609 14.6678 13.9992 14.1298 13.9992 13.4664V12.1318C13.9992 11.4683 13.4609 10.9304 12.797 10.9304H10.5417C9.87781 10.9304 9.33961 11.4683 9.33961 12.1318V13.4664C9.33961 14.1298 9.87781 14.6678 10.5417 14.6678Z" stroke="#F57C00" stroke-linecap="round" stroke-linejoin="round"/>
</g>
</svg>
