<svg width="23" height="22" viewBox="0 0 23 22" fill="none" xmlns="http://www.w3.org/2000/svg">
<g id="information-square">
<path id="Vector" d="M2.79102 11.0004C2.79102 6.89525 2.79102 4.84268 4.06632 3.56736C5.34163 2.29206 7.3942 2.29206 11.4993 2.29206C15.6045 2.29206 17.6571 2.29206 18.9324 3.56736C20.2077 4.84268 20.2077 6.89525 20.2077 11.0004C20.2077 15.1055 20.2077 17.1581 18.9324 18.4335C17.6571 19.7087 15.6045 19.7087 11.4993 19.7087C7.3942 19.7087 5.34163 19.7087 4.06632 18.4335C2.79102 17.1581 2.79102 15.1055 2.79102 11.0004Z" stroke="#52525B" stroke-width="1.375"/>
<path id="Vector_2" d="M11.7214 15.5837V11.0004C11.7214 10.5683 11.7214 10.3522 11.5871 10.2179C11.4529 10.0837 11.2368 10.0837 10.8047 10.0837" stroke="#52525B" stroke-width="1.375" stroke-linecap="round" stroke-linejoin="round"/>
<path id="Vector_3" d="M11.4922 7.33373H11.4989" stroke="#52525B" stroke-width="1.83333" stroke-linecap="round" stroke-linejoin="round"/>
</g>
</svg>
