<svg width="30" height="36" viewBox="0 0 30 36" fill="none" xmlns="http://www.w3.org/2000/svg">
<g id="Group 1">
<path id="Vector" d="M14.9961 4.11831L20.7233 7.42556L23.6272 5.7536L14.9961 0.767059L0.579102 9.09751L3.46836 10.7695L14.9961 4.11831Z" fill="#F57C00"/>
<path id="Vector_2" d="M26.5172 7.42563L14.9968 14.0768L9.26964 10.7695L6.37305 12.4415L14.9968 17.4207L29.4211 9.09758L26.5172 7.42563Z" fill="#F57C00"/>
<path id="Vector_3" d="M2.89659 18.6161L0 16.9441V26.9025L14.417 35.233V31.889L2.89659 25.2305V18.6161Z" fill="#F57C00"/>
<path id="Vector_4" d="M0 13.6001L11.5204 20.2513V26.8658L14.417 28.5451V18.5793L0 10.2562V13.6001Z" fill="#F57C00"/>
<path id="Vector_5" d="M24.2063 16.9439V13.5999L15.5752 18.5792V35.2327L18.4718 33.5608V20.2511L24.2063 16.9439Z" fill="#F57C00"/>
<path id="Vector_6" d="M27.0963 11.9282V25.2305L21.3691 28.5451V31.889L30.0003 26.9025V10.2562L27.0963 11.9282Z" fill="#F57C00"/>
</g>
</svg>
