<svg width="23" height="22" viewBox="0 0 23 22" fill="none" xmlns="http://www.w3.org/2000/svg">
<g id="pool">
<path id="Vector" d="M20.6673 19.2504H19.7507C18.4202 19.2504 17.2555 18.4631 17.0007 17.4171C16.7458 18.4631 15.5811 19.2504 14.2507 19.2504C12.9202 19.2504 11.7555 18.4631 11.5007 17.4171C11.2458 18.4631 10.0811 19.2504 8.75065 19.2504C7.42023 19.2504 6.25545 18.4631 6.00065 17.4171C5.74585 18.4631 4.58107 19.2504 3.25065 19.2504H2.33398" stroke="#52525B" stroke-width="1.375" stroke-linecap="round" stroke-linejoin="round"/>
<path id="Vector_2" d="M17.917 2.74989L17.6742 2.83083C16.4642 3.23418 15.8591 3.43585 15.513 3.91598C15.167 4.3961 15.167 5.03384 15.167 6.30934V15.5832" stroke="#52525B" stroke-width="1.375" stroke-linecap="round" stroke-linejoin="round"/>
<path id="Vector_3" d="M10.584 2.74989L10.3412 2.83083C9.13111 3.23418 8.52609 3.43585 8.18004 3.91598C7.83398 4.3961 7.83398 5.03384 7.83398 6.30934V15.5832" stroke="#52525B" stroke-width="1.375" stroke-linecap="round" stroke-linejoin="round"/>
<path id="Vector_4" d="M7.83398 6.41706H15.1673M7.83398 10.0837H15.1673M7.83398 13.7504H15.1673" stroke="#52525B" stroke-width="1.375" stroke-linecap="round" stroke-linejoin="round"/>
</g>
</svg>
