<svg width="157" height="100" viewBox="0 0 157 100" fill="none" xmlns="http://www.w3.org/2000/svg">
<g id="task-done 1" clip-path="url(#clip0_6744_3274)">
<g id="Group">
<path id="Vector" d="M136.069 51.044C136.701 58.1552 135.14 65.2891 131.596 71.4866C128.052 77.6841 122.696 82.6479 116.247 85.7107L98.4205 73.6796C94.6071 73.6796 89.6294 73.6263 83.7538 73.4929C76.9094 73.3329 72.896 73.1418 71.256 70.5818C70.5286 69.3665 70.1575 67.9712 70.1849 66.5551C70.2557 65.3944 70.6197 64.2705 71.2427 63.2885C69.3886 63.6342 67.4729 63.2367 65.9093 62.1818C64.9473 61.5832 64.2063 60.6877 63.7982 59.6307C62.7627 56.5196 65.656 52.3951 65.656 52.3951C61.776 53.164 58.2649 50.8974 57.5716 47.8751C57.0827 45.7374 58.016 43.364 59.9138 41.7596C57.8649 42.7907 55.6338 42.7418 54.2293 41.5818C53.4062 40.8154 52.8804 39.7827 52.7449 38.6663C52.3005 36.0974 53.5627 33.9774 53.9582 33.3329C55.5982 30.6129 58.7316 29.0663 65.3271 27.4485C74.0738 25.2974 78.4427 24.2263 83.5893 24.9996C91.0516 26.124 96.5405 29.8351 99.8694 32.084C108.34 37.7774 112.154 40.6129 112.154 40.6129C113.583 41.69 115.127 42.6053 116.758 43.3418C117.767 43.7863 118.536 44.0574 118.807 44.1551L136.069 51.044Z" fill="#FCA490"/>
<path id="Vector_2" d="M129.611 48.4666C129.611 48.4666 127.474 67.4355 110.731 82L122.034 92.1778C123.268 93.2944 124.868 93.9202 126.532 93.9366C128.197 93.9529 129.809 93.3588 131.065 92.2666C133.576 90.0605 135.861 87.6099 137.887 84.9511C143.195 77.8853 146.618 69.5848 147.834 60.8311C148.062 59.2734 147.745 57.6846 146.934 56.3348C146.124 54.9849 144.871 53.9573 143.389 53.4266L129.611 48.4666Z" fill="#F57C00"/>
<path id="Vector_3" d="M96.1414 13.4843V77.8399C96.1414 79.951 93.7325 81.6621 90.7592 81.6621H14.5414C11.5681 81.6621 9.15918 79.951 9.15918 77.8399V13.5821C9.16807 11.4666 11.5681 9.77767 14.5414 9.77767H90.817C93.7058 9.77767 96.1236 11.4132 96.1503 13.4621L96.1414 13.4843Z" fill="#F57C00"/>
<path id="Vector_4" d="M96.0873 11.7243V14.4577H9.10059V11.7243C9.10059 8.61322 11.9139 6.06211 15.3895 6.06211H89.7984C90.802 6.04686 91.7954 6.26447 92.7008 6.69785C93.6061 7.13124 94.3986 7.7686 95.0161 8.55989C95.708 9.47005 96.0841 10.5811 96.0873 11.7243Z" fill="#11152C"/>
<path id="Vector_5" d="M16.9939 8.41342C17.3597 8.41254 17.7176 8.52023 18.0223 8.72285C18.3269 8.92547 18.5646 9.21392 18.7052 9.55168C18.8458 9.88945 18.883 10.2613 18.8122 10.6203C18.7414 10.9792 18.5656 11.3091 18.3072 11.5681C18.0488 11.8271 17.7194 12.0036 17.3606 12.0753C17.0019 12.147 16.6299 12.1107 16.2918 11.9709C15.9537 11.8311 15.6647 11.5941 15.4613 11.29C15.258 10.9858 15.1494 10.6282 15.1494 10.2623C15.1494 9.77272 15.3436 9.30312 15.6894 8.95652C16.0351 8.60991 16.5043 8.4146 16.9939 8.41342ZM24.0516 8.41342C24.4173 8.41342 24.7748 8.52185 25.0788 8.72501C25.3829 8.92817 25.6199 9.21693 25.7598 9.55477C25.8997 9.89261 25.9363 10.2644 25.865 10.623C25.7937 10.9817 25.6176 11.3111 25.359 11.5697C25.1004 11.8282 24.771 12.0043 24.4123 12.0757C24.0537 12.147 23.6819 12.1104 23.3441 11.9705C23.0063 11.8305 22.7175 11.5935 22.5143 11.2895C22.3112 10.9854 22.2027 10.628 22.2027 10.2623C22.2022 10.0193 22.2496 9.77866 22.3423 9.55408C22.435 9.32949 22.5712 9.12544 22.743 8.95364C22.9148 8.78184 23.1188 8.64567 23.3434 8.55296C23.568 8.46026 23.8087 8.41283 24.0516 8.41342ZM31.105 8.41342C31.4706 8.41342 31.8281 8.52185 32.1322 8.72501C32.4362 8.92817 32.6732 9.21693 32.8131 9.55477C32.9531 9.89261 32.9897 10.2644 32.9183 10.623C32.847 10.9817 32.6709 11.3111 32.4123 11.5697C32.1538 11.8282 31.8243 12.0043 31.4657 12.0757C31.107 12.147 30.7353 12.1104 30.3974 11.9705C30.0596 11.8305 29.7708 11.5935 29.5677 11.2895C29.3645 10.9854 29.2561 10.628 29.2561 10.2623C29.2555 10.0193 29.3029 9.77866 29.3956 9.55408C29.4883 9.32949 29.6245 9.12544 29.7963 8.95364C29.9681 8.78184 30.1722 8.64567 30.3967 8.55296C30.6213 8.46026 30.862 8.41283 31.105 8.41342Z" fill="white"/>
<path id="Vector_6" d="M114.424 54.6132C113.704 55.502 112.238 57.302 109.873 58.0265C106.718 58.9998 104.602 56.5554 95.0288 51.4443C81.7977 44.3776 79.8243 39.8887 79.4732 37.1509C79.2377 35.3732 79.7354 34.6754 79.9177 34.4843C81.6954 32.2976 86.6732 35.5865 95.1843 36.1198C96.2688 36.1909 97.0865 36.062 99.0288 36.1198C101.38 36.1687 104.42 36.2309 106.655 36.6798C108.455 37.0443 114.575 38.2754 116.695 43.2798C118.438 47.3954 116.544 51.9998 114.424 54.6132Z" fill="#FCA490"/>
<path id="Vector_7" d="M110.408 60.6753C95.2973 54.4531 86.2617 46.9598 86.1729 46.8975L87.1773 45.702C87.2662 45.7731 96.1106 53.1242 111.004 59.2442L110.408 60.6753Z" fill="#D66662"/>
<path id="Vector_8" d="M50.5485 61.3599H50.4996C49.9381 61.353 49.3854 61.2186 48.8834 60.9668C48.3814 60.715 47.9432 60.3525 47.6018 59.9065L35.6018 44.191C35.0516 43.4101 34.8249 42.4466 34.9692 41.5023C35.1136 40.558 35.6177 39.7062 36.3761 39.1254C37.1345 38.5445 38.0882 38.2797 39.0375 38.3864C39.9868 38.4931 40.858 38.963 41.4685 39.6977L50.6152 51.6577L69.8463 27.6177C70.1495 27.2383 70.5245 26.9223 70.9498 26.6879C71.3751 26.4534 71.8424 26.305 72.3251 26.2512C72.8077 26.1973 73.2963 26.239 73.7628 26.374C74.2293 26.5089 74.6647 26.7345 75.0441 27.0377C75.4234 27.3409 75.7394 27.7158 75.9738 28.1411C76.2083 28.5664 76.3567 29.0338 76.4106 29.5164C76.4644 29.9991 76.4227 30.4876 76.2877 30.9542C76.1528 31.4207 75.9273 31.8561 75.6241 32.2354L53.433 59.9688C53.0874 60.4023 52.6487 60.7524 52.1493 60.9932C51.65 61.234 51.1029 61.3594 50.5485 61.3599Z" fill="white"/>
</g>
</g>
<defs>
<clipPath id="clip0_6744_3274">
<rect width="155.556" height="100" fill="white" transform="translate(0.722168)"/>
</clipPath>
</defs>
</svg>
