<svg width="23" height="22" viewBox="0 0 23 22" fill="none" xmlns="http://www.w3.org/2000/svg">
<g id="user-group">
<path id="Vector" d="M19.5428 16.4999C20.2297 16.4999 20.776 16.0677 21.2666 15.4632C22.2707 14.226 20.622 13.2373 19.9933 12.7531C19.354 12.2609 18.6403 11.982 17.9167 11.9166M17 10.0832C18.2656 10.0832 19.2917 9.0572 19.2917 7.79155C19.2917 6.5259 18.2656 5.49989 17 5.49989" stroke="#52525B" stroke-width="1.375" stroke-linecap="round"/>
<path id="Vector_2" d="M3.45648 16.4999C2.76962 16.4999 2.22329 16.0677 1.73277 15.4632C0.728595 14.226 2.37729 13.2373 3.00611 12.7531C3.64532 12.2609 4.35905 11.982 5.08268 11.9166M5.54101 10.0832C4.27536 10.0832 3.24935 9.0572 3.24935 7.79155C3.24935 6.5259 4.27536 5.49989 5.54101 5.49989" stroke="#52525B" stroke-width="1.375" stroke-linecap="round"/>
<path id="Vector_3" d="M7.9095 13.8523C6.97287 14.4315 4.51709 15.6141 6.01282 17.0938C6.74348 17.8167 7.55724 18.3337 8.58034 18.3337H14.4184C15.4415 18.3337 16.2552 17.8167 16.9859 17.0938C18.4816 15.6141 16.0258 14.4315 15.0892 13.8523C12.8928 12.4942 10.1059 12.4942 7.9095 13.8523Z" stroke="#52525B" stroke-width="1.375" stroke-linecap="round" stroke-linejoin="round"/>
<path id="Vector_4" d="M14.7077 6.87539C14.7077 8.64731 13.2713 10.0837 11.4993 10.0837C9.72743 10.0837 8.29102 8.64731 8.29102 6.87539C8.29102 5.10348 9.72743 3.66706 11.4993 3.66706C13.2713 3.66706 14.7077 5.10348 14.7077 6.87539Z" stroke="#52525B" stroke-width="1.375"/>
</g>
</svg>
