<svg width="23" height="22" viewBox="0 0 23 22" fill="none" xmlns="http://www.w3.org/2000/svg">
<g id="user-group">
<path id="Vector" d="M19.5426 16.4999C20.2294 16.4999 20.7758 16.0677 21.2664 15.4632C22.2705 14.226 20.6218 13.2373 19.993 12.7531C19.3538 12.2609 18.64 11.982 17.9164 11.9166M16.9998 10.0832C18.2654 10.0832 19.2914 9.0572 19.2914 7.79155C19.2914 6.5259 18.2654 5.49989 16.9998 5.49989" stroke="#F57C00" stroke-width="1.375" stroke-linecap="round"/>
<path id="Vector_2" d="M3.45636 16.4999C2.7695 16.4999 2.22317 16.0677 1.73265 15.4632C0.728473 14.226 2.37717 13.2373 3.00599 12.7531C3.6452 12.2609 4.35892 11.982 5.08256 11.9166M5.54089 10.0832C4.27524 10.0832 3.24923 9.0572 3.24923 7.79155C3.24923 6.5259 4.27524 5.49989 5.54089 5.49989" stroke="#F57C00" stroke-width="1.375" stroke-linecap="round"/>
<path id="Vector_3" d="M7.90937 13.8523C6.97275 14.4315 4.51697 15.6141 6.0127 17.0938C6.74336 17.8167 7.55712 18.3337 8.58022 18.3337H14.4183C15.4413 18.3337 16.2551 17.8167 16.9857 17.0938C18.4815 15.6141 16.0257 14.4315 15.0891 13.8523C12.8926 12.4942 10.1058 12.4942 7.90937 13.8523Z" stroke="#F57C00" stroke-width="1.375" stroke-linecap="round" stroke-linejoin="round"/>
<path id="Vector_4" d="M14.7076 6.87539C14.7076 8.64731 13.2711 10.0837 11.4992 10.0837C9.72731 10.0837 8.29089 8.64731 8.29089 6.87539C8.29089 5.10348 9.72731 3.66706 11.4992 3.66706C13.2711 3.66706 14.7076 5.10348 14.7076 6.87539Z" stroke="#F57C00" stroke-width="1.375"/>
</g>
</svg>
