<svg width="23" height="22" viewBox="0 0 23 22" fill="none" xmlns="http://www.w3.org/2000/svg">
<g id="view">
<path id="Vector" d="M20.2491 10.125C20.5277 10.5158 20.6671 10.7112 20.6671 11.0004C20.6671 11.2896 20.5277 11.485 20.2491 11.8758C18.9968 13.6318 15.7988 17.4171 11.5004 17.4171C7.20196 17.4171 4.004 13.6318 2.75178 11.8758C2.47308 11.485 2.33374 11.2896 2.33374 11.0004C2.33374 10.7112 2.47308 10.5158 2.75178 10.125C4.004 8.36905 7.20196 4.58373 11.5004 4.58373C15.7988 4.58373 18.9968 8.36905 20.2491 10.125Z" stroke="#F57C00" stroke-width="1.375"/>
<path id="Vector_2" d="M14.25 10.9999C14.25 9.48106 13.0188 8.24989 11.5 8.24989C9.98117 8.24989 8.75 9.48106 8.75 10.9999C8.75 12.5187 9.98117 13.7499 11.5 13.7499C13.0188 13.7499 14.25 12.5187 14.25 10.9999Z" stroke="#F57C00" stroke-width="1.375"/>
</g>
</svg>
