<svg width="23" height="22" viewBox="0 0 23 22" fill="none" xmlns="http://www.w3.org/2000/svg">
<g id="wallet-01">
<path id="Vector" d="M15.166 12.8337C15.166 13.5931 15.7816 14.2087 16.541 14.2087C17.3004 14.2087 17.916 13.5931 17.916 12.8337C17.916 12.0744 17.3004 11.4587 16.541 11.4587C15.7816 11.4587 15.166 12.0744 15.166 12.8337Z" stroke="#F57C00" stroke-width="1.375"/>
<path id="Vector_2" d="M9.66683 6.41655H15.1668C17.7595 6.41655 19.0559 6.41655 19.8614 7.22201C20.6668 8.02747 20.6668 9.32385 20.6668 11.9166V13.7499C20.6668 16.3426 20.6668 17.6389 19.8614 18.4444C19.0559 19.2499 17.7595 19.2499 15.1668 19.2499H9.66683C6.20986 19.2499 4.48138 19.2499 3.40744 18.1759C2.3335 17.102 2.3335 15.3735 2.3335 11.9166V10.0832C2.3335 6.62625 2.3335 4.89777 3.40744 3.82382C4.48138 2.74989 6.20986 2.74989 9.66683 2.74989H13.3335C14.186 2.74989 14.6122 2.74989 14.962 2.84359C15.9109 3.09787 16.6522 3.83913 16.9065 4.78813C17.0002 5.13784 17.0002 5.56408 17.0002 6.41655" stroke="#F57C00" stroke-width="1.375" stroke-linecap="round"/>
</g>
</svg>
