<svg width="23" height="22" viewBox="0 0 23 22" fill="none" xmlns="http://www.w3.org/2000/svg">
<g id="wallet-01">
<path id="Vector" d="M15.166 12.8337C15.166 13.5931 15.7816 14.2087 16.541 14.2087C17.3004 14.2087 17.916 13.5931 17.916 12.8337C17.916 12.0744 17.3004 11.4587 16.541 11.4587C15.7816 11.4587 15.166 12.0744 15.166 12.8337Z" stroke="#52525B" stroke-width="1.375"/>
<path id="Vector_2" d="M9.66634 6.41655H15.1663C17.759 6.41655 19.0554 6.41655 19.8609 7.22201C20.6663 8.02747 20.6663 9.32385 20.6663 11.9166V13.7499C20.6663 16.3426 20.6663 17.6389 19.8609 18.4444C19.0554 19.2499 17.759 19.2499 15.1663 19.2499H9.66634C6.20937 19.2499 4.4809 19.2499 3.40695 18.1759C2.33301 17.102 2.33301 15.3735 2.33301 11.9166V10.0832C2.33301 6.62625 2.33301 4.89777 3.40695 3.82382C4.4809 2.74989 6.20937 2.74989 9.66634 2.74989H13.333C14.1855 2.74989 14.6118 2.74989 14.9615 2.84359C15.9104 3.09787 16.6517 3.83913 16.906 4.78813C16.9997 5.13784 16.9997 5.56408 16.9997 6.41655" stroke="#52525B" stroke-width="1.375" stroke-linecap="round"/>
</g>
</svg>
